<?xml version="1.0" encoding="UTF-8" standalone="no"?>
<svg width="263px" height="84px" viewBox="0 0 263 84" version="1.1" xmlns="http://www.w3.org/2000/svg" xmlns:xlink="http://www.w3.org/1999/xlink">
    <!-- Generator: Sketch 3.6.1 (26313) - http://www.bohemiancoding.com/sketch -->
    <title>Icon</title>
    <desc>Created with Sketch.</desc>
    <defs>
        <path id="path-1" d="M0.0190930909,83.198186 L216.018486,83.198186 L216.018486,0.0108288645 L0.0190930909,0.0108288645 L0.0190930909,83.198186 L0.0190930909,83.198186 Z"></path>
    </defs>
    <g id="Desktop" stroke="none" stroke-width="1" fill="none" fill-rule="evenodd">
        <g id="What-is-Direct-Cremation" transform="translate(-372.000000, -662.000000)">
            <g id="Steps" transform="translate(128.000000, 578.000000)">
                <g id="1">
                    <g id="Icon" transform="translate(244.000000, 84.000000)">
                        <path d="M61.224913,30.2456595 L68.9886192,11.3164878 C69.6995633,9.88588705 72.5525806,8.14104319 74.1518967,8.14104319 L136.336091,8.14104319 L166.538276,8.14104319 L166.538276,30.2456595 L160.49402,30.2456595 L71.0844873,30.2456595 L61.224913,30.2456595 Z M88.2038231,63.4521047 C88.2038231,61.5648121 88.7724551,59.8132432 89.7446126,58.3490172 C94.6861051,58.3942584 99.9510339,58.4419451 105.458694,58.4908545 C106.374789,59.9257349 106.912618,61.6241148 106.912618,63.4521047 C106.912618,68.5845378 102.731355,72.7351142 97.5600687,72.7351142 C92.3850859,72.7351142 88.2038231,68.5845378 88.2038231,63.4521047 L88.2038231,63.4521047 Z M177.777846,8.84228212 L187.131011,8.84228212 C189.039594,8.84228212 194.621183,10.7552521 195.640778,12.3515336 L212.174848,30.9468984 L177.777846,30.9468984 L177.777846,8.84228212 Z M214.268251,63.4521047 C214.268251,61.9536421 214.632964,60.5432164 215.266284,59.291135 C221.279121,59.3186466 226.901986,59.3388217 232.007353,59.3510491 C232.62219,60.5878463 232.97643,61.976874 232.97643,63.4521047 C232.97643,68.5845378 228.795783,72.7351142 223.622033,72.7351142 C218.448898,72.7351142 214.268251,68.5845378 214.268251,63.4521047 L214.268251,63.4521047 Z M50.4868237,57.9760828 C50.4868237,57.9760828 61.9876069,58.0910199 79.5991821,58.2554779 C79.1149516,59.9049484 78.8500417,61.6479581 78.8500417,63.4521047 C78.8500417,73.6998527 87.2316656,82.016901 97.5600687,82.016901 C107.885391,82.016901 116.266399,73.6998527 116.266399,63.4521047 C116.266399,61.7653408 116.035373,60.1329886 115.609669,58.5788915 C144.378877,58.8277182 177.845614,59.0930518 205.404861,59.2416142 C205.088201,60.5951827 204.915086,62.0037742 204.915086,63.4521047 C204.915086,73.6998527 213.296094,82.016901 223.622033,82.016901 C233.94982,82.016901 242.330827,73.6998527 242.330827,63.4521047 C242.330827,62.0459586 242.167569,60.6789401 241.869391,59.3620537 C253.489692,59.3589969 260.690311,59.28441 260.887453,59.1065019 C261.961878,58.1356498 254.427966,35.2857761 251.243503,32.6085962 C248.404655,30.71519 224.279995,30.0115056 222.104038,28.3443054 C219.928081,26.6758825 201.123795,5.48281574 198.053921,4.1787681 C189.367959,0.486717605 70.335963,0.66218018 67.352339,2.77201066 C64.3693311,4.88184114 54.6526849,22.1315853 54.6526849,22.1315853 L49.138864,31.3045486 C44.5830309,36.7023154 50.4825113,57.9785282 50.4868237,57.9760828 L50.4868237,57.9760828 Z" id="Fill-1" fill="#EEF7FC"></path>
                        <g id="Group-5" transform="translate(46.205203, 0.041573)">
                            <mask id="mask-2" fill="white">
                                <use xlink:href="#path-1"></use>
                            </mask>
                            <g id="Clip-4"></g>
                            <path d="M3.87809511,32.0483387 C3.91998783,31.9988179 3.95818413,31.9456289 3.99206795,31.8893831 L9.50588886,22.7158084 C13.1807427,16.1931247 19.6864353,5.42265714 21.7835355,3.78480265 C23.8652339,3.13675272 42.8155279,2.4563003 74.296673,2.4563003 C115.786481,2.4563003 147.477706,3.60934008 151.363256,5.2618674 C153.072848,5.98756104 162.125987,15.6447277 167.535077,21.4142062 C171.837089,26.0031333 174.311224,28.6307924 175.145382,29.2702832 C176.36027,30.2013964 180.474382,30.6697042 189.573726,31.5176714 C195.225547,32.0446705 202.936271,32.7630278 204.296552,33.5486355 C206.879115,35.9017903 212.871006,53.7060451 213.504325,57.948938 C211.782411,58.0198567 207.092891,58.0981118 194.842968,58.0981118 C145.278954,58.0981118 17.4199161,56.8417508 5.22235849,56.7213114 C3.37969499,49.891721 0.802060721,35.6927025 3.87809511,32.0483387 M34.3519668,59.4449552 C36.6474413,59.4663531 39.0439512,59.4883623 41.5267107,59.5109829 C41.0387838,60.7178231 40.7664811,62.032264 40.7664811,63.4102871 C40.7664811,69.2029976 45.516376,73.9160324 51.3542494,73.9160324 C57.1908907,73.9160324 61.9395534,69.2029976 61.9395534,63.4102871 C61.9395534,62.1007372 61.6949739,60.8462103 61.251404,59.6882796 C63.6023247,59.7096775 65.9982185,59.730464 68.4249158,59.7512505 C68.6824328,60.9324132 68.8290573,62.1545375 68.8290573,63.4102871 C68.8290573,72.9733031 60.9895745,80.7529591 51.3542494,80.7529591 C41.7176923,80.7529591 33.8769773,72.9733031 33.8769773,63.4102871 C33.8769773,62.0451027 34.0500928,60.7208799 34.3519668,59.4449552 M44.2417285,59.536049 C48.7636777,59.577622 53.5505368,59.6204178 58.5394666,59.6644362 C59.1345896,60.7844622 59.4752759,62.0579414 59.4752759,63.4102871 C59.4752759,67.8549314 55.8324577,71.470561 51.3542494,71.470561 C46.874809,71.470561 43.2307586,67.8549314 43.2307586,63.4102871 C43.2307586,62.0053638 43.6016324,60.6872547 44.2417285,59.536049 M177.416829,71.470561 C172.938621,71.470561 169.295187,67.8549314 169.295187,63.4102871 C169.295187,62.3740186 169.500338,61.3866595 169.860739,60.4763328 C175.266131,60.5001761 180.345007,60.5185171 185.002492,60.5301331 C185.348723,61.4251757 185.539088,62.3960278 185.539088,63.4102871 C185.539088,67.8549314 181.895038,71.470561 177.416829,71.470561 M159.942022,63.4102871 C159.942022,62.392971 160.03628,61.3976641 160.206315,60.4280347 C162.60837,60.4408734 164.963603,60.4524894 167.264622,60.463494 C166.988623,61.4001096 166.830909,62.3868573 166.830909,63.4102871 C166.830909,69.2029976 171.579572,73.9160324 177.416829,73.9160324 C183.254087,73.9160324 188.003366,69.2029976 188.003366,63.4102871 C188.003366,62.4137575 187.859821,61.4502418 187.59676,60.5356354 C190.089376,60.5405264 192.447074,60.5435832 194.650138,60.5435832 C194.807236,61.4765306 194.893485,62.4339326 194.893485,63.4102871 C194.893485,72.9733031 187.053387,80.7529591 177.416829,80.7529591 C167.781504,80.7529591 159.942022,72.9733031 159.942022,63.4102871 M3.31377557,58.6911386 C3.54480158,58.9821497 3.89596113,59.1533327 4.26929917,59.1570009 C4.65064611,59.1606691 15.3911996,59.2682699 31.8266984,59.4217232 C31.5599404,60.711098 31.4126998,62.0438799 31.4126998,63.4102871 C31.4126998,74.3213693 40.3586432,83.1984306 51.3542494,83.1984306 C62.3486235,83.1984306 71.2933348,74.3213693 71.2933348,63.4102871 C71.2933348,62.1679876 71.1756655,60.9525883 70.9544966,59.7732597 C98.8686,60.0135273 130.967663,60.2666336 157.710002,60.4145846 C157.559681,61.3921618 157.477744,62.3917483 157.477744,63.4102871 C157.477744,74.3213693 166.422455,83.1984306 177.416829,83.1984306 C188.41182,83.1984306 197.357763,74.3213693 197.357763,63.4102871 C197.357763,62.4369895 197.285067,61.4795874 197.147683,60.5429719 C214.876312,60.53319 215.030945,60.40358 215.512095,59.9682861 C215.980924,59.5446081 216.024665,58.9448563 216.017888,58.5303489 C215.954433,55.0431066 209.218947,34.4791373 205.834262,31.6338313 C205.799762,31.6044857 205.762797,31.5775855 205.725833,31.551908 C204.124053,30.4838484 198.642268,29.9067171 189.80352,29.0825932 C184.678439,28.605115 177.658945,27.9515627 176.631341,27.3206311 C175.937031,26.7875183 172.732238,23.3681379 169.338928,19.7488402 C160.662823,10.4939535 154.365362,3.87589646 152.333565,3.01325642 C147.11977,0.79704793 107.036448,0.0108288645 74.296673,0.0108288645 C60.4825494,0.0108288645 47.5598781,0.151443472 37.9097674,0.406383869 C21.7034464,0.835564105 20.9081009,1.39802253 20.4324953,1.73427486 C17.3133361,3.94009009 8.38033011,19.7029876 7.37182455,21.4930727 L1.92207485,30.5590466 C-2.80995403,36.4257326 2.69770619,57.9153128 3.31377557,58.6911386" id="Fill-3" fill="#7AB1D6" mask="url(#mask-2)"></path>
                        </g>
                        <path d="M12.8959338,68.8600813 L51.0669763,68.8600813 C51.7471169,68.8600813 52.299115,68.3122957 52.299115,67.6373456 C52.299115,66.9623955 51.7471169,66.4146099 51.0669763,66.4146099 L12.8959338,66.4146099 C12.2157932,66.4146099 11.6637951,66.9623955 11.6637951,67.6373456 C11.6637951,68.3122957 12.2157932,68.8600813 12.8959338,68.8600813" id="Fill-6" fill="#7AB1D6"></path>
                        <path d="M1.23213875,60.4895994 L39.4031812,60.4895994 C40.0833218,60.4895994 40.63532,59.9418138 40.63532,59.2668637 C40.63532,58.5919136 40.0833218,58.044128 39.4031812,58.044128 L1.23213875,58.044128 C0.551998161,58.044128 0,58.5919136 0,59.2668637 C0,59.9418138 0.551998161,60.4895994 1.23213875,60.4895994" id="Fill-8" fill="#7AB1D6"></path>
                        <path d="M57.4069462,42.3640709 L249.166548,42.3640709 C250.237277,42.3640709 251.105935,41.8162853 251.105935,41.1413352 C251.105935,40.466385 250.237277,39.9185994 249.166548,39.9185994 L57.4069462,39.9185994 C56.3362177,39.9185994 55.4675598,40.466385 55.4675598,41.1413352 C55.4675598,41.8162853 56.3362177,42.3640709 57.4069462,42.3640709" id="Fill-10" fill="#7AB1D6"></path>
                        <path d="M194.716427,13.1608013 C194.673918,13.1125032 194.63449,13.0605369 194.59999,13.0061252 C193.919849,11.9417338 188.863768,10.0654458 187.130765,10.0654458 L179.010354,10.0654458 L179.010354,29.7245906 L209.444798,29.7245906 L194.716427,13.1608013 Z M176.546077,30.9473264 L176.546077,8.84271008 C176.546077,8.1671486 177.097459,7.61997436 177.778216,7.61997436 L187.130765,7.61997436 C189.268526,7.61997436 195.156301,9.53233302 196.617617,11.6024246 L213.099321,30.1384867 C213.419061,30.4985823 213.497302,31.0121313 213.298312,31.4498707 C213.099321,31.8882215 212.659448,32.1700621 212.175217,32.1700621 L177.778216,32.1700621 C177.097459,32.1700621 176.546077,31.6222765 176.546077,30.9473264 L176.546077,30.9473264 Z" id="Fill-12" fill="#7AB1D6"></path>
                        <path d="M164.948386,29.3555079 L161.892066,29.3555079 L69.7453373,29.3555079 L63.3129569,29.3555079 L69.5950163,14.0395203 C70.6078344,14.4375208 71.8017768,14.6710633 73.0856654,14.6710633 C75.4643093,14.6710633 77.5441595,13.881176 78.7091467,12.7000133 C79.8729017,13.881176 81.953368,14.6710633 84.3326279,14.6710633 C86.7112718,14.6710633 88.7917381,13.881176 89.9561092,12.7000133 C91.1210964,13.881176 93.2003305,14.6710633 95.5795905,14.6710633 C97.9582343,14.6710633 100.038701,13.881176 101.203072,12.7000133 C102.368059,13.881176 104.447909,14.6710633 106.826553,14.6710633 C109.205813,14.6710633 111.286279,13.881176 112.450034,12.7000133 C113.615021,13.881176 115.694872,14.6710633 118.073516,14.6710633 C120.452775,14.6710633 122.532626,13.881176 123.697613,12.7000133 C124.8626,13.881176 126.941834,14.6710633 129.320478,14.6710633 C131.699738,14.6710633 133.779588,13.881176 134.944575,12.7000133 C136.108947,13.881176 138.188797,14.6710633 140.568057,14.6710633 C142.947317,14.6710633 145.026551,13.881176 146.191538,12.7000133 C147.355909,13.881176 149.435759,14.6710633 151.815635,14.6710633 C154.194279,14.6710633 156.274129,13.881176 157.439117,12.7000133 C158.603488,13.881176 160.682722,14.6710633 163.061982,14.6710633 C163.718712,14.6710633 164.349567,14.6087038 164.948386,14.4968234 L164.948386,29.3555079 Z M166.359185,7.28635092 L74.120662,7.28635092 C71.9976869,7.28635092 68.6370285,9.35521975 67.6999869,11.2376214 C67.6852013,11.2675784 67.6716477,11.2987582 67.6580942,11.3305493 L59.9781734,30.0555241 C59.8574238,30.261555 59.7896561,30.5012112 59.7896561,30.7561516 C59.7896561,31.529532 60.4205112,32.1567954 61.2010711,32.1567954 C61.2035354,32.1567954 61.2084639,32.1574068 61.2140085,32.1567954 L71.0193687,32.1567954 C71.06619,32.1622977 71.1130113,32.1702455 71.1610647,32.1702455 C71.2066538,32.1702455 71.252243,32.1678 71.2978321,32.1629091 C71.3076892,32.1616863 71.3169302,32.1580181 71.3261713,32.1567954 L166.359185,32.1567954 C167.138513,32.1567954 167.7706,31.529532 167.7706,30.7561516 L167.7706,8.68699469 C167.7706,7.91422571 167.138513,7.28635092 166.359185,7.28635092 L166.359185,7.28635092 Z" id="Fill-14" fill="#7AB1D6"></path>
                    </g>
                </g>
            </g>
        </g>
    </g>
</svg>