<?xml version="1.0" encoding="UTF-8" standalone="no"?>
<svg width="138px" height="134px" viewBox="0 0 138 134" version="1.1" xmlns="http://www.w3.org/2000/svg" xmlns:xlink="http://www.w3.org/1999/xlink">
    <!-- Generator: Sketch 3.6.1 (26313) - http://www.bohemiancoding.com/sketch -->
    <title>Icon</title>
    <desc>Created with Sketch.</desc>
    <defs></defs>
    <g id="Desktop" stroke="none" stroke-width="1" fill="none" fill-rule="evenodd">
        <g id="What-is-Direct-Cremation" transform="translate(-466.000000, -936.000000)">
            <g id="Steps" transform="translate(128.000000, 578.000000)">
                <g id="2" transform="translate(0.000000, 300.000000)">
                    <g id="Icon" transform="translate(338.000000, 58.000000)">
                        <path d="M69.3536839,49.7022737 C68.7020546,50.3692665 67.8302985,50.7414633 66.8986302,50.7522321 C65.9676351,50.7630009 65.0884741,50.4116687 64.4206888,49.7581369 C63.0905034,48.4557846 63.0642498,46.1579909 64.366162,44.8273704 C65.7104839,43.45704 67.9231961,43.4307911 69.2978107,44.7721803 C69.9629034,45.424366 70.3338205,46.293947 70.3445912,47.2281408 C70.3540156,48.1609885 70.0039668,49.0399922 69.3536839,49.7022737 M136.148377,104.771922 L135.393752,104.017432 L105.837518,74.4664861 L105.837518,23.8066638 L86.2004546,1.83426396 L11.5195668,1.83426396 L11.5195668,10.4560382 L1.16148878,10.4560382 L1.16148878,131.786141 L95.4801132,131.786141 L95.4801132,123.16504 L105.837518,123.16504 L105.837518,97.9586334 L123.64423,115.762833 L124.400201,116.517322 C125.062601,117.179604 126.137655,117.179604 126.799381,116.517322 L136.149723,107.169327 C136.81145,106.507045 136.810777,105.434203 136.148377,104.771922" id="Fill-1" fill="#EEF7FC"></path>
                        <path d="M60.9633512,52.1105149 C62.2369902,52.5843423 65.362522,54.0663991 69.7414976,58.2870975 L77.9185024,50.0920371 C73.6835854,45.7246138 72.1884732,42.5848342 71.7159073,41.3309415 C62.8179366,40.1234893 58.0767951,37.3310036 56.4342585,36.1733571 L55.761761,36.8470804 C56.9297122,38.4947076 59.7327951,43.2323086 60.9633512,52.1105149 M69.7475561,60.9685298 L69.7475561,60.9685298 C69.3584634,60.9685298 68.9936049,60.8157474 68.7196244,60.5391237 C63.296561,55.1304916 59.8485805,54.1828368 59.814922,54.1734141 C59.2508049,54.0401501 58.8085317,53.5474773 58.7324634,52.953847 C57.3645805,42.3438822 53.6628146,37.9004041 53.5059659,37.7159884 C53.2912244,37.4891704 53.151878,37.1398573 53.151878,36.7730449 C53.151878,36.3900793 53.3006488,36.0279782 53.5705902,35.7540468 L55.3309317,33.9920011 C55.844561,33.4757715 56.7371854,33.4380807 57.2979366,33.9125812 C57.3544829,33.9623869 61.8781902,37.7530061 72.5560244,39.0984337 C73.1564927,39.1765075 73.6472341,39.6220668 73.7825415,40.2062744 C73.7832146,40.2069475 74.7411366,43.6563302 80.1729512,49.0703468 C80.7350488,49.6323438 80.7377415,50.5490383 80.1796829,51.1144005 L70.7727951,60.5418159 C70.5008341,60.8164204 70.1366488,60.9685298 69.7475561,60.9685298" id="Fill-3" fill="#7AB1D6"></path>
                        <path d="M66.8608654,44.9438754 C66.2280849,44.9438754 65.6363678,45.1915579 65.195441,45.6404825 C64.3458995,46.5087174 64.363402,48.0762515 65.2338117,48.9290062 C65.6693532,49.3557201 66.2469337,49.5912877 66.8581727,49.5912877 L66.8581727,50.7522995 L66.8850995,49.5906146 C67.5071093,49.5838841 68.0880556,49.3355286 68.5229239,48.8906423 C68.9550995,48.4491214 69.1893629,47.8642407 69.1826312,47.23965 C69.1752263,46.6184246 68.9274995,46.0362361 68.4845532,45.6021186 C68.0510312,45.17877 67.4734507,44.9438754 66.8608654,44.9438754 M66.8581727,51.9139843 C65.6356946,51.9139843 64.48188,51.4435221 63.6081044,50.5880752 C61.8073727,48.8246834 61.7743873,45.8141295 63.5360751,44.015066 C64.4179288,43.1158709 65.5979971,42.6211789 66.8608654,42.6211789 C68.0826702,42.6211789 69.2364849,43.0902949 70.1089141,43.9410305 C70.9968263,44.8106115 71.49228,45.9722963 71.5057434,47.2147471 C71.5192068,48.4612363 71.0493337,49.6330168 70.1829629,50.5160588 C69.3165922,51.402466 68.1540263,51.8991771 66.9113532,51.9133112 C66.906641,51.9133112 66.8622117,51.9139843 66.8581727,51.9139843" id="Fill-5" fill="#7AB1D6"></path>
                        <path d="M82.9281717,53.4243764 C82.8460449,53.4243764 82.6871766,53.4445679 82.5518693,53.579851 L73.2001815,62.9291926 C72.9921717,63.1371652 72.9921717,63.4763825 73.2001815,63.684355 L75.5959961,66.079741 C75.7326498,66.2150241 75.8908449,66.2358887 75.9736449,66.2358887 C76.0564449,66.2358887 76.2159863,66.2150241 76.3519668,66.079068 L85.7016351,56.7310725 C85.9096449,56.5224269 85.910318,56.1845557 85.7016351,55.9765831 L83.3058205,53.5805241 C83.1691668,53.4445679 83.0109717,53.4243764 82.9281717,53.4243764 M75.9736449,68.5585852 C75.2109424,68.5585852 74.4940156,68.261097 73.9534595,67.7219837 L71.5576449,65.3265978 C70.4442205,64.2133726 70.4442205,62.4008481 71.5569717,61.287623 L80.9086595,51.9382814 C81.4478693,51.398495 82.1654693,51.1016799 82.9281717,51.1016799 C83.6922205,51.1016799 84.4091473,51.3991681 84.9483571,51.9389544 L87.3441717,54.3343404 C88.4575961,55.4468925 88.4582693,57.259417 87.3441717,58.3733152 L77.9945034,67.7219837 C77.4546205,68.261097 76.7376937,68.5585852 75.9736449,68.5585852" id="Fill-7" fill="#7AB1D6"></path>
                        <g id="Group-11" transform="translate(0.000000, 0.170282)" fill="#7AB1D6">
                            <path d="M135.32832,106.177654 L125.977305,115.526323 C125.841998,115.662279 125.682457,115.682471 125.599657,115.682471 C125.516857,115.682471 125.357315,115.662279 125.220661,115.52565 L80.5328956,70.8445333 C80.3242127,70.6358877 80.3235395,70.2966703 80.5322224,70.0886978 L89.8818907,60.7400292 C90.0185444,60.6040731 90.1774127,60.5838816 90.2595395,60.5838816 C90.3416663,60.5838816 90.5005346,60.6040731 90.6365151,60.7400292 L134.572349,104.669349 L135.326974,105.422492 C135.535657,105.631138 135.53633,105.969682 135.32832,106.177654 L135.32832,106.177654 Z M104.676164,121.833477 L12.6813249,121.833477 L12.6813249,2.82539782 L84.4998907,2.82539782 L84.4998907,24.027155 C84.4998907,24.668572 85.0202517,25.1881668 85.6617834,25.1881668 L104.676164,25.1881668 L104.676164,71.4920076 L92.2790517,59.0971135 C91.7391688,58.5580002 91.0229151,58.261185 90.2595395,58.261185 C89.4968371,58.261185 88.7799102,58.5580002 88.2400273,59.0977865 L78.8890127,68.4464551 C77.7762615,69.5583342 77.7755883,71.3708586 78.8883395,72.4861029 L104.676164,98.2699865 L104.676164,121.833477 Z M94.3180859,130.941194 L2.32324683,130.941194 L2.32324683,11.9344605 L10.3575395,11.9344605 L10.3575395,122.994489 C10.3575395,123.635906 10.8779005,124.156174 11.5194322,124.156174 L94.3180859,124.156174 L94.3180859,130.941194 Z M86.8230029,4.10352032 L103.591013,22.8654702 L86.8230029,22.8654702 L86.8230029,4.10352032 Z M136.96951,103.779576 L106.999276,73.8153772 L106.999276,23.6367859 C106.999276,23.3507395 106.894935,23.076135 106.704427,22.862778 L87.0673639,0.89037823 C86.8465639,0.644041823 86.53152,0.502701262 86.2009932,0.502701262 L11.5194322,0.502701262 C10.8779005,0.502701262 10.3575395,1.02296914 10.3575395,1.66438606 L10.3575395,9.61109085 L1.16135415,9.61109085 C0.52049561,9.61109085 0.000134634147,10.1313587 0.000134634147,10.7727756 L0.000134634147,132.102879 C0.000134634147,132.744969 0.52049561,133.26389 1.16135415,133.26389 L95.4799785,133.26389 C96.1215102,133.26389 96.641198,132.744969 96.641198,132.102879 L96.641198,124.156174 L105.837383,124.156174 C106.479588,124.156174 106.999276,123.635906 106.999276,122.994489 L106.999276,100.592683 L122.824174,116.414749 L123.578798,117.167893 C124.119354,117.708352 124.836281,118.005167 125.599657,118.005167 C126.364379,118.005167 127.081305,117.708352 127.620515,117.167893 L136.970857,107.819897 C138.084281,106.705999 138.083608,104.894147 136.96951,103.779576 L136.96951,103.779576 Z" id="Fill-9"></path>
                        </g>
                    </g>
                </g>
            </g>
        </g>
    </g>
</svg>