<?xml version="1.0" encoding="UTF-8" standalone="no"?>
<svg width="108px" height="135px" viewBox="0 0 108 135" version="1.1" xmlns="http://www.w3.org/2000/svg" xmlns:xlink="http://www.w3.org/1999/xlink">
    <!-- Generator: Sketch 3.6.1 (26313) - http://www.bohemiancoding.com/sketch -->
    <title>Icon</title>
    <desc>Created with Sketch.</desc>
    <defs>
        <path id="path-1" d="M107.682657,134.295739 L0,134.295739 L0,0.669569925 L107.682657,0.669569925 L107.682657,134.295739 L107.682657,134.295739 Z"></path>
    </defs>
    <g id="Desktop" stroke="none" stroke-width="1" fill="none" fill-rule="evenodd">
        <g id="What-is-Immediate-Burial" transform="translate(-471.000000, -1236.000000)">
            <g id="Steps" transform="translate(128.000000, 578.000000)">
                <g id="3" transform="translate(0.000000, 600.000000)">
                    <g id="Icon" transform="translate(343.000000, 58.000000)">
                        <path d="M90.4331547,112.353656 C85.3707396,114.695992 79.3743623,112.474999 77.0404755,107.392894 C74.7072679,102.311471 76.9202491,96.2920221 81.9840226,93.9503679 C87.0464377,91.6087138 93.0428151,93.830388 95.3767019,98.9118115 C97.7112679,103.992553 95.4976075,110.01132 90.4331547,112.353656 L90.4331547,112.353656 Z M86.7516453,1.85553083 L11.5931547,1.85553083 L11.5931547,10.5649845 L1.1694566,10.5649845 L1.1694566,133.134729 L96.0899094,133.134729 L96.0899094,124.425957 L106.514287,124.425957 L106.514287,24.0525033 L86.7516453,1.85553083 Z" id="Fill-1" fill="#EEF7FC"></path>
                        <path d="M88.0862943,42.9626386 L27.4256151,42.9626386 C26.7803321,42.9626386 26.2573132,42.4370446 26.2573132,41.7894256 C26.2573132,41.1418065 26.7803321,40.6162125 27.4256151,40.6162125 L88.0862943,40.6162125 C88.7315774,40.6162125 89.2552755,41.1418065 89.2552755,41.7894256 C89.2552755,42.4370446 88.7315774,42.9626386 88.0862943,42.9626386" id="Fill-3" fill="#7AB1D6"></path>
                        <path d="M88.0862943,57.0607599 L27.4256151,57.0607599 C26.7803321,57.0607599 26.2573132,56.5351659 26.2573132,55.8875469 C26.2573132,55.2399278 26.7803321,54.7143338 27.4256151,54.7143338 L88.0862943,54.7143338 C88.7315774,54.7143338 89.2552755,55.2399278 89.2552755,55.8875469 C89.2552755,56.5351659 88.7315774,57.0607599 88.0862943,57.0607599" id="Fill-5" fill="#7AB1D6"></path>
                        <path d="M88.0862943,71.158813 L27.4256151,71.158813 C26.7803321,71.158813 26.2573132,70.633219 26.2573132,69.9856 C26.2573132,69.3372992 26.7803321,68.812387 27.4256151,68.812387 L88.0862943,68.812387 C88.7315774,68.812387 89.2552755,69.3372992 89.2552755,69.9856 C89.2552755,70.633219 88.7315774,71.158813 88.0862943,71.158813" id="Fill-7" fill="#7AB1D6"></path>
                        <path d="M88.0862943,85.2565935 L27.4256151,85.2565935 C26.7803321,85.2565935 26.2573132,84.7309995 26.2573132,84.0833805 C26.2573132,83.4357614 26.7803321,82.9101674 27.4256151,82.9101674 L88.0862943,82.9101674 C88.7315774,82.9101674 89.2552755,83.4357614 89.2552755,84.0833805 C89.2552755,84.7309995 88.7315774,85.2565935 88.0862943,85.2565935" id="Fill-9" fill="#7AB1D6"></path>
                        <path d="M56.6135321,29.2253434 L27.425683,29.2253434 C26.7804,29.2253434 26.2573811,28.6997494 26.2573811,28.0521303 C26.2573811,27.4038296 26.7804,26.8789173 27.425683,26.8789173 L56.6135321,26.8789173 C57.2588151,26.8789173 57.7825132,27.4038296 57.7825132,28.0521303 C57.7825132,28.6997494 57.2588151,29.2253434 56.6135321,29.2253434" id="Fill-11" fill="#7AB1D6"></path>
                        <path d="M94.5829358,106.25363 C93.7569736,108.499164 92.1091245,110.286592 89.9443698,111.288016 C88.7611245,111.835425 87.5058792,112.11356 86.2153132,112.11356 C82.7402943,112.11356 79.5566717,110.067765 78.1024075,106.901249 C77.1045962,104.728658 77.0095019,102.295655 77.8347849,100.050121 C78.6607472,97.8052692 80.3072377,96.0171589 82.4726717,95.016417 C83.655917,94.4690085 84.910483,94.1915549 86.2017283,94.1915549 C89.6760679,94.1915549 92.8617283,96.2373494 94.314634,99.4025023 C95.3138038,101.575775 95.4082189,104.008778 94.5829358,106.25363 M96.438634,98.4208481 C94.6033132,94.4260612 90.5855774,91.8444471 86.2017283,91.8444471 C84.5708604,91.8444471 82.9868604,92.1948431 81.4938792,92.8854095 C79.5274642,93.794803 77.9074642,95.2243368 76.7615774,97.0076752 L27.4259547,97.0076752 C26.7806717,97.0076752 26.2569736,97.5332692 26.2569736,98.1808882 C26.2569736,98.829189 26.7806717,99.354783 27.4259547,99.354783 L75.6055019,99.354783 C74.6083698,102.155224 74.7367472,105.179264 75.9790868,107.883585 C77.8137283,111.878372 81.8314642,114.459304 86.2153132,114.459304 C87.8461811,114.459304 89.4301811,114.108908 90.922483,113.419705 C93.655766,112.155144 95.7342566,109.899384 96.7762189,107.06554 C97.8188604,104.233059 97.698634,101.162663 96.438634,98.4208481" id="Fill-13" fill="#7AB1D6"></path>
                        <path d="M84.8221132,109.111607 C84.5089811,109.111607 84.2073962,108.985492 83.9873208,108.759166 L79.6095849,104.27287 C79.1572075,103.810675 79.1653585,103.067617 79.626566,102.614284 C80.0877736,102.16095 80.8274717,102.167767 81.2798491,102.631326 L84.7039245,106.141422 L91.0378868,97.6617023 C91.4257358,97.143607 92.1586415,97.0386246 92.6741887,97.4258326 C93.1904151,97.8150857 93.2963774,98.5506446 92.9085283,99.0687398 L85.7581132,108.642594 C85.5529811,108.91664 85.2391698,109.086384 84.8988679,109.109562 C84.8730566,109.110925 84.8479245,109.111607 84.8221132,109.111607" id="Fill-15" fill="#7AB1D6"></path>
                        <g id="Group-19" transform="translate(0.000000, 0.012271)">
                            <mask id="mask-2" fill="white">
                                <use xlink:href="#path-1"></use>
                            </mask>
                            <g id="Clip-18"></g>
                            <path d="M105.344694,123.239996 L12.7615245,123.239996 L12.7615245,3.01667769 L85.0393358,3.01667769 L85.0393358,24.4344622 C85.0393358,25.0820812 85.563034,25.6076752 86.208317,25.6076752 L105.344694,25.6076752 L105.344694,123.239996 Z M94.9209962,131.948768 L2.33850566,131.948768 L2.33850566,11.7261313 L10.4242415,11.7261313 L10.4242415,124.413891 C10.4242415,125.06151 10.9472604,125.586422 11.5932226,125.586422 L94.9209962,125.586422 L94.9209962,131.948768 Z M87.3779774,4.30714386 L104.253147,23.2612491 L87.3779774,23.2612491 L87.3779774,4.30714386 Z M107.385826,23.2585223 L87.6231849,1.06154987 C87.4017509,0.812046115 87.0838642,0.669569925 86.7517132,0.669569925 L11.5932226,0.669569925 C10.9472604,0.669569925 10.4242415,1.19516391 10.4242415,1.84278296 L10.4242415,9.37970526 L1.16952453,9.37970526 C0.523562264,9.37970526 -0.000135849058,9.90529925 -0.000135849058,10.5529183 L-0.000135849058,133.122663 C-0.000135849058,133.770282 0.523562264,134.295876 1.16952453,134.295876 L96.0899774,134.295876 C96.7352604,134.295876 97.2589585,133.770282 97.2589585,133.122663 L97.2589585,125.586422 L106.514355,125.586422 C107.159638,125.586422 107.682657,125.06151 107.682657,124.413891 L107.682657,24.0397554 C107.682657,23.7520762 107.577374,23.4732591 107.385826,23.2585223 L107.385826,23.2585223 Z" id="Fill-17" fill="#7AB1D6" mask="url(#mask-2)"></path>
                        </g>
                    </g>
                </g>
            </g>
        </g>
    </g>
</svg>