<?xml version="1.0" encoding="UTF-8" standalone="no"?>
<svg width="264px" height="85px" viewBox="0 0 264 85" version="1.1" xmlns="http://www.w3.org/2000/svg" xmlns:xlink="http://www.w3.org/1999/xlink">
    <!-- Generator: Sketch 3.6.1 (26313) - http://www.bohemiancoding.com/sketch -->
    <title>Icon</title>
    <desc>Created with Sketch.</desc>
    <defs>
        <path id="path-1" d="M217.302996,84.4175216 L0,84.4175216 L0,0.573669435 L217.302996,0.573669435 L217.302996,84.4175216 L217.302996,84.4175216 Z"></path>
        <path id="path-3" d="M41.3026123,2.94974538 L41.3026123,0.485000228 L0.422136993,0.485000228 L0.422136993,2.94974538 L41.3026123,2.94974538 L41.3026123,2.94974538 Z"></path>
    </defs>
    <g id="Desktop" stroke="none" stroke-width="1" fill="none" fill-rule="evenodd">
        <g id="What-is-Immediate-Burial" transform="translate(-414.000000, -1562.000000)">
            <g id="Steps" transform="translate(128.000000, 578.000000)">
                <g id="4" transform="translate(0.000000, 900.000000)">
                    <g id="Icon" transform="translate(286.000000, 84.000000)">
                        <path d="M192.292604,31.048025 L193.162165,23.2397124 L100.481062,19.9086093 L102.343522,31.048025 L96.262791,31.048025 L96.262791,8.76919355 L126.647234,8.76919355 L189.206684,8.76919355 C190.815651,8.76919355 193.685886,10.527173 194.40112,11.9690489 L202.211677,31.048025 L192.292604,31.048025 Z M165.657254,73.8723559 C160.454761,73.8723559 156.248266,69.6896834 156.248266,64.5155671 C156.248266,62.6731701 156.78934,60.9620208 157.710963,59.5152154 C163.25186,59.4659205 168.547941,59.4184741 173.519873,59.3734925 C174.497897,60.8480263 175.06996,62.6146324 175.06996,64.5155671 C175.06996,69.6896834 170.863465,73.8723559 165.657254,73.8723559 L165.657254,73.8723559 Z M154.238296,43.5837189 L149.995234,48.1773877 C149.796282,48.393669 149.526675,48.5119768 149.235994,48.5119768 C148.947174,48.5119768 148.678186,48.393669 148.478615,48.1773877 L144.233693,43.5824865 C143.615145,42.949047 143.273023,42.1153469 143.273023,41.2305034 C143.273023,39.3720856 144.796459,37.8593482 146.665737,37.8593482 C147.659876,37.8593482 148.595754,38.2906787 149.235994,39.0325669 C149.875615,38.2906787 150.809014,37.8593482 151.808731,37.8593482 C153.677389,37.8593482 155.200825,39.3720856 155.200825,41.2317358 C155.200825,42.1153469 154.859323,42.9502794 154.238296,43.5837189 L154.238296,43.5837189 Z M84.9547754,31.7541745 L50.3502023,31.7541745 L66.9846683,13.0122523 C68.0104159,11.4033899 73.625687,9.47534304 75.5457875,9.47534304 L84.9547754,9.47534304 L84.9547754,31.7541745 Z M38.834558,73.8723559 C33.629586,73.8723559 29.4237107,69.6896834 29.4237107,64.5155671 C29.4237107,63.0293258 29.7800883,61.6299667 30.3986358,60.3828057 C35.5348115,60.3704819 41.1916084,60.3501478 47.2407305,60.3224194 C47.8778716,61.5843689 48.2447856,63.0052945 48.2447856,64.5155671 C48.2447856,69.6896834 44.0389103,73.8723559 38.834558,73.8723559 L38.834558,73.8723559 Z M214.37066,32.1152597 L208.823566,22.8693844 C208.823566,22.8693844 199.048283,5.48368826 196.047274,3.35722938 C193.045645,1.23138668 73.2953405,1.05454121 64.5569622,4.77507403 C61.4685631,6.09001557 42.5501817,27.4494971 40.3617135,29.1310695 C38.1726254,30.8114095 13.9023824,31.5206399 11.0464035,33.429585 C7.84210418,36.1278648 0.263347538,59.1578273 1.34425624,60.1363312 C1.54196832,60.3156414 8.78665972,60.3901999 20.477084,60.393897 C20.177107,61.7205461 20.0128634,63.099571 20.0128634,64.5155671 C20.0128634,74.8440817 28.4444471,83.2279123 38.834558,83.2279123 C49.2228096,83.2279123 57.6543933,74.8440817 57.6543933,64.5155671 C57.6543933,63.0558218 57.4802331,61.6367448 57.1616626,60.2725083 C84.8872186,60.1233912 118.555913,59.8559664 147.498731,59.6045624 C147.070458,61.1715241 146.838038,62.8167415 146.838038,64.5155671 C146.838038,74.8440817 155.269622,83.2279123 165.657254,83.2279123 C176.047984,83.2279123 184.480188,74.8440817 184.480188,64.5155671 C184.480188,62.6972014 184.213679,60.9410704 183.726527,59.2779837 C201.44438,59.1128457 213.014566,58.9970027 213.014566,58.9970027 C213.018904,58.9988513 218.953986,37.5555684 214.37066,32.1152597 L214.37066,32.1152597 Z" id="Fill-1" fill="#EEF7FC"></path>
                        <g id="Group-5" transform="translate(0.000000, 0.042517)">
                            <mask id="mask-2" fill="white">
                                <use xlink:href="#path-1"></use>
                            </mask>
                            <g id="Clip-4"></g>
                            <path d="M212.068275,57.7319723 C199.79649,57.8527448 71.165876,59.1190076 21.3033841,59.1190076 C8.97891768,59.1190076 4.26171807,59.0407519 2.52941313,58.9686581 C3.16593448,54.6923253 9.19460359,36.747132 11.7921313,34.3766633 C13.1606212,33.584864 20.9184963,32.8602289 26.6044232,32.3290763 C35.7580588,31.4750421 39.8976169,31.001811 41.119837,30.0645917 C41.958409,29.4194447 44.4480938,26.7716922 48.7754473,22.1465979 C54.217178,16.3316479 63.3255692,6.59775307 65.0448586,5.86572376 C68.9544756,4.20140459 100.836324,3.03804488 142.577126,3.03804488 C174.248246,3.03804488 193.312278,3.72509259 195.406538,4.37701768 C197.516294,6.02839694 204.061865,16.884367 207.758895,23.4584585 L213.30599,32.7037176 C213.340078,32.7604067 213.377885,32.8146311 213.42065,32.863926 C216.514628,36.5370125 213.921438,50.8485552 212.068275,57.7319723 M183.240118,64.4730503 C183.240118,74.1120524 175.352707,81.9530229 165.657377,81.9530229 C155.964527,81.9530229 148.077736,74.1120524 148.077736,64.4730503 C148.077736,63.2074036 148.224626,61.9762634 148.483697,60.7857915 C150.925658,60.7648412 153.33539,60.7438908 155.701118,60.7223243 C155.254871,61.8893811 155.008815,63.1531792 155.008815,64.4730503 C155.008815,70.3120315 159.786134,75.0622116 165.657377,75.0622116 C171.5311,75.0622116 176.309658,70.3120315 176.309658,64.4730503 C176.309658,63.0847825 176.035093,61.7593658 175.544221,60.5436303 C178.042583,60.5202152 180.452935,60.4980325 182.762882,60.476466 C183.066577,61.763063 183.240118,63.0977225 183.240118,64.4730503 M173.83051,64.4730503 C173.83051,68.9527246 170.164469,72.5974665 165.657377,72.5974665 C161.152765,72.5974665 157.487964,68.9527246 157.487964,64.4730503 C157.487964,63.1106624 157.830086,61.8271463 158.42942,60.6976769 C163.448456,60.6533114 168.263582,60.6107946 172.813439,60.5688939 C173.456778,61.7291727 173.83051,63.0576703 173.83051,64.4730503 M30.6634089,64.4730503 C30.6634089,63.4514134 30.8543033,62.4729096 31.2032435,61.5701966 C35.8882141,61.5584891 40.997739,61.5400035 46.4363708,61.5165884 C46.7989462,62.4334736 47.0053353,63.4286145 47.0053353,64.4730503 C47.0053353,68.9527246 43.3399144,72.5974665 38.834682,72.5974665 C34.3294496,72.5974665 30.6634089,68.9527246 30.6634089,64.4730503 M38.834682,81.9530229 C29.1399722,81.9530229 21.2525616,74.1120524 21.2525616,64.4730503 C21.2525616,63.4890007 21.3393318,62.5246692 21.4967577,61.5837527 C23.7137362,61.5837527 26.0856614,61.581288 28.59332,61.5757423 C28.3286709,62.497557 28.1842605,63.469899 28.1842605,64.4730503 C28.1842605,70.3120315 32.9621992,75.0622116 38.834682,75.0622116 C44.7071648,75.0622116 49.4844837,70.3120315 49.4844837,64.4730503 C49.4844837,63.4421706 49.3258182,62.4476459 49.0481536,61.5030323 C51.3630584,61.4925572 53.7318847,61.4808496 56.1490544,61.4679097 C56.3201156,62.4451812 56.4143233,63.4477163 56.4143233,64.4730503 C56.4143233,74.1120524 48.5281522,81.9530229 38.834682,81.9530229 M215.387855,31.3635124 L209.905838,22.2260859 C208.891246,20.4206601 199.904333,4.53476137 196.766351,2.31094506 C196.287876,1.97265879 195.487731,1.40515121 179.182991,0.972588438 C169.474646,0.716254942 156.474612,0.573299723 142.577126,0.573299723 C109.63916,0.573299723 69.3145719,1.36571529 64.0693137,3.59939059 C62.0252559,4.47006181 55.6891724,11.1396622 46.9607107,20.4674902 C43.5475431,24.1153131 40.3227908,27.5610268 39.6249106,28.0989574 C38.5911057,28.7342455 31.5292515,29.3935648 26.3732426,29.8754225 C17.4811571,30.7054254 11.9662915,31.2877215 10.354845,32.3641989 C10.317038,32.3894626 10.2804706,32.4171909 10.2451427,32.4461517 C6.84065219,35.3132665 0.0639000499,56.0405409 0.000681765808,59.5552675 C-0.00675567938,59.9724256 0.0372492046,60.5769043 0.508907187,61.0051538 C0.992960911,61.4426461 1.14852747,61.5732776 18.9847606,61.5837527 C18.8459283,62.527134 18.7734132,63.4926979 18.7734132,64.4730503 C18.7734132,75.4707431 27.7727219,84.4177681 38.834682,84.4177681 C49.8954026,84.4177681 58.8934717,75.4707431 58.8934717,64.4730503 C58.8934717,63.4464839 58.8116598,62.4390193 58.6598119,61.4543536 C85.5641501,61.3046204 117.856298,61.0495192 145.939471,60.807358 C145.716347,61.9965976 145.598588,63.2215759 145.598588,64.4730503 C145.598588,75.4707431 154.596657,84.4177681 165.657377,84.4177681 C176.719957,84.4177681 185.719266,75.4707431 185.719266,64.4730503 C185.719266,63.0964901 185.571757,61.7525878 185.302769,60.4536671 C201.837449,60.2990043 212.643437,60.1899394 213.027086,60.1868584 C213.402057,60.1831613 213.755955,60.010013 213.988375,59.7173245 C214.608163,58.9347679 220.149679,37.2758198 215.387855,31.3635124" id="Fill-3" fill="#7AB1D6" mask="url(#mask-2)"></path>
                        </g>
                        <path d="M250.831867,69.9664126 L212.431098,69.9664126 C211.746234,69.9664126 211.191524,69.4149259 211.191524,68.7340401 C211.191524,68.0537704 211.746234,67.5016675 212.431098,67.5016675 L250.831867,67.5016675 C251.516112,67.5016675 252.071442,68.0537704 252.071442,68.7340401 C252.071442,69.4149259 251.516112,69.9664126 250.831867,69.9664126" id="Fill-6" fill="#7AB1D6"></path>
                        <g id="Group-10" transform="translate(222.503568, 58.580214)">
                            <mask id="mask-4" fill="white">
                                <use xlink:href="#path-3"></use>
                            </mask>
                            <g id="Clip-9"></g>
                            <path d="M40.0631,2.94974538 L1.66171119,2.94974538 C0.977466233,2.94974538 0.422136993,2.39825865 0.422136993,1.71737281 C0.422136993,1.03710314 0.977466233,0.485000228 1.66171119,0.485000228 L40.0631,0.485000228 C40.747345,0.485000228 41.3026742,1.03710314 41.3026742,1.71737281 C41.3026742,2.39825865 40.747345,2.94974538 40.0631,2.94974538" id="Fill-8" fill="#7AB1D6" mask="url(#mask-4)"></path>
                        </g>
                        <path d="M134.969549,43.2615767 L12.4240043,43.2615767 C11.7397593,43.2615767 11.1844301,42.7094738 11.1844301,42.0292041 C11.1844301,41.3489344 11.7397593,40.7968315 12.4240043,40.7968315 L134.969549,40.7968315 C135.653794,40.7968315 136.209123,41.3489344 136.209123,42.0292041 C136.209123,42.7094738 135.653794,43.2615767 134.969549,43.2615767" id="Fill-11" fill="#7AB1D6"></path>
                        <path d="M208.003959,43.2615767 L163.058858,43.2615767 C162.374613,43.2615767 161.819284,42.7094738 161.819284,42.0292041 C161.819284,41.3489344 162.374613,40.7968315 163.058858,40.7968315 L208.003959,40.7968315 C208.688204,40.7968315 209.243533,41.3489344 209.243533,42.0292041 C209.243533,42.7094738 208.688204,43.2615767 208.003959,43.2615767" id="Fill-13" fill="#7AB1D6"></path>
                        <path d="M53.0970988,30.5220484 L83.7152012,30.5220484 L83.7152012,10.7079621 L75.5457875,10.7079621 C73.8023264,10.7079621 68.7157336,12.599654 68.0321085,13.6718181 C67.9967806,13.7272749 67.957734,13.7790346 67.9143489,13.8277133 L53.0970988,30.5220484 Z M84.9547754,32.9867936 L50.3502023,32.9867936 C49.8630497,32.9867936 49.4205217,32.7027317 49.2203305,32.2609261 C49.0201392,31.8203529 49.0988522,31.3033726 49.4205217,30.9398227 L66.0016859,12.2576706 C67.4718209,10.1712638 73.3951262,8.24321694 75.5457875,8.24321694 L84.9547754,8.24321694 C85.6396402,8.24321694 86.1943496,8.79531985 86.1943496,9.47558951 L86.1943496,31.754421 C86.1943496,32.4353068 85.6396402,32.9867936 84.9547754,32.9867936 L84.9547754,32.9867936 Z" id="Fill-15" fill="#7AB1D6"></path>
                        <path d="M146.665613,39.091536 C145.478721,39.091536 144.512473,40.0515542 144.512473,41.2309348 C144.512473,41.7904319 144.729398,42.3209683 145.123583,42.7245703 L149.23649,47.1765163 L153.324606,42.749834 C153.744822,42.3215845 153.961127,41.7928967 153.961127,41.2321671 C153.961127,40.0521704 152.995499,39.091536 151.808607,39.091536 C151.178903,39.091536 150.583907,39.3626579 150.176707,39.8346566 C149.941188,40.1076272 149.597826,40.2647547 149.23587,40.2647547 C148.874535,40.2647547 148.531172,40.1076272 148.295653,39.8346566 C147.887833,39.3626579 147.293458,39.091536 146.665613,39.091536 M149.23587,49.7441645 C148.594391,49.7441645 148.001255,49.4841339 147.564305,49.0102867 L143.321242,44.4166179 C142.498785,43.5755236 142.033325,42.4349628 142.033325,41.2309348 C142.033325,38.6928634 144.111471,36.6267908 146.665613,36.6267908 C147.590955,36.6267908 148.483449,36.9009937 149.23587,37.401337 C149.988912,36.9009937 150.882025,36.6267908 151.808607,36.6267908 C154.362749,36.6267908 156.440276,38.6928634 156.440276,41.2321671 C156.440276,42.4392761 155.973576,43.5798369 155.124468,44.4443463 L150.908676,49.011519 C150.474205,49.4829015 149.879829,49.7441645 149.23587,49.7441645" id="Fill-17" fill="#7AB1D6"></path>
                        <path d="M193.639897,30.15018 L194.394798,23.3745955 C194.431985,23.0338445 194.325382,22.6930935 194.100399,22.4342953 C193.875416,22.1748808 193.551268,22.0208343 193.207286,22.0072782 L100.526183,18.6774075 C100.159269,18.6613866 99.7960733,18.8178979 99.5500179,19.0951818 C99.3045822,19.3730818 99.197359,19.7458745 99.2587179,20.1106568 L100.937101,30.15018 L97.8623376,30.15018 L97.8623376,15.1750046 C98.4641509,15.2871505 99.0994326,15.3500015 99.7595059,15.3500015 C102.153743,15.3500015 104.245525,14.554505 105.416923,13.3634169 C106.58894,14.554505 108.681341,15.3500015 111.074339,15.3500015 C113.467957,15.3500015 115.560358,14.554505 116.732376,13.3634169 C117.904393,14.554505 119.996174,15.3500015 122.389792,15.3500015 C124.78279,15.3500015 126.875191,14.554505 128.047209,13.3634169 C129.219226,14.554505 131.311628,15.3500015 133.705245,15.3500015 C136.098243,15.3500015 138.190025,14.554505 139.362042,13.3634169 C140.53344,14.554505 142.625841,15.3500015 145.020079,15.3500015 C147.413077,15.3500015 149.505478,14.554505 150.677495,13.3634169 C151.848273,14.554505 153.941294,15.3500015 156.334912,15.3500015 C158.72791,15.3500015 160.820311,14.554505 161.991709,13.3634169 C163.163726,14.554505 165.256747,15.3500015 167.649125,15.3500015 C170.043363,15.3500015 172.135144,14.554505 173.306542,13.3634169 C174.478559,14.554505 176.57158,15.3500015 178.964578,15.3500015 C181.358196,15.3500015 183.451217,14.554505 184.621995,13.3634169 C185.794012,14.554505 187.886414,15.3500015 190.279412,15.3500015 C191.571048,15.3500015 192.772195,15.1146183 193.791125,14.7134811 L200.110475,30.15018 L193.639897,30.15018 Z M101.952313,21.1945284 L191.783635,24.4233446 L191.145254,30.15018 L103.449718,30.15018 L101.952313,21.1945284 Z M203.466002,30.8557133 L195.739736,11.9837758 C195.726101,11.9511179 195.712465,11.9203086 195.696971,11.8894993 C194.754894,9.9928779 191.373956,7.90708731 189.23755,7.90708731 L96.4430251,7.90708731 C95.6589944,7.90708731 95.0230929,8.54052682 95.0230929,9.3187701 L95.0230929,31.5618628 C95.0230929,32.3419546 95.6589944,32.9735455 96.4430251,32.9735455 L192.049524,32.9735455 C192.05882,32.9747779 192.068117,32.978475 192.077414,32.9797074 C192.123898,32.9846369 192.169762,32.9871016 192.215627,32.9871016 C192.26397,32.9871016 192.310454,32.9790912 192.358178,32.9735455 L202.222709,32.9735455 C202.227667,32.9747779 202.233245,32.9735455 202.235725,32.9735455 C203.020995,32.9735455 203.655657,32.3419546 203.655657,31.5618628 C203.655657,31.3049131 203.58748,31.0633681 203.466002,30.8557133 L203.466002,30.8557133 Z" id="Fill-19" fill="#7AB1D6"></path>
                    </g>
                </g>
            </g>
        </g>
    </g>
</svg>