<?xml version="1.0" encoding="UTF-8" standalone="no"?>
<svg width="156px" height="133px" viewBox="0 0 156 133" version="1.1" xmlns="http://www.w3.org/2000/svg" xmlns:xlink="http://www.w3.org/1999/xlink">
    <!-- Generator: Sketch 3.6.1 (26313) - http://www.bohemiancoding.com/sketch -->
    <title>Icon</title>
    <desc>Created with Sketch.</desc>
    <defs>
        <path id="path-1" d="M155.432667,65.8076687 L155.432667,0.0941346083 L0,0.0941346083 L0,65.8076687 L0,131.521203 L155.432667,131.521203 L155.432667,65.8076687 L155.432667,65.8076687 Z"></path>
    </defs>
    <g id="Desktop" stroke="none" stroke-width="1" fill="none" fill-rule="evenodd">
        <g id="What-is-Immediate-Burial" transform="translate(-447.000000, -1836.000000)">
            <g id="Steps" transform="translate(128.000000, 578.000000)">
                <g id="5" transform="translate(0.000000, 1200.000000)">
                    <g id="Icon" transform="translate(319.000000, 58.000000)">
                        <path d="M81.3242667,83.9655336 L78.2622667,87.3036403 C78.1196,87.4611989 77.9256,87.5466545 77.7156,87.5466545 C77.5069333,87.5466545 77.3136,87.4611989 77.1696,87.3036403 L74.1062667,83.9641984 C73.6596,83.5042073 73.4136,82.8980071 73.4136,82.2550878 C73.4136,80.9064927 74.5109333,79.8049175 75.8616,79.8049175 C76.5776,79.8049175 77.2522667,80.1200347 77.7156,80.6588051 C78.1769333,80.1200347 78.8502667,79.8049175 79.5709333,79.8049175 C80.9182667,79.8049175 82.0176,80.9064927 82.0176,82.256423 C82.0176,82.8980071 81.7716,83.5062101 81.3242667,83.9655336 L81.3242667,83.9655336 Z M80.3649333,2.67328935 C78.8802667,1.44486609 76.5529333,1.44486609 75.0649333,2.67328935 L1.0836,63.9929738 L1.0836,131.010806 L154.348933,131.010806 L154.348933,63.9929738 L80.3649333,2.67328935 Z" id="Fill-1" fill="#EEF7FC"></path>
                        <g id="Group-5" transform="translate(0.000000, 0.573487)">
                            <mask id="mask-2" fill="white">
                                <use xlink:href="#path-1"></use>
                            </mask>
                            <g id="Clip-4"></g>
                            <path d="M75.8613333,80.3159816 C75.1093333,80.3159816 74.4953333,80.9295256 74.4953333,81.6819348 C74.4953333,82.0397799 74.6333333,82.3789315 74.882,82.6352981 L77.716,85.7223792 L80.526,82.6586649 C80.798,82.3789315 80.9346667,82.0411151 80.9346667,81.6832701 C80.9346667,80.9295256 80.3226667,80.3159816 79.5706667,80.3159816 C79.174,80.3159816 78.7946667,80.4902308 78.5366667,80.7926632 C78.1246667,81.2706801 77.3066667,81.2706801 76.8946667,80.7926632 C76.6353333,80.4902308 76.2586667,80.3159816 75.8613333,80.3159816 L75.8613333,80.3159816 Z M77.7153333,88.0563834 C77.2046667,88.0563834 76.714,87.840074 76.3686667,87.4588623 L73.3093333,84.1247613 C72.6846667,83.4838448 72.3313333,82.6079256 72.3313333,81.6819348 C72.3313333,79.7331482 73.9153333,78.1482151 75.8613333,78.1482151 C76.5233333,78.1482151 77.1633333,78.3344815 77.7153333,78.6763036 C78.2666667,78.3344815 78.9073333,78.1482151 79.5706667,78.1482151 C81.5166667,78.1482151 83.1006667,79.7338158 83.1006667,81.6832701 C83.1006667,82.6112637 82.7446667,83.4858477 82.0973333,84.1501309 L79.06,87.4622004 C78.7146667,87.8434121 78.2353333,88.0563834 77.7153333,88.0563834 L77.7153333,88.0563834 Z M2.16466667,129.352769 L153.267333,129.352769 L153.267333,63.9292159 L79.6746667,2.93599835 C79.1513333,2.50137686 78.454,2.26236842 77.716,2.26236842 C76.978,2.26236842 76.2806667,2.50137686 75.754,2.93599835 L2.16466667,63.9292159 L2.16466667,129.352769 Z M154.349333,131.521203 L1.08333333,131.521203 C0.485333333,131.521203 0,131.03651 0,130.436986 L0,63.4191532 C0,63.0960245 0.144,62.7902539 0.392666667,62.5832913 L74.3746667,1.26627739 C75.29,0.509194792 76.4766667,0.0939343219 77.716,0.0939343219 C78.9566667,0.0939343219 80.1433333,0.509194792 81.0553333,1.26627739 L155.04,62.5832913 C155.288,62.7902539 155.432667,63.0960245 155.432667,63.4191532 L155.432667,130.436986 C155.432667,131.03651 154.947333,131.521203 154.349333,131.521203 L154.349333,131.521203 Z" id="Fill-3" fill="#7AB1D6" mask="url(#mask-2)"></path>
                        </g>
                        <path d="M77.6712667,15.7207466 C70.1859333,15.7207466 64.1012667,21.8174647 64.1012667,29.3115142 C64.1012667,36.8042284 70.1859333,42.9002788 77.6712667,42.9002788 C85.1526,42.9002788 91.2406,36.8042284 91.2406,29.3115142 C91.2406,21.8174647 85.1526,15.7207466 77.6712667,15.7207466 M77.6712667,45.0693805 C68.9939333,45.0693805 61.9352667,37.9992706 61.9352667,29.3115142 C61.9352667,20.6224225 68.9939333,13.5529802 77.6712667,13.5529802 C86.3459333,13.5529802 93.4046,20.6224225 93.4046,29.3115142 C93.4046,37.9992706 86.3459333,45.0693805 77.6712667,45.0693805" id="Fill-6" fill="#7AB1D6"></path>
                        <path d="M67.8216,124.946601 L87.6109333,124.946601 L96.8896,77.4787244 L85.6442667,57.6810814 L69.7856,57.6810814 L58.5436,77.4787244 L67.8216,124.946601 Z M88.2649333,126.540881 L67.1676,126.540881 C66.7862667,126.540881 66.4596,126.271162 66.3849333,125.897294 L56.9236,77.4927445 C56.8889333,77.3051429 56.9202667,77.1122003 57.0149333,76.945295 L68.6336,56.4900449 C68.7749333,56.2416898 69.0376,56.0874692 69.3242667,56.0874692 L86.1082667,56.0874692 C86.3929333,56.0874692 86.6589333,56.2416898 86.7989333,56.4900449 L98.4176,76.945295 C98.5122667,77.1122003 98.5436,77.3051429 98.5062667,77.4927445 L89.0469333,125.897294 C88.9729333,126.271162 88.6462667,126.540881 88.2649333,126.540881 L88.2649333,126.540881 Z" id="Fill-8" fill="#7AB1D6"></path>
                        <path d="M70.6334667,121.277288 L84.7981333,121.277288 L93.3454667,78.1870039 L83.5854667,61.3509291 L71.8468,61.3509291 L62.0874667,78.1870039 L70.6334667,121.277288 Z M85.4501333,122.868897 L69.9808,122.868897 C69.6014667,122.868897 69.2748,122.600513 69.2001333,122.227313 L60.4681333,78.2023592 C60.4294667,78.0120871 60.4621333,77.8151388 60.5594667,77.6475659 L70.7014667,60.1572221 C70.8428,59.9102022 71.1054667,59.7586522 71.3894667,59.7586522 L84.0428,59.7586522 C84.3261333,59.7586522 84.5894667,59.9102022 84.7308,60.1572221 L94.8721333,77.6475659 C94.9688,77.8151388 95.0014667,78.0120871 94.9634667,78.2023592 L86.2308,122.227313 C86.1561333,122.600513 85.8308,122.868897 85.4501333,122.868897 L85.4501333,122.868897 Z" id="Fill-10" fill="#7AB1D6"></path>
                        <path d="M75.8613333,80.6032591 C74.9486667,80.6032591 74.21,81.3436511 74.21,82.2556219 C74.21,82.6895757 74.3746667,83.09816 74.6773333,83.4092715 L77.716,86.7206733 L80.7373333,83.4266297 C81.056,83.0988276 81.2226667,82.6902433 81.2226667,82.2569571 C81.2226667,81.3436511 80.482,80.6032591 79.5706667,80.6032591 C79.09,80.6032591 78.632,80.8122245 78.3186667,81.1774134 C78.1666667,81.3529978 77.948,81.4558115 77.716,81.4558115 L77.7153333,81.4558115 C77.484,81.4558115 77.264,81.3529978 77.1126667,81.1774134 C76.798,80.8122245 76.3413333,80.6032591 75.8613333,80.6032591 M77.7153333,88.3429932 C77.2786667,88.3429932 76.8766667,88.1634031 76.58,87.8396067 L73.5186667,84.5041705 C72.9433333,83.9086523 72.618,83.1048362 72.618,82.2556219 C72.618,80.4663967 74.074,79.0096469 75.8613333,79.0096469 C76.5306667,79.0096469 77.176,79.2172772 77.7153333,79.5924804 C78.2546667,79.2172772 78.9,79.0096469 79.5706667,79.0096469 C81.3593333,79.0096469 82.8133333,80.4663967 82.8133333,82.2569571 C82.8133333,83.1095095 82.4873333,83.9139933 81.8926667,84.5228639 L78.8493333,87.8416096 C78.5553333,88.1634031 78.1533333,88.3429932 77.7153333,88.3429932" id="Fill-12" fill="#7AB1D6"></path>
                        <path d="M70.5110667,27.2796086 C70.4297333,27.2796086 70.3624,27.3463708 70.3624,27.4284882 L70.3624,31.1918696 C70.3624,31.2739871 70.4297333,31.3420844 70.5110667,31.3420844 L74.5597333,31.3420844 C75.1577333,31.3420844 75.6417333,31.8267775 75.6417333,32.4249663 L75.6417333,36.4780954 C75.6417333,36.5608804 75.7090667,36.6289778 75.7897333,36.6289778 L79.5504,36.6289778 C79.6310667,36.6289778 79.6977333,36.5608804 79.6977333,36.4780954 L79.6977333,32.4249663 C79.6977333,31.8267775 80.1824,31.3420844 80.7790667,31.3420844 L84.8290667,31.3420844 C84.9110667,31.3420844 84.9770667,31.2739871 84.9770667,31.1918696 L84.9770667,27.4284882 C84.9770667,27.3463708 84.9110667,27.2796086 84.8290667,27.2796086 L80.7790667,27.2796086 C80.1824,27.2796086 79.6977333,26.7942479 79.6977333,26.1967268 L79.6977333,22.1415948 C79.6977333,22.0594774 79.6310667,21.9927153 79.5504,21.9927153 L75.7897333,21.9927153 C75.7090667,21.9927153 75.6417333,22.0594774 75.6417333,22.1415948 L75.6417333,26.1967268 C75.6417333,26.7942479 75.1577333,27.2796086 74.5597333,27.2796086 L70.5110667,27.2796086 Z M79.5504,38.7960767 L75.7897333,38.7960767 C74.5157333,38.7960767 73.4770667,37.7565902 73.4770667,36.4780954 L73.4770667,33.5091833 L70.5110667,33.5091833 C69.2364,33.5091833 68.1977333,32.4696969 68.1977333,31.1918696 L68.1977333,27.4284882 C68.1977333,26.1519962 69.2364,25.1131774 70.5110667,25.1131774 L73.4770667,25.1131774 L73.4770667,22.1415948 C73.4770667,20.8637676 74.5157333,19.826284 75.7897333,19.826284 L79.5504,19.826284 C80.8250667,19.826284 81.8604,20.8637676 81.8604,22.1415948 L81.8604,25.1131774 L84.8290667,25.1131774 C86.1037333,25.1131774 87.1410667,26.1519962 87.1410667,27.4284882 L87.1410667,31.1918696 C87.1410667,32.4696969 86.1037333,33.5091833 84.8290667,33.5091833 L81.8604,33.5091833 L81.8604,36.4780954 C81.8604,37.7565902 80.8250667,38.7960767 79.5504,38.7960767 L79.5504,38.7960767 Z" id="Fill-14" fill="#7AB1D6"></path>
                    </g>
                </g>
            </g>
        </g>
    </g>
</svg>