<?xml version="1.0" encoding="UTF-8" standalone="no"?>
<svg width="140px" height="139px" viewBox="0 0 140 139" version="1.1" xmlns="http://www.w3.org/2000/svg" xmlns:xlink="http://www.w3.org/1999/xlink">
    <!-- Generator: Sketch 3.6.1 (26313) - http://www.bohemiancoding.com/sketch -->
    <title>Icon</title>
    <desc>Created with Sketch.</desc>
    <defs>
        <path id="path-1" d="M139.705802,0.386811011 L0,0.386811011 L0,138.382002 L139.705802,138.382002 L139.705802,0.386811011 L139.705802,0.386811011 Z"></path>
    </defs>
    <g id="Desktop" stroke="none" stroke-width="1" fill="none" fill-rule="evenodd">
        <g id="What-is-Direct-Cremation" transform="translate(-454.000000, -2133.000000)">
            <g id="Steps" transform="translate(128.000000, 578.000000)">
                <g id="6" transform="translate(0.000000, 1500.000000)">
                    <g id="Icon" transform="translate(326.000000, 55.000000)">
                        <path d="M79.6883302,101.267189 L71.5755943,110.08213 C71.1945566,110.499254 70.680783,110.725278 70.1267264,110.725278 C69.5746509,110.725278 69.0588962,110.499254 68.6778585,110.08213 L60.5624811,101.264553 C59.3777642,100.051403 58.7246509,98.4494647 58.7246509,96.7513182 C58.7246509,93.1856719 61.6362547,90.282942 65.210217,90.282942 C67.1134245,90.282942 68.901066,91.1125758 70.1267264,92.533958 C71.3504057,91.1112579 73.1327642,90.282942 75.0432358,90.282942 C78.6185189,90.282942 81.5294623,93.1856719 81.5294623,96.7546131 C81.5294623,98.4514416 80.8763491,100.05338 79.6883302,101.267189 L79.6883302,101.267189 Z M77.8042736,27.5095115 L77.8042736,1.8646663 L60.7526698,1.8646663 L60.7526698,28.4577586 L1.20842453,77.6321791 L1.20842453,137.448186 L138.497575,137.448186 L138.497575,77.6321791 L77.8042736,27.5095115 Z" id="Fill-1" fill="#EEF7FC"></path>
                        <g id="Group-5" transform="translate(0.000000, 0.272152)">
                            <mask id="mask-2" fill="white">
                                <use xlink:href="#path-1"></use>
                            </mask>
                            <g id="Clip-4"></g>
                            <path d="M137.288821,135.970199 L2.41731132,135.970199 L2.41731132,77.9274602 L59.5439151,30.7483782 L59.5439151,77.0635603 L52.2817453,77.0635603 C49.4883491,77.0635603 47.2146698,79.3330273 47.2146698,82.1210978 L47.2146698,117.734069 C47.2146698,120.523458 49.4883491,122.791607 52.2817453,122.791607 L87.9731604,122.791607 C90.7678774,122.791607 93.0408962,120.523458 93.0408962,117.734069 L93.0408962,82.1210978 C93.0408962,79.3330273 90.7678774,77.0635603 87.9731604,77.0635603 L79.0131604,77.0635603 L79.0131604,29.8014491 L137.288821,77.9274602 L137.288821,135.970199 Z M61.9615566,77.0635603 L76.5961792,77.0635603 L76.5961792,2.79782315 L61.9615566,2.79782315 L61.9615566,77.0635603 Z M60.753066,79.4760222 L77.8046698,79.4760222 L87.9731604,79.4760222 C89.4345755,79.4760222 90.6239151,80.6628137 90.6239151,82.1210978 L90.6239151,117.734069 C90.6239151,119.193012 89.4345755,120.380463 87.9731604,120.380463 L52.2817453,120.380463 C50.8209906,120.380463 49.6316509,119.193012 49.6316509,117.734069 L49.6316509,82.1210978 C49.6316509,80.6628137 50.8209906,79.4760222 52.2817453,79.4760222 L60.753066,79.4760222 Z M139.267972,76.4309563 L79.0131604,26.670718 L79.0131604,1.59258067 C79.0131604,0.926369538 78.4723113,0.386679218 77.8046698,0.386679218 L60.753066,0.386679218 C60.0854245,0.386679218 59.5439151,0.926369538 59.5439151,1.59258067 L59.5439151,27.6183062 L0.438160377,76.4309563 C0.160801887,76.6602753 -0.00033018868,77.0009589 -0.00033018868,77.3600935 L-0.00033018868,137.1761 C-0.00033018868,137.842311 0.541179245,138.382002 1.20882075,138.382002 L138.497311,138.382002 C139.164953,138.382002 139.705802,137.842311 139.705802,137.1761 L139.705802,77.3600935 C139.705802,77.0009589 139.54533,76.6602753 139.267972,76.4309563 L139.267972,76.4309563 Z" id="Fill-3" fill="#7AB1D6" mask="url(#mask-2)"></path>
                        </g>
                        <path d="M65.2103491,91.4889093 C62.3007264,91.4889093 59.9332736,93.8499721 59.9332736,96.7513841 C59.9332736,98.1325696 60.464217,99.4366565 61.4270472,100.423123 L69.5681792,109.26706 C69.873934,109.601154 70.3817642,109.598518 70.6828962,109.269037 L78.7982736,100.452118 C79.7888396,99.4379744 80.3211038,98.1352055 80.3211038,96.754679 C80.3211038,93.85129 77.9529906,91.4889093 75.0433679,91.4889093 C73.5020472,91.4889093 72.0445943,92.1564384 71.0434623,93.3188483 C70.8143113,93.5857281 70.4795,93.7392664 70.1275189,93.7392664 L70.1268585,93.7392664 C69.7748774,93.7392664 69.4407264,93.5863871 69.2109151,93.3201662 C68.2071415,92.1570973 66.7490283,91.4889093 65.2103491,91.4889093 M70.1268585,111.930586 C69.2280849,111.930586 68.3966698,111.562885 67.7851604,110.895356 L59.6717642,102.079755 C58.2902547,100.666281 57.5162925,98.7651737 57.5162925,96.7513841 C57.5162925,92.5195267 60.9680849,89.0777654 65.2103491,89.0777654 C67.0211038,89.0777654 68.7552547,89.7116873 70.1261981,90.8477388 C71.4958208,89.7116873 73.2299717,89.0777654 75.0433679,89.0777654 C79.2856321,89.0777654 82.7374245,92.5208446 82.7374245,96.754679 C82.7374245,98.7684685 81.9614811,100.670234 80.5528962,102.110068 L72.4659151,110.897333 C71.8570472,111.562885 71.0262925,111.930586 70.1268585,111.930586" id="Fill-6" fill="#7AB1D6"></path>
                    </g>
                </g>
            </g>
        </g>
    </g>
</svg>