<?xml version="1.0" encoding="UTF-8" standalone="no"?>
<svg width="222px" height="109px" viewBox="0 0 222 109" version="1.1" xmlns="http://www.w3.org/2000/svg" xmlns:xlink="http://www.w3.org/1999/xlink">
    <!-- Generator: Sketch 3.6.1 (26313) - http://www.bohemiancoding.com/sketch -->
    <title>Icon</title>
    <desc>Created with Sketch.</desc>
    <defs>
        <path id="path-1" d="M24.7081251,24.0589803 L24.7081251,0.00988743169 L0.570610568,0.00988743169 L0.570610568,24.0589803 L24.7081251,24.0589803 L24.7081251,24.0589803 Z"></path>
        <path id="path-3" d="M24.7081251,24.1352208 L24.7081251,0.0861278689 L0.570610568,0.0861278689 L0.570610568,24.1352208 L24.7081251,24.1352208 L24.7081251,24.1352208 Z"></path>
        <path id="path-5" d="M24.7081251,24.2114016 L24.7081251,0.162308743 L0.570610568,0.162308743 L0.570610568,24.2114016 L24.7081251,24.2114016 L24.7081251,24.2114016 Z"></path>
    </defs>
    <g id="Desktop" stroke="none" stroke-width="1" fill="none" fill-rule="evenodd">
        <g id="What-is-Immediate-Burial" transform="translate(-414.000000, -2149.000000)">
            <g id="Steps" transform="translate(128.000000, 578.000000)">
                <g id="6" transform="translate(0.000000, 1500.000000)">
                    <g id="Icon" transform="translate(286.000000, 71.000000)">
                        <path d="M131.40985,99.2594503 L187.155723,99.2594503 L180.129053,65.1079038 L170.192239,65.1079038 C176.553545,54.4014831 182.413288,42.6342481 182.413288,35.9578492 C182.413288,21.5114776 172.208057,10.1617781 159.017358,10.1617781 C146.072958,10.1617781 135.619635,21.7699803 135.619635,35.9578492 C135.619635,42.7777945 141.45427,54.4717672 147.799436,65.1079038 L140.795482,65.1079038 L131.40985,99.2594503 Z" id="Fill-1" fill="#EEF7FC"></path>
                        <path d="M39.1998401,7.83162022 L16.5105226,7.83162022 L0.802441661,35.3442923 L13.5944007,100.450648 L42.1159619,100.450648 L54.907921,35.3442923 L39.1998401,7.83162022 Z" id="Fill-3" fill="#EEF7FC"></path>
                        <path d="M14.255221,99.6508973 L41.4562178,99.6508973 L54.0622576,35.4826568 L38.7343844,8.63172787 L16.9776521,8.63172787 L1.64977892,35.4826568 L14.255221,99.6508973 Z M42.1162011,101.251946 L13.5946398,101.251946 C13.2102474,101.251946 12.8796579,100.98034 12.8061272,100.604498 L0.0147659309,35.4981432 C-0.0217005381,35.3105202 0.00998344314,35.1145585 0.104437576,34.9489738 L15.8125185,7.43630164 C15.9547975,7.1861377 16.2202256,7.03127432 16.5107617,7.03127432 L39.2000792,7.03127432 C39.4900175,7.03127432 39.7560434,7.1861377 39.9001158,7.43630164 L55.607599,34.9489738 C55.7014553,35.1145585 55.7349327,35.3105202 55.6966728,35.4981432 L42.9047137,100.604498 C42.8317808,100.98034 42.5011913,101.251946 42.1162011,101.251946 L42.1162011,101.251946 Z" id="Fill-5" fill="#7AB1D6"></path>
                        <path d="M18.0575378,94.7125421 L37.6531835,94.7125421 L49.2722375,36.4374492 L35.9476288,13.5700831 L19.7642882,13.5700831 L6.4390817,36.4374492 L18.0575378,94.7125421 Z M38.312569,96.3141869 L17.399348,96.3141869 C17.0149555,96.3141869 16.6861595,96.043176 16.6102375,95.6697169 L4.80466652,36.4535311 C4.76760224,36.2617388 4.79988403,36.0639902 4.89852284,35.8954273 L18.6069261,12.3675093 C18.7504008,12.1209191 19.015231,11.9684383 19.3009847,11.9684383 L36.4103345,11.9684383 C36.6972838,11.9684383 36.9609184,12.1209191 37.1055887,12.3675093 L50.8139919,35.8954273 C50.9114351,36.0639902 50.9443147,36.2617388 50.9072505,36.4535311 L39.1010817,95.6697169 C39.0263553,96.043176 38.6963637,96.3141869 38.312569,96.3141869 L38.312569,96.3141869 Z" id="Fill-7" fill="#7AB1D6"></path>
                        <path d="M132.976773,98.0681934 L141.707802,66.2991607 L148.10139,66.2991607 C152.174874,72.9785377 156.129991,78.7597071 158.248633,81.7783519 C158.427379,82.0338765 158.713132,82.1833792 159.017418,82.1833792 C159.319911,82.1833792 159.606262,82.0332809 159.78441,81.7783519 C160.80308,80.3274011 165.161122,74.0500732 169.858122,66.298565 C169.860514,66.298565 169.862905,66.2991607 169.865894,66.2991607 L179.153485,66.2991607 L185.690548,98.0681934 L132.976773,98.0681934 Z M159.017418,9.95449945 C171.60373,9.95449945 181.463427,20.8527126 181.463427,34.7665923 C181.463427,43.9678601 169.546663,64.357412 159.017418,79.5209202 C148.020685,63.7022208 136.569019,43.969647 136.569019,34.7665923 C136.569019,21.0850077 146.637949,9.95449945 159.017418,9.95449945 L159.017418,9.95449945 Z M188.326894,99.0206033 L181.300224,64.8690568 C181.186042,64.3145268 180.697033,63.916647 180.129113,63.916647 L171.283304,63.916647 C177.292499,53.7468874 183.362672,41.7461661 183.362672,34.7665923 C183.362672,19.7496087 172.668432,7.98654317 159.017418,7.98654317 C145.59178,7.98654317 134.669175,20.0003683 134.669175,34.7665923 C134.669175,41.8867344 140.576146,53.6629038 146.666644,63.916647 L140.795542,63.916647 C140.256914,63.916647 139.784644,64.2758109 139.642365,64.793412 L130.256733,98.9449585 C130.158094,99.3029311 130.23282,99.6871115 130.459391,99.9819475 C130.685363,100.277379 131.036876,100.450707 131.40991,100.450707 L187.155783,100.450707 C187.515067,100.450707 187.855221,100.289292 188.08239,100.01292 C188.309558,99.7353574 188.399229,99.3702372 188.326894,99.0206033 L188.326894,99.0206033 Z" id="Fill-9" fill="#7AB1D6"></path>
                        <path d="M159.017179,22.0877481 C154.049968,22.0877481 150.009961,25.9235951 150.009961,30.637994 C150.009961,35.3523929 154.049968,39.1876443 159.017179,39.1876443 C163.983195,39.1876443 168.023201,35.3523929 168.023201,30.637994 C168.023201,25.9235951 163.983195,22.0877481 159.017179,22.0877481 M159.017179,40.8518301 C153.002603,40.8518301 148.111314,36.2702563 148.111314,30.637994 C148.111314,25.0051361 153.002603,20.4229667 159.017179,20.4229667 C165.03056,20.4229667 169.921849,25.0051361 169.921849,30.637994 C169.921849,36.2702563 165.03056,40.8518301 159.017179,40.8518301" id="Fill-11" fill="#7AB1D6"></path>
                        <path d="M208.098356,27.9893536 C207.822765,27.9893536 207.557337,27.8791623 207.363647,27.6814137 L203.510755,23.7615831 C203.112613,23.357747 203.119786,22.708512 203.5257,22.3124191 C203.931614,21.9163262 204.58263,21.9222825 204.980772,22.3273098 L207.994337,25.3942005 L213.568924,17.9851787 C213.910274,17.5325011 214.555312,17.4407743 215.009051,17.7790913 C215.463387,18.1191951 215.556646,18.7618781 215.215296,19.2145557 L208.92214,27.5795612 C208.741601,27.8190038 208.465412,27.9673153 208.165909,27.9875667 C208.143192,27.9887579 208.121073,27.9893536 208.098356,27.9893536" id="Fill-13" fill="#7AB1D6"></path>
                        <path d="M76.1030099,59.2802158 C75.8274191,59.2802158 75.561991,59.1700246 75.3677024,58.972276 L71.5154086,55.0524454 C71.1172665,54.6486093 71.1244402,53.9993743 71.5303538,53.6032814 C71.9362675,53.2071885 72.5872836,53.2131448 72.9854257,53.6181721 L75.9989908,56.6850628 L81.5735781,49.276041 C81.9149281,48.8233634 82.5599662,48.7316366 83.0131069,49.0699536 C83.468041,49.4100574 83.5612995,50.0527404 83.2199495,50.505418 L76.9267934,58.8704235 C76.7462545,59.1098661 76.4700659,59.2581776 76.1705626,59.278429 C76.1478458,59.2796202 76.1257267,59.2802158 76.1030099,59.2802158" id="Fill-15" fill="#7AB1D6"></path>
                        <path d="M88.276952,22.7822508 C88.276952,28.7653383 83.4089773,33.6149448 77.4039662,33.6149448 C71.398955,33.6149448 66.5303825,28.7653383 66.5303825,22.7822508 C66.5303825,16.7985678 71.398955,11.9489612 77.4039662,11.9489612 C83.4089773,11.9489612 88.276952,16.7985678 88.276952,22.7822508" id="Fill-17" fill="#EDF7FC"></path>
                        <path d="M77.403727,13.1399202 C72.0670685,13.1399202 67.7263631,17.4653738 67.7263631,22.781953 C67.7263631,28.0985322 72.0670685,32.4239858 77.403727,32.4239858 C82.7403855,32.4239858 87.081091,28.0985322 87.081091,22.781953 C87.081091,17.4653738 82.7403855,13.1399202 77.403727,13.1399202 M77.403727,34.8064995 C70.7488953,34.8064995 65.3351192,29.4124885 65.3351192,22.781953 C65.3351192,16.1520131 70.7488953,10.7574066 77.403727,10.7574066 C84.0585587,10.7574066 89.4723348,16.1520131 89.4723348,22.781953 C89.4723348,29.4124885 84.0585587,34.8064995 77.403727,34.8064995" id="Fill-19" fill="#7AB1D6"></path>
                        <path d="M77.403727,44.1888383 C72.0670685,44.1888383 67.7263631,48.5142918 67.7263631,53.830871 C67.7263631,59.1474503 72.0670685,63.4729038 77.403727,63.4729038 C82.7403855,63.4729038 87.081091,59.1474503 87.081091,53.830871 C87.081091,48.5142918 82.7403855,44.1888383 77.403727,44.1888383 M77.403727,65.8554175 C70.7488953,65.8554175 65.3351192,60.4614066 65.3351192,53.830871 C65.3351192,47.2009311 70.7488953,41.8063246 77.403727,41.8063246 C84.0585587,41.8063246 89.4723348,47.2009311 89.4723348,53.830871 C89.4723348,60.4614066 84.0585587,65.8554175 77.403727,65.8554175" id="Fill-21" fill="#7AB1D6"></path>
                        <path d="M88.276952,84.8800273 C88.276952,90.8631148 83.4089773,95.7127213 77.4039662,95.7127213 C71.398955,95.7127213 66.5303825,90.8631148 66.5303825,84.8800273 C66.5303825,78.8963443 71.398955,74.0461421 77.4039662,74.0461421 C83.4089773,74.0461421 88.276952,78.8963443 88.276952,84.8800273" id="Fill-23" fill="#EDF7FC"></path>
                        <path d="M77.403727,75.2376967 C72.0670685,75.2376967 67.7263631,79.5631503 67.7263631,84.8803251 C67.7263631,90.1963087 72.0670685,94.5217623 77.403727,94.5217623 C82.7403855,94.5217623 87.081091,90.1963087 87.081091,84.8803251 C87.081091,79.5631503 82.7403855,75.2376967 77.403727,75.2376967 M77.403727,96.904276 C70.7488953,96.904276 65.3351192,91.510265 65.3351192,84.8803251 C65.3351192,78.2497896 70.7488953,72.8551831 77.403727,72.8551831 C84.0585587,72.8551831 89.4723348,78.2497896 89.4723348,84.8803251 C89.4723348,91.510265 84.0585587,96.904276 77.403727,96.904276" id="Fill-25" fill="#7AB1D6"></path>
                        <g id="Group-29" transform="translate(196.679808, 10.747519)">
                            <mask id="mask-2" fill="white">
                                <use xlink:href="#path-1"></use>
                            </mask>
                            <g id="Clip-28"></g>
                            <path d="M12.6392184,2.39240109 C7.30255986,2.39240109 2.96185443,6.71785464 2.96185443,12.0344339 C2.96185443,17.3510131 7.30255986,21.6764667 12.6392184,21.6764667 C17.9758769,21.6764667 22.3171801,17.3510131 22.3171801,12.0344339 C22.3171801,6.71785464 17.9758769,2.39240109 12.6392184,2.39240109 M12.6392184,24.0589803 C5.98438668,24.0589803 0.570610568,18.6649694 0.570610568,12.0344339 C0.570610568,5.40449399 5.98438668,0.00988743169 12.6392184,0.00988743169 C19.29405,0.00988743169 24.708424,5.40449399 24.708424,12.0344339 C24.708424,18.6649694 19.29405,24.0589803 12.6392184,24.0589803" id="Fill-27" fill="#7AB1D6" mask="url(#mask-2)"></path>
                        </g>
                        <path d="M220.192371,53.8311093 C220.192371,59.8141967 215.323798,64.6638033 209.318787,64.6638033 C203.314374,64.6638033 198.445801,59.8141967 198.445801,53.8311093 C198.445801,47.8474262 203.314374,42.9978197 209.318787,42.9978197 C215.323798,42.9978197 220.192371,47.8474262 220.192371,53.8311093" id="Fill-30" fill="#EDF7FC"></path>
                        <g id="Group-34" transform="translate(196.679808, 41.720197)">
                            <mask id="mask-4" fill="white">
                                <use xlink:href="#path-3"></use>
                            </mask>
                            <g id="Clip-33"></g>
                            <path d="M12.6392184,2.46864153 C7.30255986,2.46864153 2.96185443,6.79409508 2.96185443,12.1106743 C2.96185443,17.4272536 7.30255986,21.7527071 12.6392184,21.7527071 C17.9758769,21.7527071 22.3171801,17.4272536 22.3171801,12.1106743 C22.3171801,6.79409508 17.9758769,2.46864153 12.6392184,2.46864153 M12.6392184,24.1352208 C5.98438668,24.1352208 0.570610568,18.7412098 0.570610568,12.1106743 C0.570610568,5.48073443 5.98438668,0.0861278689 12.6392184,0.0861278689 C19.29405,0.0861278689 24.708424,5.48073443 24.708424,12.1106743 C24.708424,18.7412098 19.29405,24.1352208 12.6392184,24.1352208" id="Fill-32" fill="#7AB1D6" mask="url(#mask-4)"></path>
                        </g>
                        <path d="M220.192371,84.8800273 C220.192371,90.8631148 215.323798,95.7127213 209.318787,95.7127213 C203.314374,95.7127213 198.445801,90.8631148 198.445801,84.8800273 C198.445801,78.8963443 203.314374,74.0461421 209.318787,74.0461421 C215.323798,74.0461421 220.192371,78.8963443 220.192371,84.8800273" id="Fill-35" fill="#EDF7FC"></path>
                        <g id="Group-39" transform="translate(196.679808, 72.692874)">
                            <mask id="mask-6" fill="white">
                                <use xlink:href="#path-5"></use>
                            </mask>
                            <g id="Clip-38"></g>
                            <path d="M12.6392184,2.5448224 C7.30255986,2.5448224 2.96185443,6.87027596 2.96185443,12.1874508 C2.96185443,17.5034344 7.30255986,21.828888 12.6392184,21.828888 C17.9758769,21.828888 22.3171801,17.5034344 22.3171801,12.1874508 C22.3171801,6.87027596 17.9758769,2.5448224 12.6392184,2.5448224 M12.6392184,24.2114016 C5.98438668,24.2114016 0.570610568,18.8173907 0.570610568,12.1874508 C0.570610568,5.5569153 5.98438668,0.162308743 12.6392184,0.162308743 C19.29405,0.162308743 24.708424,5.5569153 24.708424,12.1874508 C24.708424,18.8173907 19.29405,24.2114016 12.6392184,24.2114016" id="Fill-37" fill="#7AB1D6" mask="url(#mask-6)"></path>
                        </g>
                        <path d="M111.581656,1.19131639 L111.581656,107.239382" id="Fill-40" fill="#FEFEFE"></path>
                        <path d="M111.581656,108.430579 C110.921673,108.430579 110.386034,107.897492 110.386034,107.239322 L110.386034,1.19125683 C110.386034,0.53368306 110.921673,0 111.581656,0 C112.242237,0 112.777278,0.53368306 112.777278,1.19125683 L112.777278,107.239322 C112.777278,107.897492 112.242237,108.430579 111.581656,108.430579" id="Fill-42" fill="#7AB1D6"></path>
                    </g>
                </g>
            </g>
        </g>
    </g>
</svg>