<?xml version="1.0" encoding="UTF-8" standalone="no"?>
<svg width="87px" height="123px" viewBox="0 0 87 123" version="1.1" xmlns="http://www.w3.org/2000/svg" xmlns:xlink="http://www.w3.org/1999/xlink">
    <!-- Generator: Sketch 3.6.1 (26313) - http://www.bohemiancoding.com/sketch -->
    <title>Icon</title>
    <desc>Created with Sketch.</desc>
    <defs>
        <path id="path-1" d="M0.235299262,82.5853018 L82.3132518,82.5853018 L82.3132518,41.4602136 L82.3132518,0.335125459 L0.235299262,0.335125459 L0.235299262,82.5853018 L0.235299262,82.5853018 Z"></path>
    </defs>
    <g id="Desktop" stroke="none" stroke-width="1" fill="none" fill-rule="evenodd">
        <g id="What-is-Direct-Cremation" transform="translate(-889.000000, -1772.000000)">
            <g id="Steps" transform="translate(150.000000, 436.000000)">
                <g id="7" transform="translate(0.000000, 1296.000000)">
                    <g id="Icon" transform="translate(739.000000, 40.000000)">
                        <path d="M58.1359684,83.5487021 L47.685612,94.9517388 C47.1951211,95.4916759 46.533555,95.7832874 45.8191319,95.7832874 C45.1075506,95.7832874 44.4437111,95.4916759 43.9520834,94.9517388 L33.4988853,83.5447152 C31.9739869,81.9755945 31.1316838,79.9035577 31.1316838,77.7067887 C31.1316838,73.094542 34.8822631,69.3389042 39.4865126,69.3389042 C41.9378308,69.3389042 44.2402398,70.4125131 45.8191319,72.2504633 C47.3951823,70.4102349 49.692476,69.3389042 52.1528879,69.3389042 C56.7577058,69.3389042 60.5071484,73.094542 60.5071484,77.7107756 C60.5071484,79.905836 59.665982,81.9773031 58.1359684,83.5487021 M78.5945004,41.7890171 L13.0471736,41.7890171 C9.13347619,41.7890171 5.96148299,44.9682664 5.96148299,48.891353 L5.96148299,114.572298 C5.96148299,118.496524 9.13347619,121.676343 13.0471736,121.676343 L78.5945004,121.676343 C82.5070611,121.676343 85.6813277,118.496524 85.6813277,114.572298 L85.6813277,48.891353 C85.6813277,44.9682664 82.5070611,41.7890171 78.5945004,41.7890171" id="Fill-1" fill="#EEF7FC"></path>
                        <g id="Group-5" transform="translate(4.546846, 40.272580)">
                            <mask id="mask-2" fill="white">
                                <use xlink:href="#path-1"></use>
                            </mask>
                            <g id="Clip-4"></g>
                            <path d="M8.50032793,2.69763465 C5.24364974,2.69763465 2.59340708,5.3540336 2.59340708,8.61871601 L2.59340708,74.2996609 C2.59340708,77.5649129 5.24364974,80.2224509 8.50032793,80.2224509 L74.0476547,80.2224509 C77.3054696,80.2224509 79.9557123,77.5649129 79.9557123,74.2996609 L79.9557123,8.61871601 C79.9557123,5.3540336 77.3054696,2.69763465 74.0476547,2.69763465 L8.50032793,2.69763465 Z M74.0476547,82.5855297 L8.50032793,82.5855297 C3.94325188,82.5855297 0.235299262,78.868052 0.235299262,74.2996609 L0.235299262,8.61871601 C0.235299262,4.05089449 3.94325188,0.335125459 8.50032793,0.335125459 L74.0476547,0.335125459 C78.6058675,0.335125459 82.3132518,4.05089449 82.3132518,8.61871601 L82.3132518,74.2996609 C82.3132518,78.868052 78.6058675,82.5855297 74.0476547,82.5855297 L74.0476547,82.5855297 Z" id="Fill-3" fill="#7AB1D6" mask="url(#mask-2)"></path>
                        </g>
                        <path d="M39.4862285,70.5201588 C35.5299044,70.5201588 32.3107377,73.7444029 32.3107377,77.7067887 C32.3107377,79.5920118 33.0331178,81.3730066 34.343746,82.7205709 L44.8208151,94.1532244 C45.3579113,94.7415735 46.2831943,94.7392953 46.8151753,94.1560722 L57.2678051,82.7496181 C58.605146,81.3752848 59.3280945,79.5954291 59.3280945,77.7107756 C59.3280945,73.745542 56.1089278,70.5201588 52.1526037,70.5201588 C50.0570762,70.5201588 48.0740832,71.4314449 46.7134396,73.0199304 C46.4900758,73.2813556 46.1632713,73.4317178 45.8199844,73.4317178 L45.8194161,73.4317178 C45.4761292,73.4317178 45.1493247,73.2819252 44.9259609,73.0210696 C43.5607705,71.4314449 41.5783458,70.5201588 39.4862285,70.5201588 M45.8194161,96.9651115 C44.7685264,96.9651115 43.7960698,96.5328202 43.0816467,95.7485446 L32.6307219,84.3437992 C30.9125826,82.5776129 29.9531982,80.2116864 29.9531982,77.7067887 C29.9531982,72.4412638 34.2295065,68.1576496 39.4862285,68.1576496 C41.837516,68.1576496 44.0842261,69.0239409 45.8182794,70.5691404 C47.5500592,69.0239409 49.797906,68.1576496 52.1526037,68.1576496 C57.4093256,68.1576496 61.6862023,72.4429724 61.6862023,77.7107756 C61.6862023,80.2156732 60.7245445,82.5821693 58.9796924,84.3739856 L48.553207,95.7513924 C47.842194,96.5328202 46.8703058,96.9651115 45.8194161,96.9651115" id="Fill-6" fill="#7AB1D6"></path>
                        <path d="M74.7059811,4.89184068 C75.7182227,7.19625538 74.6758583,9.88682756 72.3768595,10.9006333 L7.74856384,39.4347094 C5.44956501,40.4507934 2.76522101,39.4050927 1.75184279,37.1018171 L1.56769554,36.6820559 C0.555454031,34.3782108 1.59781839,31.6876386 3.89681722,30.6738328 L68.5251128,2.13861759 C70.8235433,1.1236727 73.5084557,2.16880394 74.5201288,4.47207953 L74.7059811,4.89184068 Z" id="Fill-8" fill="#EEF7FC"></path>
                        <g id="Group-12" transform="translate(0.000000, 0.403814)" fill="#7AB1D6">
                            <path d="M70.3561844,2.52853412 C69.8884277,2.52853412 69.4326064,2.62478871 69.0000877,2.81558924 L4.37179209,31.3508045 C3.54824467,31.7141798 2.91566477,32.37771 2.58942859,33.2183714 C2.26319242,34.0584633 2.28422158,34.976584 2.64683252,35.8018675 L2.83041141,36.2216286 C3.37034933,37.4467388 4.58094699,38.2378491 5.91715125,38.2378491 C6.38377128,38.2378491 6.84129763,38.1410249 7.27381632,37.9502244 L71.9021119,9.41614829 C72.7256594,9.05220341 73.3582393,8.38867323 73.6833387,7.54858136 C74.0101433,6.70791995 73.9902508,5.79036877 73.6270715,4.96394619 L73.4423559,4.54475459 C72.9029863,3.31964436 71.6923887,2.52853412 70.3561844,2.52853412 M5.91715125,40.6009278 C3.64657021,40.6009278 1.5885542,39.2556417 0.673501511,37.1744921 L0.489354262,36.7541614 C-0.127880034,35.3513504 -0.161981376,33.7924816 0.391028725,32.3629016 C0.945175538,30.932752 2.02164124,29.8061745 3.42150135,29.1887782 L68.0492286,0.653562992 C68.7829758,0.329486877 69.5599181,0.166024934 70.3561844,0.166024934 C72.6261971,0.166024934 74.6847815,1.51017192 75.5998342,3.59132152 L75.7845498,4.01165223 C76.4012157,5.41503281 76.4358854,6.97504068 75.882307,8.40348163 C75.3275918,9.83249213 74.2516944,10.9607782 72.8518343,11.5781745 L8.22467541,40.1122507 C7.4909282,40.4368963 6.71341759,40.6009278 5.91715125,40.6009278" id="Fill-10"></path>
                        </g>
                    </g>
                </g>
            </g>
        </g>
    </g>
</svg>