<?xml version="1.0" encoding="UTF-8" standalone="no"?>
<svg width="102px" height="143px" viewBox="0 0 102 143" version="1.1" xmlns="http://www.w3.org/2000/svg" xmlns:xlink="http://www.w3.org/1999/xlink">
    <!-- Generator: Sketch 3.6.1 (26313) - http://www.bohemiancoding.com/sketch -->
    <title>Icon</title>
    <desc>Created with Sketch.</desc>
    <defs>
        <path id="path-1" d="M0.276384936,96.4556241 L96.5693635,96.4556241 L96.5693635,0.391343749 L0.276384936,0.391343749 L0.276384936,96.4556241 L0.276384936,96.4556241 Z"></path>
    </defs>
    <g id="Desktop" stroke="none" stroke-width="1" fill="none" fill-rule="evenodd">
        <g id="What-is-Direct-Cremation" transform="translate(-469.000000, -2431.000000)">
            <g id="Steps" transform="translate(128.000000, 578.000000)">
                <g id="7" transform="translate(0.000000, 1800.000000)">
                    <g id="Icon" transform="translate(341.000000, 53.000000)">
                        <path d="M68.2048009,96.9155511 L55.9451787,110.233745 C55.3690711,110.864365 54.5929262,111.204953 53.7547697,111.204953 C52.9199472,111.204953 52.1411351,110.864365 51.5643607,110.233745 L39.3007377,96.9108947 C37.5110702,95.0782378 36.5235525,92.6581994 36.5235525,90.0924798 C36.5235525,84.7055995 40.9237074,80.3191969 46.3253826,80.3191969 C49.2012529,80.3191969 51.9024239,81.57312 53.7547697,83.7197565 C55.6037816,81.5704592 58.2996183,80.3191969 61.1854904,80.3191969 C66.5878324,80.3191969 70.9866537,84.7055995 70.9866537,90.0971363 C70.9866537,92.6608603 69.9998028,95.0802334 68.2048009,96.9155511 M92.2066156,48.1422659 L15.3069246,48.1422659 C10.7154006,48.1422659 6.99403917,51.8554748 6.99403917,56.4374496 L6.99403917,133.149605 C6.99403917,137.73291 10.7154006,141.446785 15.3069246,141.446785 L92.2066156,141.446785 C96.7968059,141.446785 100.520835,137.73291 100.520835,133.149605 L100.520835,56.4374496 C100.520835,51.8554748 96.7968059,48.1422659 92.2066156,48.1422659" id="Fill-1" fill="#EEF7FC"></path>
                        <g id="Group-5" transform="translate(5.334329, 46.371208)">
                            <mask id="mask-2" fill="white">
                                <use xlink:href="#path-1"></use>
                            </mask>
                            <g id="Clip-4"></g>
                            <path d="M9.972862,3.15063981 C6.15214865,3.15063981 3.04223467,6.25318485 3.04223467,10.0661755 L3.04223467,86.7783311 C3.04223467,90.5919869 6.15214865,93.6958624 9.972862,93.6958624 L86.8718862,93.6958624 C90.6939331,93.6958624 93.8031803,90.5919869 93.8031803,86.7783311 L93.8031803,10.0661755 C93.8031803,6.25318485 90.6939331,3.15063981 86.8718862,3.15063981 L9.972862,3.15063981 Z M86.8718862,96.4558237 L9.972862,96.4558237 C4.62586368,96.4558237 0.276384936,92.1139902 0.276384936,86.7783311 L0.276384936,10.0661755 C0.276384936,4.73118162 4.62586368,0.391343749 9.972862,0.391343749 L86.8718862,0.391343749 C92.2195513,0.391343749 96.5696969,4.73118162 96.5696969,10.0661755 L96.5696969,86.7783311 C96.5696969,92.1139902 92.2195513,96.4558237 86.8718862,96.4558237 L86.8718862,96.4558237 Z" id="Fill-3" fill="#7AB1D6" mask="url(#mask-2)"></path>
                        </g>
                        <path d="M46.3250492,81.6988449 C41.6835159,81.6988449 37.9068108,85.4646055 37.9068108,90.0924798 C37.9068108,92.2943289 38.7536356,94.3744443 40.2919228,95.948334 L52.5828842,109.301118 C53.2143355,109.988282 54.2992047,109.985621 54.9233212,109.304445 L67.1862774,95.9822598 C68.755237,94.3777704 69.6033954,92.2983202 69.6033954,90.0971363 C69.6033954,85.4659359 65.8266903,81.6988449 61.185157,81.6988449 C58.7260312,81.6988449 56.4002636,82.7631828 54.8039656,84.6184569 C54.5419167,84.9237888 54.1585117,85.0994046 53.7557699,85.0994046 L53.7551031,85.0994046 C53.3523612,85.0994046 52.9689563,84.924454 52.7069074,84.6197873 C51.105275,82.763848 48.7795075,81.6988449 46.3250492,81.6988449 M53.7551031,112.585266 C52.5222062,112.585266 51.3813266,112.080371 50.5431701,111.164375 L38.2822142,97.844186 C36.2665045,95.781366 35.140961,93.0180787 35.140961,90.0924798 C35.140961,83.9426023 40.1578977,78.9395489 46.3250492,78.9395489 C49.0835642,78.9395489 51.7193897,79.9513351 53.7544363,81.7560531 C55.7854822,79.9513351 58.4226412,78.9395489 61.185157,78.9395489 C67.3523084,78.9395489 72.3699119,83.9445979 72.3699119,90.0971363 C72.3699119,93.0227352 71.2417013,95.7866877 69.1946524,97.8794422 L56.9637022,111.167701 C56.1288796,112.080371 54.988,112.585266 53.7551031,112.585266" id="Fill-6" fill="#7AB1D6"></path>
                        <path d="M36.5237526,43.1938928 C36.5237526,41.7277673 37.7139748,40.5403653 39.1822489,40.5403653 C40.6505231,40.5403653 41.8407453,41.7277673 41.8407453,43.1938928 C41.8407453,44.6586879 40.6505231,45.8460899 39.1822489,45.8460899 C37.7139748,45.8460899 36.5237526,44.6586879 36.5237526,43.1938928" id="Fill-8" fill="#7AB1D6"></path>
                        <path d="M53.7555032,34.449359 C53.7555032,32.9838987 54.9457254,31.7964967 56.4146663,31.7964967 C57.8822737,31.7964967 59.0724959,32.9838987 59.0724959,34.449359 C59.0724959,35.9134888 57.8822737,37.101556 56.4146663,37.101556 C54.9457254,37.101556 53.7555032,35.9134888 53.7555032,34.449359" id="Fill-10" fill="#7AB1D6"></path>
                        <path d="M67.2222175,39.2890365 C67.2222175,37.8235763 68.4124397,36.6361743 69.8807138,36.6361743 C71.348988,36.6361743 72.539877,37.8235763 72.539877,39.2890365 C72.539877,40.7531664 71.348988,41.9412336 69.8807138,41.9412336 C68.4124397,41.9412336 67.2222175,40.7531664 67.2222175,39.2890365" id="Fill-12" fill="#7AB1D6"></path>
                        <path d="M85.4394854,36.6359747 C85.4394854,35.1705144 86.6290409,33.9837777 88.0979818,33.9837777 C89.5662559,33.9837777 90.7571449,35.1705144 90.7571449,36.6359747 C90.7571449,38.1007698 89.5662559,39.288837 88.0979818,39.288837 C86.6290409,39.288837 85.4394854,38.1007698 85.4394854,36.6359747" id="Fill-14" fill="#7AB1D6"></path>
                        <path d="M70.9871871,27.2054751 C70.9871871,25.74068 72.1774093,24.553278 73.6463503,24.553278 C75.1139576,24.553278 76.3041798,25.74068 76.3041798,27.2054751 C76.3041798,28.6709354 75.1139576,29.8583374 73.6463503,29.8583374 C72.1774093,29.8583374 70.9871871,28.6709354 70.9871871,27.2054751" id="Fill-16" fill="#7AB1D6"></path>
                        <path d="M48.5396627,60.6582812 C48.5396627,59.1934861 49.7298849,58.0067493 51.1988258,58.0067493 C52.6664332,58.0067493 53.8566554,59.1934861 53.8566554,60.6582812 C53.8566554,62.1237414 52.6664332,63.3111434 51.1988258,63.3111434 C49.7298849,63.3111434 48.5396627,62.1237414 48.5396627,60.6582812" id="Fill-18" fill="#7AB1D6"></path>
                        <path d="M65.6694609,58.0065497 C65.6694609,56.5410895 66.8596831,55.3536875 68.3286241,55.3536875 C69.7962314,55.3536875 70.9864536,56.5410895 70.9864536,58.0065497 C70.9864536,59.4713448 69.7962314,60.659412 68.3286241,60.659412 C66.8596831,60.659412 65.6694609,59.4713448 65.6694609,58.0065497" id="Fill-20" fill="#7AB1D6"></path>
                        <path d="M82.8012595,60.6596116 C82.8012595,59.1934861 83.9914818,58.0067493 85.4604227,58.0067493 C86.92803,58.0067493 88.1182523,59.1934861 88.1182523,60.6596116 C88.1182523,62.1244066 86.92803,63.3111434 85.4604227,63.3111434 C83.9914818,63.3111434 82.8012595,62.1244066 82.8012595,60.6596116" id="Fill-22" fill="#7AB1D6"></path>
                        <path d="M20.0232718,60.6589464 C20.0232718,59.1934861 21.213494,58.0060841 22.682435,58.0060841 C24.1500423,58.0060841 25.3402645,59.1934861 25.3402645,60.6589464 C25.3402645,62.1237414 24.1500423,63.3111434 22.682435,63.3111434 C21.213494,63.3111434 20.0232718,62.1237414 20.0232718,60.6589464" id="Fill-24" fill="#7AB1D6"></path>
                        <path d="M16.1364795,86.0525857 C16.1364795,84.5877906 17.3267017,83.3997234 18.7956426,83.3997234 C20.2639167,83.3997234 21.454139,84.5877906 21.454139,86.0525857 C21.454139,87.5173808 20.2639167,88.705448 18.7956426,88.705448 C17.3267017,88.705448 16.1364795,87.5173808 16.1364795,86.0525857" id="Fill-26" fill="#7AB1D6"></path>
                        <path d="M26.115876,101.494067 C26.115876,100.029937 27.3060982,98.8418697 28.7743724,98.8418697 C30.2426465,98.8418697 31.4328687,100.029937 31.4328687,101.494067 C31.4328687,102.958862 30.2426465,104.146929 28.7743724,104.146929 C27.3060982,104.146929 26.115876,102.958862 26.115876,101.494067" id="Fill-28" fill="#7AB1D6"></path>
                        <path d="M16.1364795,113.857682 C16.1364795,112.392887 17.3267017,111.205485 18.7956426,111.205485 C20.2639167,111.205485 21.454139,112.392887 21.454139,113.857682 C21.454139,115.322477 20.2639167,116.510544 18.7956426,116.510544 C17.3267017,116.510544 16.1364795,115.322477 16.1364795,113.857682" id="Fill-30" fill="#7AB1D6"></path>
                        <path d="M36.5244193,118.458283 C36.5244193,116.992823 37.7146416,115.804755 39.1835825,115.804755 C40.6511898,115.804755 41.8414121,116.992823 41.8414121,118.458283 C41.8414121,119.922413 40.6511898,121.11048 39.1835825,121.11048 C37.7146416,121.11048 36.5244193,119.922413 36.5244193,118.458283" id="Fill-32" fill="#7AB1D6"></path>
                        <path d="M22.6816348,131.126498 C22.6816348,129.661703 23.871857,128.474301 25.3401312,128.474301 C26.8084053,128.474301 27.9986275,129.661703 27.9986275,131.126498 C27.9986275,132.591959 26.8084053,133.779361 25.3401312,133.779361 C23.871857,133.779361 22.6816348,132.591959 22.6816348,131.126498" id="Fill-34" fill="#7AB1D6"></path>
                        <path d="M53.7555032,131.126498 C53.7555032,129.661703 54.9457254,128.474301 56.4146663,128.474301 C57.8822737,128.474301 59.0724959,129.661703 59.0724959,131.126498 C59.0724959,132.591959 57.8822737,133.779361 56.4146663,133.779361 C54.9457254,133.779361 53.7555032,132.591959 53.7555032,131.126498" id="Fill-36" fill="#7AB1D6"></path>
                        <path d="M63.0114313,116.510744 C63.0114313,115.045284 64.2016535,113.857882 65.6699277,113.857882 C67.1382018,113.857882 68.328424,115.045284 68.328424,116.510744 C68.328424,117.975539 67.1382018,119.163606 65.6699277,119.163606 C64.2016535,119.163606 63.0114313,117.975539 63.0114313,116.510744" id="Fill-38" fill="#7AB1D6"></path>
                        <path d="M76.3043132,100.242272 C76.3043132,98.7768121 77.4945354,97.5900753 78.9634763,97.5900753 C80.4310837,97.5900753 81.6213059,98.7768121 81.6213059,100.242272 C81.6213059,101.707067 80.4310837,102.894469 78.9634763,102.894469 C77.4945354,102.894469 76.3043132,101.707067 76.3043132,100.242272" id="Fill-40" fill="#7AB1D6"></path>
                        <path d="M88.0981818,86.0525857 C88.0981818,84.5877906 89.2884041,83.3997234 90.757345,83.3997234 C92.2249523,83.3997234 93.4151746,84.5877906 93.4151746,86.0525857 C93.4151746,87.5173808 92.2249523,88.705448 90.757345,88.705448 C89.2884041,88.705448 88.0981818,87.5173808 88.0981818,86.0525857" id="Fill-42" fill="#7AB1D6"></path>
                        <path d="M73.6462169,73.11476 C73.6462169,71.6492997 74.8364391,70.462563 76.3047133,70.462563 C77.7729874,70.462563 78.9632096,71.6492997 78.9632096,73.11476 C78.9632096,74.5795551 77.7729874,75.7669571 76.3047133,75.7669571 C74.8364391,75.7669571 73.6462169,74.5795551 73.6462169,73.11476" id="Fill-44" fill="#7AB1D6"></path>
                        <path d="M85.4596225,113.858281 C85.4596225,112.392821 86.6498448,111.205419 88.1181189,111.205419 C89.586393,111.205419 90.7766153,112.392821 90.7766153,113.858281 C90.7766153,115.323076 89.586393,116.510478 88.1181189,116.510478 C86.6498448,116.510478 85.4596225,115.323076 85.4596225,113.858281" id="Fill-46" fill="#7AB1D6"></path>
                        <path d="M76.3043132,131.126498 C76.3043132,129.661703 77.4945354,128.474301 78.9634763,128.474301 C80.4310837,128.474301 81.6213059,129.661703 81.6213059,131.126498 C81.6213059,132.591959 80.4310837,133.779361 78.9634763,133.779361 C77.4945354,133.779361 76.3043132,132.591959 76.3043132,131.126498" id="Fill-48" fill="#7AB1D6"></path>
                        <path d="M36.5244193,70.4623634 C36.5244193,68.9962379 37.7146416,67.8088359 39.1835825,67.8088359 C40.6511898,67.8088359 41.8414121,68.9962379 41.8414121,70.4623634 C41.8414121,71.9271585 40.6511898,73.1145605 39.1835825,73.1145605 C37.7146416,73.1145605 36.5244193,71.9271585 36.5244193,70.4623634" id="Fill-50" fill="#7AB1D6"></path>
                        <path d="M87.6442971,5.04822128 C88.8325189,7.7396658 87.6089572,10.8821235 84.9124537,12.0661994 L9.09096401,45.3926154 C6.39379376,46.5793522 3.24387232,45.3580244 2.05631726,42.6679103 L1.83961013,42.1776497 C0.651388285,39.4868704 1.87428327,36.3444126 4.57212031,35.1603367 L80.3929432,1.83259034 C83.0894467,0.647183977 86.2393681,1.86784653 87.42759,4.55796063 L87.6442971,5.04822128 Z" id="Fill-52" fill="#EEF7FC"></path>
                        <path d="M82.5414777,2.75962867 C81.9927086,2.75962867 81.4579421,2.87204936 80.9511808,3.09489511 L5.12969108,36.4219763 C4.1628439,36.8470462 3.42003854,37.6220173 3.03796721,38.603869 C2.65589587,39.5850555 2.67990035,40.657376 3.10597991,41.621267 L3.32135345,42.1115277 C3.95413826,43.542397 5.37440344,44.4663753 6.94269625,44.4663753 C7.49079858,44.4663753 8.02623188,44.3532894 8.53365996,44.1304437 L84.3544829,10.8040277 C85.3206633,10.3789578 86.0634686,9.60398671 86.4455399,8.62213498 C86.8276113,7.64094846 86.8042736,6.56929321 86.3788608,5.60407176 L86.1621537,5.11447632 C85.5293689,3.68360702 84.1091037,2.75962867 82.5414777,2.75962867 M6.94269625,47.2263366 C4.27886556,47.2263366 1.86374797,45.6551077 0.790214205,43.224426 L0.574173869,42.7335001 C-0.149961332,41.095085 -0.189968802,39.2744019 0.459485789,37.6047218 C1.10960717,35.9343765 2.37184284,34.6185887 4.01481626,33.8974998 L79.8349724,0.569753393 C80.6957998,0.19124822 81.6066365,0.0003326056 82.5414777,0.0003326056 C85.2046416,0.0003326056 87.6197592,1.57023104 88.6932929,4.00091277 L88.9100001,4.49183863 C89.6334685,6.13091903 89.6741427,7.95293251 89.0246882,9.6212822 C88.3745668,11.2902971 87.1123311,12.6080805 85.4700245,13.3291694 L9.64920157,46.6555854 C8.78837418,47.0347558 7.87687066,47.2263366 6.94269625,47.2263366" id="Fill-54" fill="#7AB1D6"></path>
                    </g>
                </g>
            </g>
        </g>
    </g>
</svg>