<?xml version="1.0" encoding="UTF-8" standalone="no"?>
<svg width="213px" height="81px" viewBox="0 0 213 81" version="1.1" xmlns="http://www.w3.org/2000/svg" xmlns:xlink="http://www.w3.org/1999/xlink">
    <!-- Generator: Sketch 3.6.1 (26313) - http://www.bohemiancoding.com/sketch -->
    <title>Icon</title>
    <desc>Created with Sketch.</desc>
    <defs>
        <path id="path-1" d="M106.304466,80.5280528 L212.608735,80.5280528 L212.608735,0.640264026 L0.000196615384,0.640264026 L0.000196615384,80.5280528 L106.304466,80.5280528 L106.304466,80.5280528 Z"></path>
    </defs>
    <g id="Desktop" stroke="none" stroke-width="1" fill="none" fill-rule="evenodd">
        <g id="What-is-Immediate-Burial" transform="translate(-420.000000, -2768.000000)">
            <g id="Steps" transform="translate(128.000000, 578.000000)">
                <g id="8" transform="translate(0.000000, 2100.000000)">
                    <g id="Icon" transform="translate(292.000000, 90.000000)">
                        <path d="M112.243529,33.1036964 C109.723575,33.1036964 107.371399,34.2066667 105.755876,36.1010561 C104.139042,34.2079868 101.780313,33.1036964 99.268224,33.1036964 C94.5520763,33.1036964 90.7102117,36.9690429 90.7102117,41.7188779 C90.7102117,43.979604 91.5720425,46.1135974 93.1351348,47.7287789 L103.844119,59.4733333 C104.347455,60.0284488 105.027089,60.3294389 105.755876,60.3294389 C106.488596,60.3294389 107.164953,60.0284488 107.668289,59.4733333 L118.373341,47.7333993 C119.941676,46.1155776 120.802852,43.9815842 120.802852,41.7234983 C120.802852,36.9690429 116.961642,33.1036964 112.243529,33.1036964" id="Fill-1" fill="#EDF7FC"></path>
                        <path d="M99.2683551,34.4238284 C95.2718197,34.4238284 92.0204566,37.6964356 92.0204566,41.7188779 C92.0204566,43.6317492 92.7498997,45.4390099 94.0737766,46.8079868 L104.808977,58.5809241 C105.320177,59.1433003 106.19577,59.1406601 106.699761,58.5835644 L117.40809,46.84033 C118.76146,45.4429703 119.491558,43.6363696 119.491558,41.7234983 C119.491558,37.6984158 116.240195,34.4238284 112.24366,34.4238284 C110.127423,34.4238284 108.125223,35.3485809 106.750226,36.9611221 L105.756007,38.1261386 L104.761789,36.9617822 C103.38417,35.3485809 101.382626,34.4238284 99.2683551,34.4238284 M105.755352,61.649571 C104.651029,61.649571 103.628629,61.1934653 102.876247,60.3644224 L92.1698843,48.6218482 C90.3924812,46.7862046 89.3989182,44.3241584 89.3989182,41.7188779 C89.3989182,36.24033 93.8260412,31.7835644 99.2683551,31.7835644 C101.672306,31.7835644 103.970084,32.6621122 105.754697,34.2317492 C107.538654,32.6621122 109.837743,31.7835644 112.24366,31.7835644 C117.685318,31.7835644 122.113097,36.2423102 122.113097,41.7234983 C122.113097,44.330099 121.118223,46.7914851 119.310672,48.6555116 L108.633146,60.3664026 C107.884041,61.1928053 106.861641,61.649571 105.755352,61.649571" id="Fill-3" fill="#7AB1D6"></path>
                        <g id="Group-7" transform="translate(0.000000, 0.019802)">
                            <mask id="mask-2" fill="white">
                                <use xlink:href="#path-1"></use>
                            </mask>
                            <g id="Clip-6"></g>
                            <path d="M211.298163,22.5544554 L144.566901,22.5544554 L149.098886,3.40594059 L170.694464,5.9029703 C171.42063,5.99141914 172.064218,5.46666667 172.146797,4.74257426 C172.229375,4.01782178 171.712932,3.3630363 170.993975,3.27986799 L148.242954,0.648844884 C147.582326,0.576237624 146.972163,1.00462046 146.818147,1.65478548 L131.26587,67.3676568 C131.101369,67.6217822 131.037797,67.9207921 131.065978,68.2125413 L128.776064,77.8877888 L82.4810058,77.8877888 L60.8139905,1.5980198 C60.6350705,0.97029703 60.0183535,0.565676568 59.3872182,0.651485149 L34.3141689,3.88910891 C33.5958674,3.98085809 33.0885997,4.64290429 33.1810089,5.36567657 C33.2721074,6.08976898 33.9353566,6.60726073 34.6471043,6.50693069 L58.6033782,3.41452145 L64.0391382,22.5544554 L1.31096585,22.5544554 C0.586765846,22.5544554 0.000196615384,23.1452145 0.000196615384,23.8745875 C0.000196615384,24.6033003 0.586765846,25.1947195 1.31096585,25.1947195 L9.858492,25.1947195 L2.95270431,32.150495 C2.44019354,32.6660066 2.44019354,33.5016502 2.95270431,34.0171617 C3.20830431,34.2752475 3.54386123,34.4039604 3.87941815,34.4039604 C4.21431969,34.4039604 4.54987662,34.2752475 4.806132,34.0171617 L13.1865351,25.5762376 C13.2992612,25.4627063 13.3824951,25.3320132 13.445412,25.1947195 L19.7679074,25.1947195 L3.12834738,41.9544554 C2.616492,42.469967 2.616492,43.3049505 3.12834738,43.8211221 C3.38460277,44.0785479 3.71950431,44.2079208 4.05506123,44.2079208 C4.39061815,44.2079208 4.72617508,44.0785479 4.98177508,43.8211221 L23.0959505,25.5762376 C23.2086766,25.4627063 23.2919105,25.3320132 23.3548274,25.1947195 L29.6779782,25.1947195 L2.67678738,52.3907591 C2.16427662,52.9062706 2.16427662,53.7419142 2.67678738,54.2574257 C2.93238738,54.5155116 3.26794431,54.6442244 3.60350123,54.6442244 C3.93840277,54.6442244 4.27395969,54.5155116 4.53021508,54.2574257 L33.0060212,25.5762376 C33.1187474,25.4627063 33.2019812,25.3320132 33.2655535,25.1947195 L39.5880489,25.1947195 L3.12834738,61.9174917 C2.616492,62.4330033 2.616492,63.2686469 3.12834738,63.7841584 C3.38460277,64.0422442 3.71950431,64.1709571 4.05506123,64.1709571 C4.39061815,64.1709571 4.72617508,64.0422442 4.98177508,63.7841584 L42.916092,25.5762376 C43.0288182,25.4627063 43.112052,25.3320132 43.1756243,25.1947195 L49.4981197,25.1947195 L3.12834738,71.8983498 C2.616492,72.4138614 2.616492,73.249505 3.12834738,73.7650165 C3.38460277,74.0231023 3.71950431,74.1518152 4.05506123,74.1518152 C4.39061815,74.1518152 4.72617508,74.0231023 4.98177508,73.7650165 L52.8261628,25.5762376 C52.9388889,25.4627063 53.0221228,25.3320132 53.0856951,25.1947195 L59.4081905,25.1947195 L8.37994431,76.590099 C7.86808892,77.1062706 7.86808892,77.9412541 8.37994431,78.4567657 C8.63554431,78.7148515 8.97110123,78.8435644 9.30665815,78.8435644 C9.64221508,78.8435644 9.97711662,78.7148515 10.233372,78.4567657 L62.7362335,25.5762376 C62.8489597,25.4627063 62.9321935,25.3320132 62.9957658,25.1947195 L64.7888982,25.1947195 L65.7962243,28.7412541 L18.2913258,76.590099 C17.7794705,77.1062706 17.7794705,77.9412541 18.2913258,78.4567657 C18.5469258,78.7148515 18.8824828,78.8435644 19.2180397,78.8435644 C19.5535966,78.8435644 19.8884982,78.7148515 20.1447535,78.4567657 L66.6206982,31.6442244 L68.0009382,36.5036304 L28.1994305,76.590099 C27.6875751,77.1062706 27.6875751,77.9412541 28.1994305,78.4567657 C28.4556858,78.7148515 28.7905874,78.8435644 29.1261443,78.8435644 C29.4617012,78.8435644 29.7966028,78.7148515 30.0528582,78.4567657 L68.825412,39.4059406 L70.205652,44.2646865 L38.1088458,76.590099 C37.5969905,77.1062706 37.5969905,77.9412541 38.1088458,78.4567657 C38.3651012,78.7148515 38.7000028,78.8435644 39.0355597,78.8435644 C39.3711166,78.8435644 39.7066735,78.7148515 39.9622735,78.4567657 L71.0301258,47.1676568 L72.4090551,52.0244224 L47.6007812,77.0132013 C47.0882705,77.5287129 47.0882705,78.3643564 47.6007812,78.879868 C47.8563812,79.1379538 48.1919382,79.2666667 48.5274951,79.2666667 C48.8623966,79.2666667 49.1979535,79.1379538 49.4542089,78.879868 L73.2335289,54.9280528 L74.6137689,59.7867987 L57.5429658,76.9808581 C57.0311105,77.4963696 57.0311105,78.3320132 57.5429658,78.8475248 C57.7992212,79.1056106 58.1347782,79.2343234 58.4703351,79.2343234 C58.8052366,79.2343234 59.1407935,79.1056106 59.3970489,78.8475248 L75.4382428,62.689769 L76.8184828,67.5478548 L67.4209228,77.0132013 C66.9090674,77.5287129 66.9090674,78.3650165 67.4209228,78.879868 C67.6765228,79.1379538 68.0120797,79.2666667 68.3476366,79.2666667 C68.6831935,79.2666667 69.0180951,79.1379538 69.2743505,78.879868 L77.6423012,70.4508251 L80.2330366,79.5709571 C80.3936058,80.1372937 80.9080828,80.5280528 81.4926858,80.5280528 L129.810917,80.5280528 C130.417803,80.5280528 130.944732,80.1082508 131.08564,79.5141914 L133.159277,70.7531353 L141.149726,78.8013201 C141.405326,79.0594059 141.740883,79.1881188 142.07644,79.1881188 C142.411997,79.1881188 142.746898,79.0594059 143.003154,78.8013201 C143.515009,78.2858086 143.515009,77.450165 143.003154,76.9346535 L133.87299,67.7386139 L135.067101,62.6937294 L151.027027,78.769637 C151.283283,79.0277228 151.618184,79.1564356 151.953741,79.1564356 C152.289298,79.1564356 152.624855,79.0277228 152.880455,78.769637 C153.39231,78.2541254 153.39231,77.4184818 152.880455,76.9029703 L135.78016,59.6785479 L136.974926,54.6330033 L160.969867,78.8013201 C161.226123,79.0594059 161.561024,79.1881188 161.896581,79.1881188 C162.232138,79.1881188 162.56704,79.0594059 162.823295,78.8013201 C163.33515,78.2858086 163.33515,77.450165 162.823295,76.9346535 L137.68864,51.6178218 L138.882095,46.5729373 L170.461147,78.3788779 C170.717403,78.6369637 171.05296,78.7656766 171.387861,78.7656766 C171.723418,78.7656766 172.058975,78.6369637 172.314575,78.3788779 C172.827086,77.8633663 172.827086,77.0277228 172.314575,76.5122112 L139.91236,43.8772277 C139.812086,43.7755776 139.696738,43.70033 139.576147,43.6382838 L140.78992,38.5141914 L180.370563,78.3788779 C180.626818,78.6369637 180.962375,78.7656766 181.297932,78.7656766 C181.632834,78.7656766 181.96839,78.6369637 182.224646,78.3788779 C182.736501,77.8633663 182.736501,77.0277228 182.224646,76.5122112 L141.502978,35.4983498 L142.697744,30.4528053 L190.279323,78.3788779 C190.534923,78.6369637 190.87048,78.7656766 191.206037,78.7656766 C191.540938,78.7656766 191.876495,78.6369637 192.13275,78.3788779 C192.644606,77.8633663 192.644606,77.0277228 192.13275,76.5122112 L143.410803,27.4369637 L143.945597,25.1788779 C143.998683,25.1848185 144.052424,25.1947195 144.107477,25.1947195 L147.457803,25.1947195 C147.514166,25.2937294 147.579049,25.3894389 147.662938,25.4739274 L200.190704,78.3788779 C200.446304,78.6369637 200.781861,78.7656766 201.117418,78.7656766 C201.452975,78.7656766 201.787877,78.6369637 202.044132,78.3788779 C202.555987,77.8633663 202.555987,77.0277228 202.044132,76.5122112 L151.093221,25.1947195 L157.367874,25.1947195 C157.424237,25.2937294 157.48912,25.3894389 157.573009,25.4739274 L205.441646,73.6871287 C205.697901,73.9445545 206.033458,74.0739274 206.36836,74.0739274 C206.703917,74.0739274 207.039474,73.9445545 207.295729,73.6871287 C207.807584,73.1709571 207.807584,72.3359736 207.295729,71.820462 L161.003292,25.1947195 L167.277944,25.1947195 C167.334307,25.2937294 167.39919,25.3894389 167.48308,25.4739274 L205.441646,63.7062706 C205.697901,63.9636964 206.033458,64.0930693 206.36836,64.0930693 C206.703917,64.0930693 207.039474,63.9636964 207.295729,63.7062706 C207.807584,63.190099 207.807584,62.3551155 207.295729,61.839604 L170.913363,25.1947195 L177.188015,25.1947195 C177.244378,25.2937294 177.309917,25.3894389 177.393806,25.4739274 L205.893861,54.179538 C206.150117,54.4376238 206.485018,54.5663366 206.820575,54.5663366 C207.156132,54.5663366 207.491034,54.4376238 207.747289,54.179538 C208.259144,53.6640264 208.259144,52.8283828 207.747289,52.3128713 L180.823434,25.1947195 L187.098086,25.1947195 C187.154449,25.2937294 187.219987,25.3894389 187.303877,25.4739274 L205.441646,43.7432343 C205.697901,44.0006601 206.033458,44.1293729 206.36836,44.1293729 C206.703917,44.1293729 207.039474,44.0006601 207.295729,43.7432343 C207.807584,43.2270627 207.807584,42.3920792 207.295729,41.8759076 L190.733504,25.1947195 L197.008157,25.1947195 C197.06452,25.2937294 197.130058,25.3894389 197.213947,25.4739274 L205.617944,33.9392739 C205.8742,34.1973597 206.209101,34.3260726 206.544658,34.3260726 C206.880215,34.3260726 207.215772,34.1973597 207.471372,33.9392739 C207.983227,33.4244224 207.983227,32.5881188 207.471372,32.0726073 L200.643575,25.1947195 L211.298163,25.1947195 C212.021707,25.1947195 212.608932,24.6033003 212.608932,23.8745875 C212.608932,23.1452145 212.021707,22.5544554 211.298163,22.5544554" id="Fill-5" fill="#7AB1D6" mask="url(#mask-2)"></path>
                        </g>
                    </g>
                </g>
            </g>
        </g>
    </g>
</svg>