<?xml version="1.0" encoding="UTF-8" standalone="no"?>
<svg width="262px" height="84px" viewBox="0 0 262 84" version="1.1" xmlns="http://www.w3.org/2000/svg" xmlns:xlink="http://www.w3.org/1999/xlink">
    <!-- Generator: Sketch 3.6.1 (26313) - http://www.bohemiancoding.com/sketch -->
    <title>Icon</title>
    <desc>Created with Sketch.</desc>
    <defs></defs>
    <g id="Desktop" stroke="none" stroke-width="1" fill="none" fill-rule="evenodd">
        <g id="What-is-Direct-Cremation" transform="translate(-413.000000, -2762.000000)">
            <g id="Steps" transform="translate(128.000000, 578.000000)">
                <g id="8" transform="translate(0.000000, 2100.000000)">
                    <g id="Icon" transform="translate(285.000000, 84.000000)">
                        <path d="M164.243622,72.904434 C159.083595,72.904434 154.911887,68.739583 154.911887,63.5887745 C154.911887,61.7544766 155.44842,60.0506468 156.362734,58.6101362 C161.856975,58.5612851 167.110105,58.5136255 172.039764,58.4689447 C173.009581,59.9374553 173.577149,61.6954979 173.577149,63.5887745 C173.577149,68.739583 169.40544,72.904434 164.243622,72.904434 L164.243622,72.904434 Z M139.101768,30.9681787 L139.101768,16.8645191 C139.101768,16.0882638 138.582543,15.4591574 137.942164,15.4591574 L125.262319,15.4591574 C124.621941,15.4591574 124.102119,16.0882638 124.102119,16.8645191 L124.102119,30.9681787 L107.361572,30.9681787 L107.361572,8.78562553 L151.786985,8.78562553 C153.383454,8.78562553 156.229048,10.5371149 156.939253,11.9728596 L164.684069,30.9681787 L139.101768,30.9681787 Z M137.401454,42.7460511 L133.193937,47.3207745 C132.996392,47.536434 132.729021,47.6532 132.441358,47.6532 C132.154889,47.6532 131.888114,47.536434 131.689376,47.3207745 L127.480666,42.7454553 C126.867144,42.1145617 126.528155,41.2840936 126.528155,40.403583 C126.528155,38.5532 128.038684,37.0477532 129.891782,37.0477532 C130.87831,37.0477532 131.806351,37.4766894 132.441358,38.214817 C133.075768,37.4766894 134.001422,37.0477532 134.992128,37.0477532 C136.845823,37.0477532 138.356351,38.5532 138.356351,40.4047745 C138.356351,41.2852851 138.017363,42.1157532 137.401454,42.7460511 L137.401454,42.7460511 Z M96.1480916,30.9681787 L49.8952442,30.9681787 L66.3916952,12.3076681 C67.408661,10.7057106 72.9769071,8.78562553 74.8813308,8.78562553 L96.1480916,8.78562553 L96.1480916,30.9681787 Z M38.4758638,72.904434 C33.314046,72.904434 29.1435312,68.739583 29.1435312,63.5887745 C29.1435312,62.1083489 29.4974401,60.7149021 30.1103649,59.4733702 C35.2041462,59.4620511 40.814169,59.4412 46.8121189,59.4132 C47.4441417,60.6702213 47.8075995,62.0851149 47.8075995,63.5887745 C47.8075995,68.739583 43.6364879,72.904434 38.4758638,72.904434 L38.4758638,72.904434 Z M212.550096,31.3274128 L175.418907,22.1213702 C175.418907,22.1213702 165.724907,4.81081702 162.748014,2.69294468 C159.772315,0.576859574 72.6498547,0.400519149 63.9841599,4.10605106 C60.9213262,5.41430638 42.1605745,26.6817957 39.9905699,28.356434 C37.8193718,30.0298809 13.7511804,30.7358383 10.9193125,32.6356681 C7.74189112,35.3224766 0.225654214,58.2532851 1.29752665,59.2279234 C1.49387745,59.4066468 8.67769066,59.4811149 20.2713399,59.4846894 C19.9735312,60.8054553 19.8106018,62.1780511 19.8106018,63.5887745 C19.8106018,73.8725191 28.171923,82.2194979 38.4758638,82.2194979 C48.7774173,82.2194979 57.1387385,73.8725191 57.1387385,63.5887745 C57.1387385,62.1351574 56.9662601,60.7226468 56.6505472,59.3637532 C84.1450301,59.214817 117.533618,58.9491149 146.235449,58.6989021 C145.811117,60.257966 145.580748,61.8962638 145.580748,63.5887745 C145.580748,73.8725191 153.941472,82.2194979 164.243622,82.2194979 C174.547563,82.2194979 182.908884,73.8725191 182.908884,63.5887745 C182.908884,61.7783064 182.645094,60.0303915 182.161677,58.3742213 C199.732388,58.2097957 211.205481,58.0942213 211.205481,58.0942213 C211.210256,58.0960085 217.095408,36.7439234 212.550096,31.3274128 L212.550096,31.3274128 Z" id="Fill-1" fill="#EEF7FC"></path>
                        <path d="M210.294867,56.9117872 C198.278676,57.0315319 70.5820241,58.2927234 21.1010264,58.2927234 L21.089687,58.2927234 C8.77807426,58.2927234 4.1187713,58.2140851 2.43098998,58.1414043 C3.03197859,53.9378298 9.03529977,35.970766 11.6367986,33.5919574 C12.9957371,32.7984255 20.6975822,32.076383 26.3416232,31.5479574 C35.4137462,30.6978298 39.5156278,30.2277872 40.7199923,29.2984255 C41.5501563,28.6585957 44.0173727,26.023617 48.3066528,21.4214894 C53.7054046,15.6278723 62.7417189,5.93212766 64.4539695,5.20114894 C68.335031,3.54140426 92.4044159,2.3832766 122.986202,2.3832766 C146.226616,2.3832766 160.421168,3.05944681 162.108352,3.70285106 C164.178689,5.28217021 170.711382,16.1568936 174.376398,22.7023404 C174.538133,22.9900851 174.810876,23.198 175.130767,23.2778298 L211.851947,32.382 C214.587131,36.4598723 212.088284,50.2287234 210.294867,56.9117872 M171.363099,59.6653191 C172.010042,60.8294043 172.383646,62.1650638 172.383646,63.5888936 C172.383646,68.0688936 168.73176,71.7130638 164.243742,71.7130638 C159.75632,71.7130638 156.105628,68.0688936 156.105628,63.5888936 C156.105628,62.2180851 156.451778,60.9282979 157.055154,59.7951915 C162.048074,59.7505106 166.838676,59.7064255 171.363099,59.6653191 M181.715382,63.5888936 C181.715382,73.2048085 173.877464,81.0275319 164.243742,81.0275319 C154.610616,81.0275319 146.773892,73.2048085 146.773892,63.5888936 C146.773892,62.3157872 146.91832,61.077234 147.17853,59.8815745 C149.633213,59.8601277 152.056862,59.8392766 154.433364,59.8184255 C153.979787,60.9902553 153.718384,62.258 153.718384,63.5888936 C153.718384,69.3825106 158.439755,74.0960426 164.243742,74.0960426 C170.047728,74.0960426 174.77089,69.3825106 174.77089,63.5888936 C174.77089,62.1930638 174.494566,60.8609787 173.99802,59.6414894 C176.50761,59.6182553 178.927678,59.595617 181.245692,59.5741702 C181.551259,60.8639574 181.715382,62.2073617 181.715382,63.5888936 M30.3372724,63.5888936 C30.3372724,62.5576596 30.5336232,61.5711064 30.8863385,60.6625957 C35.51222,60.6512766 40.5558692,60.6328085 45.9235868,60.608383 C46.2446711,61.506766 46.614097,62.7274468 46.614097,63.5888936 C46.614097,68.0688936 42.9634046,71.7130638 38.4753863,71.7130638 C33.9879649,71.7130638 30.3372724,68.0688936 30.3372724,63.5888936 M38.4753863,81.0275319 C28.842261,81.0275319 21.0043431,73.2048085 21.0043431,63.5888936 C21.0043431,62.5951915 21.0974456,61.6241277 21.2579877,60.6757021 C23.4787212,60.6757021 25.8570128,60.6727234 28.371974,60.6685532 C28.1022155,61.5961277 27.9500287,62.5749362 27.9500287,63.5888936 C27.9500287,69.3825106 32.6719968,74.0960426 38.4753863,74.0960426 C44.2793727,74.0960426 49.0013408,69.3825106 49.0013408,63.5888936 C49.0013408,62.5481277 48.8413954,61.5460851 48.5579103,60.5964681 C50.878908,60.5851489 53.2536187,60.573234 55.6778647,60.5601277 C55.8509399,61.5442979 55.945236,62.5558723 55.945236,63.5888936 C55.945236,73.2048085 48.1085116,81.0275319 38.4753863,81.0275319 M213.465127,30.5625957 C213.303391,30.368383 213.083764,30.2319574 212.838475,30.1705957 L176.207414,21.0890638 C174.437272,17.9488936 166.366001,3.80353191 163.440434,1.72259574 C161.193441,0.123617021 131.907928,0.000297872341 122.986202,0.000297872341 C98.7998419,0.000297872341 68.7116187,0.788468085 63.5145891,3.01 C61.4943841,3.87382979 55.2123522,10.5128085 46.5585936,19.7980851 C43.173482,23.4309362 39.975769,26.8618298 39.278097,27.4009787 C38.2623248,28.0366383 31.2432314,28.6949362 26.1184159,29.1751064 C17.3082929,30.0014043 11.843892,30.5798723 10.2533909,31.6468511 C10.2169854,31.6718723 10.1811768,31.6980851 10.1477554,31.7266809 C6.77577358,34.5779149 0.0634410023,55.1948511 0.000775854214,58.6918723 C-0.00698268793,59.1011489 0.0359876993,59.6933191 0.493741686,60.1085532 C0.953882916,60.526766 1.1168123,60.6649787 18.8343385,60.6751064 C18.6934911,61.6265106 18.6170993,62.598766 18.6170993,63.5888936 C18.6170993,74.5190213 27.5256961,83.4105106 38.4753863,83.4105106 C49.4244797,83.4105106 58.3324797,74.5190213 58.3324797,63.5888936 C58.3324797,62.5546809 58.2489262,61.5395319 58.0955458,60.5470213 C84.8010446,60.3986809 116.867696,60.1442979 144.743541,59.9030213 C144.51735,61.0986809 144.386648,62.3282979 144.386648,63.5888936 C144.386648,74.5190213 153.294648,83.4105106 164.243742,83.4105106 C175.194029,83.4105106 184.102626,74.5190213 184.102626,63.5888936 C184.102626,62.2049787 183.952229,60.8562128 183.68068,59.5515319 C200.10253,59.397234 210.837368,59.2894043 211.218133,59.285234 C211.601286,59.2816596 211.960566,59.0934043 212.181386,58.7800426 C212.295974,58.6185957 218.521309,36.5879574 213.465127,30.5625957" id="Fill-3" fill="#7AB1D6"></path>
                        <path d="M248.708722,68.9802638 L210.626813,68.9802638 C209.967934,68.9802638 209.433191,68.4464766 209.433191,67.7887745 C209.433191,67.1310723 209.967934,66.5972851 210.626813,66.5972851 L248.708722,66.5972851 C249.367601,66.5972851 249.902344,67.1310723 249.902344,67.7887745 C249.902344,68.4464766 249.367601,68.9802638 248.708722,68.9802638" id="Fill-5" fill="#7AB1D6"></path>
                        <path d="M260.345342,60.5805021 L222.263433,60.5805021 C221.604554,60.5805021 221.069811,60.0467149 221.069811,59.3890128 C221.069811,58.7313106 221.604554,58.1975234 222.263433,58.1975234 L260.345342,58.1975234 C261.004221,58.1975234 261.538964,58.7313106 261.538964,59.3890128 C261.538964,60.0467149 261.004221,60.5805021 260.345342,60.5805021" id="Fill-7" fill="#7AB1D6"></path>
                        <path d="M115.906055,42.3905106 L12.2853531,42.3905106 C11.625877,42.3905106 11.0917312,41.8567234 11.0917312,41.1990213 C11.0917312,40.5413191 11.625877,40.0075319 12.2853531,40.0075319 L115.906055,40.0075319 C116.564934,40.0075319 117.099677,40.5413191 117.099677,41.1990213 C117.099677,41.8567234 116.564934,42.3905106 115.906055,42.3905106" id="Fill-9" fill="#7AB1D6"></path>
                        <path d="M206.236672,42.3905106 L149.132608,42.3905106 C148.473729,42.3905106 147.938986,41.8567234 147.938986,41.1990213 C147.938986,40.5413191 148.473729,40.0075319 149.132608,40.0075319 L206.236672,40.0075319 C206.895551,40.0075319 207.430294,40.5413191 207.430294,41.1990213 C207.430294,41.8567234 206.895551,42.3905106 206.236672,42.3905106" id="Fill-11" fill="#7AB1D6"></path>
                        <path d="M52.5409071,29.7769277 L94.9544697,29.7769277 L94.9544697,9.97735319 L74.8813308,9.97735319 C73.1464014,9.97735319 68.0818638,11.8706298 67.3997089,12.9453532 C67.3662875,12.9983745 67.3280916,13.0490128 67.2869116,13.0960766 L52.5409071,29.7769277 Z M96.1480916,32.1599064 L49.8952442,32.1599064 C49.4261508,32.1599064 49.0000278,31.8852681 48.8072579,31.4581191 C48.6144879,31.0309702 48.6902829,30.5317362 49.0000278,30.1802468 L65.4445563,11.5781191 C66.8936132,9.50790638 72.7536998,7.59437447 74.8813308,7.59437447 L96.1480916,7.59437447 C96.8075677,7.59437447 97.3417134,8.12756596 97.3417134,8.78586383 L97.3417134,30.968417 C97.3417134,31.6261191 96.8075677,32.1599064 96.1480916,32.1599064 L96.1480916,32.1599064 Z" id="Fill-13" fill="#7AB1D6"></path>
                        <path d="M129.89208,38.2389447 C128.695474,38.2389447 127.721479,39.2100085 127.721479,40.4038809 C127.721479,40.970434 127.939912,41.5072 128.337388,41.9152851 L132.44106,46.3762213 L136.522053,41.9403064 C136.943998,41.5077957 137.163028,40.9716255 137.163028,40.4050723 C137.163028,39.2106043 136.189032,38.2389447 134.992426,38.2389447 C134.35742,38.2389447 133.758221,38.5129872 133.347019,38.9907745 C132.893442,39.5174128 131.989274,39.5174128 131.535697,38.9907745 C131.124495,38.5129872 130.525893,38.2389447 129.89208,38.2389447 M132.44106,48.8449872 C131.816199,48.8449872 131.237292,48.5900085 130.810572,48.1271149 L126.601265,43.5512 C125.792586,42.7201362 125.334235,41.5941787 125.334235,40.4038809 C125.334235,37.8963915 127.378909,35.855966 129.89208,35.855966 C130.811169,35.855966 131.69624,36.1312 132.44106,36.6334128 C133.186477,36.1312 134.072144,35.855966 134.992426,35.855966 C137.505597,35.855966 139.550272,37.8969872 139.550272,40.4050723 C139.550272,41.5971574 139.090727,42.7237106 138.256385,43.5780085 L134.073338,48.1265191 C133.649602,48.588817 133.069502,48.8449872 132.44106,48.8449872" id="Fill-15" fill="#7AB1D6"></path>
                        <path d="M140.238335,29.7769277 C140.274144,29.6148851 140.295629,29.4468851 140.295629,29.2741191 L140.295629,16.6163319 C140.295629,15.321183 139.23987,14.2679064 137.941806,14.2679064 L125.261961,14.2679064 C123.963897,14.2679064 122.908736,15.321183 122.908736,16.6163319 L122.908736,29.2741191 C122.908736,29.4468851 122.930221,29.6148851 122.96603,29.7769277 L108.555433,29.7769277 L108.555433,9.97735319 L151.787223,9.97735319 C152.914002,9.97735319 155.316763,11.4548 155.852103,12.467566 L162.909392,29.7769277 L140.238335,29.7769277 Z M125.261961,16.6508851 L137.908385,16.6163319 L137.908385,29.2401617 L125.295979,29.2741191 L125.261961,16.6508851 Z M165.72992,30.3720766 L158.044786,11.5233106 C158.033446,11.4965021 158.022107,11.4708851 158.009574,11.4452681 C157.101825,9.60918298 153.845624,7.59437447 151.787223,7.59437447 L107.361811,7.59437447 C106.702932,7.59437447 106.168189,8.12756596 106.168189,8.78586383 L106.168189,30.968417 C106.168189,31.6261191 106.702932,32.1599064 107.361811,32.1599064 L164.684308,32.1599064 C164.688485,32.1605021 164.69326,32.1605021 164.695647,32.1599064 C165.35572,32.1599064 165.889269,31.6261191 165.889269,30.968417 C165.889269,30.751566 165.831975,30.5478213 165.72992,30.3720766 L165.72992,30.3720766 Z" id="Fill-17" fill="#7AB1D6"></path>
                        <path d="M45.459626,59.4259404 L45.6183777,58.9259404 L48.1327421,59.413305" id="Fill-19" fill="#7AB1D6"></path>
                    </g>
                </g>
            </g>
        </g>
    </g>
</svg>