<?xml version="1.0" encoding="UTF-8" standalone="no"?>
<svg width="264px" height="116px" viewBox="0 0 264 116" version="1.1" xmlns="http://www.w3.org/2000/svg" xmlns:xlink="http://www.w3.org/1999/xlink">
    <!-- Generator: Sketch 3.6.1 (26313) - http://www.bohemiancoding.com/sketch -->
    <title>Icon</title>
    <desc>Created with Sketch.</desc>
    <defs>
        <path id="path-1" d="M80.0386792,0.435465241 L0.256271663,0.435465241 L0.256271663,97.6862053 L80.0386792,97.6862053 L80.0386792,0.435465241 L80.0386792,0.435465241 Z"></path>
        <path id="path-3" d="M263.987635,0.309354011 L263.987635,19.2299465 L0,19.2299465 L0,0.309354011 L263.987635,0.309354011 L263.987635,0.309354011 Z"></path>
    </defs>
    <g id="Desktop" stroke="none" stroke-width="1" fill="none" fill-rule="evenodd">
        <g id="What-is-Immediate-Burial" transform="translate(-403.000000, -3045.000000)">
            <g id="Steps" transform="translate(128.000000, 578.000000)">
                <g id="8" transform="translate(0.000000, 2400.000000)">
                    <g id="Icon" transform="translate(275.000000, 67.000000)">
                        <path d="M63.3196272,104.397953 L63.3196272,42.9762631 C63.3196272,42.5643701 63.7616881,1.85705455 101.974297,1.85705455 C140.187524,1.85705455 140.628967,42.5643701 140.628967,42.9762631 L140.628967,98.8150652 C108.481557,98.8150652 63.3196272,104.397953 63.3196272,104.397953" id="Fill-1" fill="#EDF7FC"></path>
                        <path d="M148.187652,98.9774652 C148.187652,98.9774652 144.656111,74.0262995 161.998499,59.2366096" id="Fill-3" fill="#FEFEFE"></path>
                        <path d="M150.349175,95.874 C150.349175,95.874 149.935554,79.3101925 169.251451,79.798385 C169.251451,79.798385 166.33014,95.1110053 150.349175,95.874" id="Fill-5" fill="#EDF7FC"></path>
                        <path d="M163.78863,60.815016 C166.523843,63.1511444 171.79766,61.878246 174.566878,58.6947594 C175.702634,57.3902246 178.272152,54.7873583 179.176676,51.7496471 C179.292911,51.3520214 179.412236,51.1777112 179.057351,50.875615 C178.892274,50.7335615 178.660423,50.6802139 178.454541,50.7664385 C177.78063,51.0505455 173.478728,51.9884706 173.240695,52.0908235 C172.950728,52.2167487 172.704658,52.0430588 172.800489,51.7149091 C172.874063,51.4642995 173.776114,47.6152086 173.944901,46.9024599 C173.997454,46.6853476 173.909042,46.463893 173.745819,46.3243209 C173.578269,46.1810267 173.348892,46.1307807 173.143009,46.216385 C172.467861,46.4967701 168.826269,48.006631 168.591327,48.1189091 C168.28343,48.2659251 168.070747,48.0494332 168.149267,47.7411337 C168.21233,47.4892834 168.463346,43.0645348 168.633988,42.3493048 C168.685922,42.1328128 168.596892,41.9144599 168.432433,41.7717861 C168.077548,41.4690695 167.922981,41.6142246 167.553257,41.7934973 C164.708611,43.1724706 162.254709,46.5035936 161.44107,47.4818396 C158.741098,50.7254973 158.339843,56.1607487 161.075056,58.496877 L163.78863,60.815016 Z" id="Fill-7" fill="#EDF7FC"></path>
                        <g id="Group-11" transform="translate(61.826698, 0.184856)">
                            <mask id="mask-2" fill="white">
                                <use xlink:href="#path-1"></use>
                            </mask>
                            <g id="Clip-10"></g>
                            <path d="M35.3219016,3.14868663 L35.0758314,0.679809626 C36.510829,0.535274866 38.0033255,0.452772193 39.511897,0.435403209 L39.5409555,2.91668663 C38.1047213,2.93343529 36.6851803,3.0109754 35.3219016,3.14868663 L35.3219016,3.14868663 Z M47.9419672,3.55251551 C46.5972365,3.31927487 45.1919157,3.14806631 43.7649555,3.04261176 L43.9461077,0.568772193 C45.4534426,0.679809626 46.9391382,0.860943316 48.3636253,1.10783102 L47.9419672,3.55251551 Z M27.1199719,4.84774545 L26.3508478,2.4905262 C27.7370023,2.03459037 29.190548,1.64999144 30.6719157,1.34603422 L31.1677658,3.77645134 C29.7785199,4.06179893 28.4164778,4.42220535 27.1199719,4.84774545 L27.1199719,4.84774545 Z M55.9584169,5.90105027 C54.7027166,5.35951016 53.3796253,4.88620535 52.0268571,4.4923016 L52.7149883,2.10902888 C54.1660609,2.53084706 55.5849836,3.03951016 56.9340422,3.62137112 L55.9584169,5.90105027 Z M19.6117377,8.43382032 L18.2626792,6.35450481 C19.5060141,5.54188449 20.8253958,4.80184171 22.1843466,4.15422674 L23.245911,6.39544599 C21.9858829,6.99591658 20.7629508,7.68199144 19.6117377,8.43382032 L19.6117377,8.43382032 Z M63.0901265,10.1769219 C62.0063044,9.30909305 60.8550913,8.50825882 59.668637,7.79799144 L60.9367026,5.6671893 C62.21837,6.43514652 63.4623232,7.29925348 64.6333208,8.23717861 L63.0901265,10.1769219 Z M13.3159251,13.8852 L11.4685433,12.2351465 C12.4713724,11.1043016 13.5477752,10.0385904 14.6686932,9.06716791 L16.2854614,10.9436385 C15.2467728,11.845585 14.2476534,12.8343765 13.3159251,13.8852 L13.3159251,13.8852 Z M68.862267,16.2076813 C68.0208056,15.0724941 67.1131897,13.9931358 66.1647681,13.0006225 L67.9497049,11.2835743 C68.9698454,12.3505262 69.9442342,13.5092856 70.846904,14.7269754 L68.862267,16.2076813 Z M8.53424824,20.7862695 L6.35918501,19.6045583 C7.07884778,18.2696278 7.86651991,16.9818417 8.69747073,15.775938 L10.7315691,17.1890289 C9.95069789,18.3198738 9.21186885,19.5294995 8.53424824,20.7862695 L8.53424824,20.7862695 Z M73.0973958,23.4914888 C72.5063326,22.1826118 71.8577705,20.9159166 71.1702576,19.7280021 L73.3088431,18.4811572 C74.0377799,19.7416492 74.7252927,21.0827829 75.3503607,22.4679594 L73.0973958,23.4914888 Z M5.24630445,28.5967294 L2.89194379,27.8386973 C3.35069789,26.4032749 3.86880562,24.9932856 4.43266511,23.646569 L6.71283372,24.607446 C6.17679625,25.8871679 5.6834192,27.2295422 5.24630445,28.5967294 L5.24630445,28.5967294 Z M75.8888712,31.515339 C75.5315129,30.1264406 75.1185105,28.7542909 74.6628478,27.4367294 L76.9980422,26.6228684 C77.4771991,28.0030824 77.9093677,29.4409861 78.2834192,30.8950182 L75.8888712,31.515339 Z M3.2981452,36.8966225 L0.855372365,36.5138845 C1.08351288,35.0462053 1.36977049,33.574184 1.70610773,32.1381412 L4.11363934,32.7057348 C3.79152225,34.0803658 3.51762998,35.4909754 3.2981452,36.8966225 L3.2981452,36.8966225 Z M77.3813677,39.9169647 C77.2465855,38.5373711 77.04874,37.1137348 76.7952506,35.6869968 L79.2299859,35.2509112 C79.4946042,36.7415422 79.7011054,38.229692 79.8426885,39.6750396 L77.3813677,39.9169647 Z M2.72933958,45.4210717 L0.256271663,45.4210717 L0.256271663,42.7915316 C0.256271663,42.7859487 0.258744731,42.1302695 0.34282904,40.9597241 L2.80971429,41.1377561 C2.73366745,42.1941626 2.72933958,42.7871893 2.72933958,42.7927722 L2.72933958,45.4210717 Z M77.5656112,48.5220556 L80.0386792,48.5220556 L80.0386792,44.1667829 L77.5656112,44.1667829 L77.5656112,48.5220556 Z M0.256271663,54.1316171 L2.72933958,54.1316171 L2.72933958,49.7763444 L0.256271663,49.7763444 L0.256271663,54.1316171 Z M77.5656112,57.2326011 L80.0386792,57.2326011 L80.0386792,52.8773283 L77.5656112,52.8773283 L77.5656112,57.2326011 Z M0.256271663,62.8421626 L2.72933958,62.8421626 L2.72933958,58.4868898 L0.256271663,58.4868898 L0.256271663,62.8421626 Z M77.5656112,65.9437668 L80.0386792,65.9437668 L80.0386792,61.5884941 L77.5656112,61.5884941 L77.5656112,65.9437668 Z M0.256271663,71.5533283 L2.72933958,71.5533283 L2.72933958,67.1980556 L0.256271663,67.1980556 L0.256271663,71.5533283 Z M77.5656112,74.6549326 L80.0386792,74.6549326 L80.0386792,70.2996599 L77.5656112,70.2996599 L77.5656112,74.6549326 Z M0.256271663,80.2644941 L2.72933958,80.2644941 L2.72933958,75.9092214 L0.256271663,75.9092214 L0.256271663,80.2644941 Z M77.5656112,83.3648578 L80.0386792,83.3648578 L80.0386792,79.009585 L77.5656112,79.009585 L77.5656112,83.3648578 Z M0.256271663,88.9750396 L2.72933958,88.9750396 L2.72933958,84.6197668 L0.256271663,84.6197668 L0.256271663,88.9750396 Z M77.5656112,92.0760235 L80.0386792,92.0760235 L80.0386792,87.7207508 L77.5656112,87.7207508 L77.5656112,92.0760235 Z M0.256271663,97.6862053 L2.72933958,97.6862053 L2.72933958,93.3309326 L0.256271663,93.3309326 L0.256271663,97.6862053 Z" id="Fill-9" fill="#7AB1D6" mask="url(#mask-2)"></path>
                        </g>
                        <g id="Group-14" transform="translate(0.000000, 96.334588)">
                            <mask id="mask-4" fill="white">
                                <use xlink:href="#path-3"></use>
                            </mask>
                            <g id="Clip-13"></g>
                            <path d="M263.006012,16.7745305 C262.309225,16.6275144 196.197319,2.7689262 141.865253,1.35707594 L141.865253,0.309354011 L139.392185,0.309354011 L139.392185,1.2429369 C139.081197,1.24417754 138.768972,1.2460385 138.455511,1.24789947 L138.455511,1.28325775 C136.698396,1.25534332 134.955502,1.23983529 133.229919,1.23983529 C111.517619,1.23983529 86.7455157,3.57906524 64.5559138,6.44060535 L64.5559138,5.89224171 L62.0828459,5.89224171 L62.0828459,6.76317219 C28.5060028,11.1904021 1.44136581,16.680862 0.990030913,16.7726695 C0.321066042,16.9097604 -0.111102576,17.5648193 0.0249161593,18.2366267 C0.161553162,18.9078139 0.814443091,19.3426588 1.48402623,19.2043273 C2.24078501,19.0492471 77.7991925,3.72111872 133.229919,3.72111872 C188.650134,3.72111872 261.763914,19.0473861 262.49656,19.2024663 C262.581881,19.2204556 262.66782,19.2291401 262.752523,19.2291401 C263.325038,19.2291401 263.838818,18.8290332 263.961235,18.2440706 C264.101581,17.5741241 263.674359,16.9159636 263.006012,16.7745305" id="Fill-12" fill="#7AB1D6" mask="url(#mask-4)"></path>
                        </g>
                        <path d="M82.630207,47.496293 L120.13861,47.496293" id="Fill-15" fill="#FEFEFE"></path>
                        <path d="M120.13861,48.7369348 L82.630207,48.7369348 C81.9476403,48.7369348 81.3936731,48.1811273 81.3936731,47.496293 C81.3936731,46.8108385 81.9476403,46.2556513 82.630207,46.2556513 L120.13861,46.2556513 C120.821177,46.2556513 121.375144,46.8108385 121.375144,47.496293 C121.375144,48.1811273 120.821177,48.7369348 120.13861,48.7369348" id="Fill-17" fill="#7AB1D6"></path>
                        <path d="M88.7561199,56.180785 L114.012944,56.180785" id="Fill-19" fill="#FEFEFE"></path>
                        <path d="M114.012697,57.4214267 L88.7558726,57.4214267 C88.0733059,57.4214267 87.5193386,56.8656193 87.5193386,56.180785 C87.5193386,55.4953305 88.0733059,54.9401433 88.7558726,54.9401433 L114.012697,54.9401433 C114.695882,54.9401433 115.249231,55.4953305 115.249231,56.180785 C115.249231,56.8656193 114.695882,57.4214267 114.012697,57.4214267" id="Fill-21" fill="#7AB1D6"></path>
                        <path d="M174.098108,57.3571615 C173.927466,57.5488406 173.771663,57.7225305 173.635026,57.8788513 C172.128927,59.6107872 169.628656,60.7738888 167.412169,60.7738888 L167.412169,60.7738888 C166.607185,60.7738888 165.464009,60.6169476 164.590398,59.8707016 L162.986614,58.5004128 C162.96992,58.4780813 162.958173,58.4545091 162.940244,58.4327979 C162.828337,58.3006695 162.694173,58.1976963 162.547644,58.1251187 L161.876206,57.5519422 C159.790173,55.7697604 160.049227,51.0894396 162.390604,48.2762845 C162.485817,48.1621455 162.602052,48.0163701 162.738689,47.8470225 C163.614773,46.7558781 165.32119,44.6306588 167.260075,43.3807123 C167.202576,44.0121989 167.136422,44.8626588 167.05481,45.980477 C167.009059,46.6063807 166.957742,47.3123059 166.935485,47.5008834 C166.832234,47.9810118 166.934248,48.4617604 167.218651,48.8296107 C167.651438,49.3878995 168.452712,49.5597283 169.117967,49.2415037 C169.270061,49.1714075 170.390979,48.7024449 172.452281,47.8457818 C172.15304,49.1161989 171.672646,51.152092 171.613911,51.3654824 C171.467382,51.8673219 171.550848,52.3809476 171.843906,52.7723701 C172.250108,53.3163914 173.013667,53.5124128 173.66903,53.2556 C173.852037,53.2041134 174.518529,53.0465519 175.110211,52.9069797 C176.212581,52.6470652 177.049714,52.4460813 177.667363,52.2872791 C176.789424,54.3504663 175.137415,56.1965412 174.098108,57.3571615 M155.694155,85.5091829 C158.460281,82.6761775 162.479016,81.1737604 167.64711,81.0385305 C166.535466,84.5923487 162.697883,93.339493 151.666763,94.5286481 C151.886867,92.5126053 152.701742,88.5741882 155.694155,85.5091829 M179.860356,49.9319209 C179.341012,49.4865305 178.603419,49.361846 177.976496,49.6217604 C177.617283,49.7675358 175.618426,50.2389797 174.544496,50.4920706 C174.480197,50.5069583 174.41837,50.5212257 174.359016,50.535493 C174.508019,49.9046267 174.710192,49.0492043 174.97852,47.9078139 L175.14607,47.1944449 C175.307438,46.5288406 175.078061,45.833461 174.547588,45.3793861 C174.028244,44.9352364 173.288796,44.8136535 172.669293,45.069846 L172.304515,45.2218246 C171.03645,45.7478567 170.138726,46.1219102 169.505002,46.3861668 C169.510567,46.3148299 169.516131,46.2397711 169.521696,46.1616107 C169.60207,45.0611615 169.752309,43.0122417 169.835775,42.6388086 C169.994052,41.9806481 169.765911,41.2883701 169.232347,40.826231 C168.861386,40.5098674 168.478061,40.3560278 168.060731,40.3560278 C167.645874,40.3560278 167.328703,40.5179316 167.11911,40.6240064 L167.015241,40.6761134 C164.240459,42.0215893 161.925049,44.9048406 160.812787,46.2906374 C160.687279,46.4469583 160.5797,46.5815679 160.491906,46.6864021 C157.571831,50.1955572 156.830529,56.2486481 160.106108,59.2764342 C143.690501,74.4048193 146.818314,98.1283701 146.962988,99.1518995 C147.0514,99.7709797 147.580019,100.218231 148.18592,100.218231 C148.244037,100.218231 148.302155,100.214509 148.361508,100.205825 C149.037892,100.109675 149.508393,99.4812898 149.411944,98.8032791 C149.406998,98.7660599 149.329714,98.1773754 149.258614,97.1681134 L150.407972,97.1135251 C167.167335,96.3126909 170.434876,80.1948941 170.465789,80.0317497 L170.739681,78.5944663 L169.283044,78.5584877 C168.991222,78.5504235 168.704965,78.5473219 168.422417,78.5473219 C162.174829,78.5473219 157.289902,80.3133754 153.904272,83.7970973 C150.118005,87.692092 149.318585,92.6081348 149.154126,94.7860813 C149.002651,87.4383807 150.205799,71.6071722 161.986876,60.9053968 L162.987232,61.7601989 C164.132262,62.7378246 165.661855,63.2551722 167.412169,63.2551722 L167.412169,63.2551722 C170.345845,63.2551722 173.51941,61.7856321 175.497864,59.5109155 C175.627082,59.3620385 175.775466,59.1970332 175.93807,59.0152791 C177.263635,57.5339529 179.483213,55.0545305 180.363007,52.0999422 L180.39763,51.9858032 C180.506445,51.6421455 180.795176,50.7284128 179.860356,49.9319209" id="Fill-23" fill="#7AB1D6"></path>
                    </g>
                </g>
            </g>
        </g>
    </g>
</svg>