<?xml version="1.0" encoding="UTF-8" standalone="no"?>
<svg width="22px" height="22px" viewBox="0 0 22 22" version="1.1" xmlns="http://www.w3.org/2000/svg" xmlns:xlink="http://www.w3.org/1999/xlink">
    <!-- Generator: Sketch 3.6.1 (26313) - http://www.bohemiancoding.com/sketch -->
    <title>ico-search</title>
    <desc>Created with Sketch.</desc>
    <defs></defs>
    <g id="Main" stroke="none" stroke-width="1" fill="none" fill-rule="evenodd">
        <g id="1.-Both---Search-results" transform="translate(-433.000000, -21.000000)" stroke-width="2" stroke="#FFFFFF">
            <g id="Header">
                <g id="Search" transform="translate(206.000000, 9.000000)">
                    <g id="Search-BTN" transform="translate(213.000000, -2.000000)">
                        <path d="M27.9366685,17.2196285 C30.8961732,20.1791332 30.8961732,24.9771682 27.9366685,27.9366729 C24.9771639,30.8961776 20.1791289,30.8961776 17.2196242,27.9366729 C14.2601195,24.9771682 14.2601195,20.1791332 17.2196242,17.2196285 C20.1791289,14.2601238 24.9771639,14.2601238 27.9366685,17.2196285 L27.9366685,17.2196285 Z M27.9366685,27.9367555 L29.3974073,29.3974943 M34.6587949,34.6587992 L34.6587949,34.6587992 C34.174362,35.1432321 33.3534715,35.107685 32.8252247,34.5794382 L28.520716,30.2749296 L30.2749253,28.5207204 L34.5786072,32.825229 C35.1076807,33.3534758 35.1432278,34.1743664 34.6587949,34.6587992 L34.6587949,34.6587992 Z" id="ico-search"></path>
                    </g>
                </g>
            </g>
        </g>
    </g>
</svg>