<?xml version="1.0" encoding="UTF-8" standalone="no"?>
<svg width="59px" height="370px" viewBox="0 0 59 370" version="1.1" xmlns="http://www.w3.org/2000/svg" xmlns:xlink="http://www.w3.org/1999/xlink">
    <!-- Generator: Sketch 3.6.1 (26313) - http://www.bohemiancoding.com/sketch -->
    <title>Group</title>
    <desc>Created with Sketch.</desc>
    <defs>
        <linearGradient x1="50%" y1="0%" x2="50%" y2="100%" id="linearGradient-1">
            <stop stop-color="#CDE2F2" offset="0%"></stop>
            <stop stop-color="#FFC05C" offset="100%"></stop>
        </linearGradient>
    </defs>
    <g id="Main" stroke="none" stroke-width="1" fill="none" fill-rule="evenodd">
        <g id="Homepage" transform="translate(-104.000000, -1064.000000)">
            <g id="Group" transform="translate(105.000000, 1065.000000)">
                <g id="Icon" transform="translate(0.000000, 312.000000)">
                    <circle id="Oval-7" fill="#FFC76E" cx="28.5" cy="28.5" r="28.5"></circle>
                    <path d="M25,19 L35,29 L25,39" id="Path-272" stroke="#FFFFFF" stroke-width="1.7"></path>
                </g>
                <rect id="Line" fill="url(#linearGradient-1)" x="28" y="267" width="2" height="45"></rect>
                <g id="Icon" transform="translate(0.000000, 209.000000)">
                    <circle id="Oval-7" stroke="#D4E7F4" stroke-width="2" cx="28.5" cy="28.5" r="28.5"></circle>
                    <path d="M27.801,39.464 C25.9256573,39.3673329 24.3983392,38.8743378 23.219,37.985 C22.0396608,37.0956622 21.3630009,35.7616756 21.189,33.983 L22.755,33.983 C22.9676677,35.2590064 23.4799959,36.2256634 24.292,36.883 C25.1040041,37.5403366 26.273659,37.9173329 27.801,38.014 L27.801,29.488 C26.7956616,29.352666 25.9208371,29.1545013 25.1765,28.8935 C24.4321629,28.6324987 23.8135025,28.2748356 23.3205,27.8205 C22.8274975,27.3661644 22.4601679,26.8006701 22.2185,26.124 C21.9768321,25.44733 21.856,24.6450046 21.856,23.717 C21.856,22.9436628 22.0058318,22.2476698 22.3055,21.629 C22.6051682,21.0103302 23.0208307,20.4786689 23.5525,20.034 C24.0841693,19.5893311 24.7124964,19.231668 25.4375,18.961 C26.1625036,18.690332 26.9503291,18.5260003 27.801,18.468 L27.801,16.148 L29.222,16.148 L29.222,18.439 C30.2660052,18.4970003 31.1456631,18.6854984 31.861,19.0045 C32.5763369,19.3235016 33.1659977,19.7149977 33.63,20.179 C34.0940023,20.6430023 34.4516654,21.1504972 34.703,21.7015 C34.9543346,22.2525028 35.1379994,22.7793308 35.254,23.282 L33.717,23.659 C33.5623326,23.1949977 33.3786677,22.7455022 33.166,22.3105 C32.9533323,21.8754978 32.677835,21.4936683 32.3395,21.165 C32.001165,20.8363317 31.5806692,20.5608344 31.078,20.3385 C30.5753308,20.1161656 29.9566703,19.9760003 29.222,19.918 L29.222,28.096 L29.599,28.154 C31.4356759,28.3860012 32.8469951,28.9418289 33.833,29.8215 C34.8190049,30.7011711 35.312,32.0496576 35.312,33.867 C35.312,34.6403372 35.1815013,35.3556634 34.9205,36.013 C34.6594987,36.6703366 34.2680026,37.2454975 33.746,37.7385 C33.2239974,38.2315025 32.5860038,38.6278318 31.832,38.9275 C31.0779962,39.2271682 30.2080049,39.4059997 29.222,39.464 L29.222,42.161 L27.801,42.161 L27.801,39.464 Z M29.222,38.014 C30.6913407,37.9173329 31.7884964,37.4823372 32.5135,36.709 C33.2385036,35.9356628 33.601,34.9690058 33.601,33.809 C33.601,33.3836645 33.5526672,32.9583355 33.456,32.533 C33.3593329,32.1076645 33.1805013,31.7161685 32.9195,31.3585 C32.6584987,31.0008315 32.291169,30.686668 31.8175,30.416 C31.343831,30.145332 30.7203372,29.9520006 29.947,29.836 L29.222,29.72 L29.222,38.014 Z M27.801,19.918 C27.0083294,19.9760003 26.341336,20.1209988 25.8,20.353 C25.258664,20.5850012 24.8140017,20.870165 24.466,21.2085 C24.1179983,21.546835 23.8666674,21.9334978 23.712,22.3685 C23.5573326,22.8035022 23.48,23.2529977 23.48,23.717 C23.48,24.2390026 23.5283329,24.7223311 23.625,25.167 C23.7216672,25.6116689 23.9198318,26.0176648 24.2195,26.385 C24.5191682,26.7523352 24.9541638,27.0664987 25.5245,27.3275 C26.0948362,27.5885013 26.8536619,27.786666 27.801,27.922 L27.801,19.918 Z" id="$" fill="#6FB2E1"></path>
                </g>
                <rect id="Line" fill="#D4E7F4" x="28" y="162" width="2" height="46"></rect>
                <g id="Icon" transform="translate(0.000000, 105.000000)">
                    <circle id="Oval-7" stroke="#D4E7F4" stroke-width="2" cx="28.5" cy="28.5" r="28.5"></circle>
                    <g id="close" transform="translate(19.000000, 19.000000)" stroke="#6FB2E1" stroke-width="0.2" fill="#6FB2E1">
                        <path d="M10.4140205,9.49935405 L19,18.0853335 L18.0866254,18.9987081 L9.50064595,10.4127286 L0.914666485,18.9987081 L0.00129190182,18.0853335 L8.58727137,9.49935405 L1.77635684e-15,0.913374584 L0.913374584,-1.77635684e-15 L9.50064595,8.58597947 L18.0866254,-1.77635684e-15 L19,0.913374584 L10.4140205,9.49935405 L10.4140205,9.49935405 Z" id="Shape"></path>
                    </g>
                </g>
                <rect id="Line" fill="#D4E7F4" x="28" y="58" width="2" height="46"></rect>
                <g id="Icon">
                    <circle id="Oval-7" stroke="#D4E7F4" stroke-width="2" cx="28.5" cy="28.5" r="28.5"></circle>
                    <g id="check-box" transform="translate(17.394663, 15.125000)" fill="#6FB2E1">
                        <path d="M20.0744288,8.58678175 L21.6186156,8.58678175 L21.6186156,24.4682952 L1.77635684e-15,24.4682952 L1.77635684e-15,2.75316792 L12.96036,2.75316792 L12.96036,4.30424844 L1.54418683,4.30424844 L1.54418683,22.9172147 L20.0744288,22.9172147 L20.0744288,8.58678175 L20.0744288,8.58678175 Z M5.95129603,12.2861088 L4.85801176,13.3842738 L10.1607493,18.7106843 L21.8764948,0.854645366 L20.5870988,1.77635684e-15 L9.91367944,16.2677325 L5.95129603,12.2861088 L5.95129603,12.2861088 Z" id="Shape"></path>
                    </g>
                </g>
            </g>
        </g>
    </g>
</svg>