<?xml version="1.0" encoding="UTF-8" standalone="no"?>
<svg width="199px" height="120px" viewBox="0 0 199 120" version="1.1" xmlns="http://www.w3.org/2000/svg" xmlns:xlink="http://www.w3.org/1999/xlink">
    <!-- Generator: Sketch 3.6.1 (26313) - http://www.bohemiancoding.com/sketch -->
    <title>Page 1</title>
    <desc>Created with Sketch.</desc>
    <defs></defs>
    <g id="Desktop" stroke="none" stroke-width="1" fill="none" fill-rule="evenodd">
        <g id="What-is-Immediate-Burial" transform="translate(-961.000000, -3581.000000)">
            <g id="Not-included" transform="translate(0.000000, 3328.000000)">
                <g id="Grave" transform="translate(961.000000, 253.000000)">
                    <g id="Page-1">
                        <path d="M126.12535,93.9067573 C123.688114,89.8342244 121.68005,84.8251576 123.132293,80.792837 L123.153715,80.7384573 L131.683092,60.3947966 L141.893539,64.1079084 L160.803049,8.41236483 L169.477307,11.5669521 L150.568361,67.2613627 L160.933273,71.0299871 L152.367817,91.4552173 C151.01843,95.1579617 146.89864,97.6139972 142.770845,99.1961081 L139.994296,97.771983 C144.267051,96.4239836 148.989533,94.1786097 150.257741,90.655383 L150.279163,90.6010033 L157.932488,72.3492605 L147.719222,68.6355823 L166.628732,12.9411716 L162.196049,11.329041 L143.286539,67.0240181 L132.92952,63.2582261 L125.243497,81.5904055 C123.947306,85.2445641 126.359432,90.2204065 128.882378,94.0570232 L126.12535,93.9067573 Z" id="Combined-Shape" fill="#7AB1D6"></path>
                        <path d="M174.631802,9.65227793 C174.479592,10.0776855 174.012816,10.2980365 173.588884,10.1428279 L159.271031,4.93767393 C158.848227,4.7835982 158.627805,4.31457356 158.781142,3.88916594 L159.579397,1.67262798 C159.73217,1.24778682 160.200074,1.02800232 160.622878,1.18207805 L174.941295,6.38779843 C175.364099,6.54244062 175.58283,7.01089881 175.430057,7.43573997 L174.631802,9.65227793 Z" id="Fill-5" fill="#EDF7FC"></path>
                        <path d="M159.947631,3.9788924 L173.678067,8.97105929 L174.263793,7.34590022 L160.532793,2.35429979 L159.947631,3.9788924 Z M173.867484,11.3258122 C173.640861,11.3258122 173.418184,11.2855939 173.203963,11.2079896 L158.887237,6.0028357 C157.880399,5.63690584 157.356685,4.51532517 157.720861,3.5042032 L158.519116,1.28709879 C158.796475,0.5172866 159.530464,0.000113290977 160.345631,0.000113290977 C160.571127,0.000113290977 160.793804,0.039198678 161.006897,0.116802997 L175.32475,5.32252338 C176.331589,5.6901526 176.854175,6.81116681 176.490563,7.82115587 L175.692308,10.0376938 C175.417203,10.8069396 174.683778,11.3258122 173.867484,11.3258122 L173.867484,11.3258122 Z" id="Fill-7" fill="#7AB1D6"></path>
                        <path d="M38.2894603,107.142845 C39.4564008,107.142845 40.5748598,107.51444 41.5213782,108.21741 L42.5586586,108.988355 L43.1798994,107.852047 C47.6075085,99.7494763 56.0647266,94.7165246 65.2519873,94.7165246 C70.852738,94.7165246 76.1575255,96.5314461 80.5930269,99.9641627 L81.1793159,100.417327 L81.8264887,100.058194 C85.5257465,98.0042288 89.7267323,96.9183347 93.9739448,96.9183347 C96.4910411,96.9183347 98.9827691,97.2944608 101.380353,98.0359502 L102.538273,98.3945162 L102.810559,97.2083596 C103.466188,94.3562593 105.95848,92.3640375 108.871322,92.3640375 C111.442537,92.3640375 113.71497,93.920089 114.660361,96.3280888 L115.094441,97.4338087 L116.172874,96.9449581 C119.431288,95.4665109 122.908996,94.7165246 126.51129,94.7165246 C134.388984,94.7165246 141.665732,98.3254087 146.475557,104.616457 L147.068047,105.3908 L147.917602,104.916111 C149.121749,104.243729 150.487126,103.887996 151.865469,103.887996 C156.112681,103.887996 159.610684,107.172868 159.976551,111.34764 C141.949293,109.140732 122.590483,107.4425 104.765608,107.249339 C104.41778,107.242541 104.071644,107.235178 103.729455,107.229513 C99.387534,107.155874 94.6013867,107.245374 89.6230042,107.445332 C71.0359533,108.088825 51.1026926,110.114468 32.8358456,112.521901 C32.8905283,109.546313 35.3157351,107.142845 38.2894603,107.142845 M197.661965,116.846784 C190.244846,115.602283 181.877826,114.28924 172.963415,113.047571 C172.833755,110.6509 172.96116,103.862505 177.985769,99.5704765 C178.459874,99.1654613 178.517939,98.4500287 178.114302,97.9736402 C177.710664,97.4972516 176.999789,97.4383403 176.525684,97.8444885 C174.620245,99.4713469 173.325899,101.377468 172.446466,103.303981 C172.199548,99.7557073 171.220333,95.7083871 168.668848,91.943728 C168.317639,91.4265546 167.617475,91.2934377 167.102217,91.6452062 C166.587523,91.9975412 166.455044,92.702211 166.805126,93.2193844 C170.761449,99.0578348 170.479016,105.858126 169.885398,109.641478 C169.713458,106.107366 168.639534,100.588396 164.060843,96.677025 C163.586738,96.2714433 162.875299,96.3292217 162.471661,96.8067431 C162.068024,97.2831317 162.126089,97.9979978 162.600758,98.403013 C167.954591,102.97657 167.74037,110.440179 167.591542,112.317977 C165.825347,112.084031 164.039984,111.853484 162.241656,111.628035 C162.007704,106.072812 157.450435,101.622176 151.865469,101.622176 C150.426806,101.622176 148.999418,101.925229 147.685905,102.504713 C142.450458,96.1032062 134.785857,92.4507051 126.51129,92.4507051 C122.958605,92.4507051 119.516412,93.1202547 116.260817,94.4429269 C114.774237,91.7703928 111.983727,90.0982179 108.871322,90.0982179 C105.302851,90.0982179 102.197775,92.2920977 100.958676,95.5594095 C98.6828598,94.9572679 96.3388314,94.6525152 93.9739448,94.6525152 C89.5919986,94.6525152 85.2545878,95.7134852 81.3828258,97.7272323 C76.6710921,94.272424 71.1103669,92.4507051 65.2519873,92.4507051 C55.6374122,92.4507051 46.7573895,97.5085807 41.796483,105.72954 C40.7146671,105.169317 39.5217946,104.877026 38.2894603,104.877026 C34.0383017,104.877026 30.5797606,108.352227 30.5797606,112.623863 L30.5797606,112.822689 C25.212398,113.544918 20.001755,114.295471 15.0273187,115.049989 C14.9111884,112.535496 15.128228,105.9278 20.0558739,101.719606 C20.5305425,101.314025 20.5886076,100.599159 20.1849703,100.122204 C19.7813329,99.645815 19.0698938,99.5869037 18.595789,99.9930519 C15.9727096,102.233381 14.5013499,105.002212 13.6890014,107.623766 C13.5649788,103.849477 12.6534122,99.3841129 9.85839235,95.2591884 C9.50774646,94.7420151 8.80758215,94.6088982 8.29176062,94.9606667 C7.77706657,95.3130016 7.64458782,96.0176715 7.99466997,96.5348448 C11.1166586,101.141822 11.5980921,106.347543 11.3714688,110.197737 C10.8071657,106.928725 9.35666431,102.988465 5.8490779,99.9930519 C5.37497309,99.5869037 4.66353399,99.645815 4.26046034,100.122204 C3.85682295,100.599159 3.91432436,101.314025 4.38899292,101.719606 C10.0991091,106.596216 9.47617705,114.757132 9.35384561,115.927994 C6.44720538,116.38569 3.63583711,116.841686 0.943981586,117.289185 C0.329505666,117.391714 -0.085970255,117.974596 0.0149390935,118.592032 C0.106828612,119.146591 0.584315864,119.540277 1.12606941,119.540277 C1.187517,119.540277 1.24952833,119.535179 1.31153966,119.524983 C10.0432989,118.073725 20.0034462,116.534667 30.5797606,115.1089 L30.5797606,115.1106 L31.8549391,114.941796 C32.2140411,114.894214 63.4903017,110.772688 89.517585,109.715683 C93.5573414,109.57407 97.5350864,109.495333 101.415305,109.495333 C102.49261,109.495333 103.576681,109.502696 104.66639,109.514026 C126.957772,109.977952 160.668823,113.719387 161.011576,113.757906 L161.106285,113.768102 C164.637548,114.207671 168.109619,114.665366 171.508967,115.133824 C171.638064,115.184805 171.775616,115.213695 171.91937,115.213695 C171.956013,115.213695 171.99322,115.209163 172.029863,115.205764 C181.153421,116.470092 189.719441,117.81089 197.291024,119.081449 C197.902681,119.187942 198.486715,118.768199 198.588752,118.150763 C198.690789,117.533894 198.276441,116.949312 197.661965,116.846784" id="Fill-11" fill="#7AB1D6"></path>
                        <path d="M56.5130122,104.04615 C56.5130122,104.740624 55.9526552,105.304246 55.260947,105.304246 C54.57093,105.304246 54.0105731,104.740624 54.0105731,104.04615 C54.0105731,103.351676 54.57093,102.789186 55.260947,102.789186 C55.9526552,102.789186 56.5130122,103.351676 56.5130122,104.04615" id="Fill-14" fill="#7AB1D6"></path>
                        <path d="M66.367402,106.063012 C66.367402,106.75692 65.8081725,107.320542 65.1164643,107.320542 C64.4253198,107.320542 63.8660904,106.75692 63.8660904,106.063012 C63.8660904,105.368539 64.4253198,104.805483 65.1164643,104.805483 C65.8081725,104.805483 66.367402,105.368539 66.367402,106.063012" id="Fill-16" fill="#7AB1D6"></path>
                        <path d="M63.8658085,98.7074258 C63.8658085,99.4018995 63.3054516,99.9649557 62.6137433,99.9649557 C61.9237263,99.9649557 61.3633694,99.4018995 61.3633694,98.7074258 C61.3633694,98.0123857 61.9237263,97.449896 62.6137433,97.449896 C63.3054516,97.449896 63.8658085,98.0123857 63.8658085,98.7074258" id="Fill-18" fill="#7AB1D6"></path>
                        <path d="M74.7442309,100.855989 C74.7442309,101.549896 74.1850014,102.113519 73.4932932,102.113519 C72.8021487,102.113519 72.2429193,101.549896 72.2429193,100.855989 C72.2429193,100.160949 72.8021487,99.5984594 73.4932932,99.5984594 C74.1850014,99.5984594 74.7442309,100.160949 74.7442309,100.855989" id="Fill-20" fill="#7AB1D6"></path>
                        <path d="M80.7284371,104.805086 C80.7284371,105.498993 80.1692076,106.063182 79.4774994,106.063182 C78.786355,106.063182 78.225998,105.498993 78.225998,104.805086 C78.225998,104.110046 78.786355,103.548123 79.4774994,103.548123 C80.1692076,103.548123 80.7284371,104.110046 80.7284371,104.805086" id="Fill-22" fill="#7AB1D6"></path>
                        <path d="M93.2936805,100.855989 C93.2936805,101.549896 92.734451,102.113519 92.0427428,102.113519 C91.3515983,102.113519 90.7923688,101.549896 90.7923688,100.855989 C90.7923688,100.160949 91.3515983,99.5984594 92.0427428,99.5984594 C92.734451,99.5984594 93.2936805,100.160949 93.2936805,100.855989" id="Fill-24" fill="#7AB1D6"></path>
                        <path d="M101.4701,103.54716 C101.4701,104.241633 100.910871,104.805256 100.219162,104.805256 C99.5280178,104.805256 98.9687884,104.241633 98.9687884,103.54716 C98.9687884,102.852686 99.5280178,102.290196 100.219162,102.290196 C100.910871,102.290196 101.4701,102.852686 101.4701,103.54716" id="Fill-26" fill="#7AB1D6"></path>
                        <path d="M107.064537,98.7074258 C107.064537,99.4018995 106.50418,99.9649557 105.812472,99.9649557 C105.122455,99.9649557 104.562098,99.4018995 104.562098,98.7074258 C104.562098,98.0123857 105.122455,97.449896 105.812472,97.449896 C106.50418,97.449896 107.064537,98.0123857 107.064537,98.7074258" id="Fill-28" fill="#7AB1D6"></path>
                        <path d="M114.182874,102.7893 C114.182874,103.483773 113.622517,104.047396 112.931936,104.047396 C112.240792,104.047396 111.679871,103.483773 111.679871,102.7893 C111.679871,102.09426 112.240792,101.532336 112.931936,101.532336 C113.622517,101.532336 114.182874,102.09426 114.182874,102.7893" id="Fill-30" fill="#7AB1D6"></path>
                        <path d="M124.056036,98.7074258 C124.056036,99.4018995 123.495679,99.9649557 122.805099,99.9649557 C122.113954,99.9649557 121.553597,99.4018995 121.553597,98.7074258 C121.553597,98.0123857 122.113954,97.449896 122.805099,97.449896 C123.495679,97.449896 124.056036,98.0123857 124.056036,98.7074258" id="Fill-32" fill="#7AB1D6"></path>
                        <path d="M129.208952,104.047283 C129.208952,104.74119 128.648595,105.304813 127.956887,105.304813 C127.26687,105.304813 126.706513,104.74119 126.706513,104.047283 C126.706513,103.352243 127.26687,102.789753 127.956887,102.789753 C128.648595,102.789753 129.208952,103.352243 129.208952,104.047283" id="Fill-34" fill="#7AB1D6"></path>
                        <path d="M138.471021,102.747269 C138.471021,103.441176 137.911792,104.004799 137.220084,104.004799 C136.528939,104.004799 135.968018,103.441176 135.968018,102.747269 C135.968018,102.052795 136.528939,101.489739 137.220084,101.489739 C137.911792,101.489739 138.471021,102.052795 138.471021,102.747269" id="Fill-36" fill="#7AB1D6"></path>
                        <path d="M144.455284,106.647197 C144.455284,107.341105 143.894927,107.904727 143.203219,107.904727 C142.512074,107.904727 141.952845,107.341105 141.952845,106.647197 C141.952845,105.952157 142.512074,105.389668 143.203219,105.389668 C143.894927,105.389668 144.455284,105.952157 144.455284,106.647197" id="Fill-38" fill="#7AB1D6"></path>
                        <path d="M154.327262,107.904557 C154.327262,108.599031 153.768033,109.162654 153.076325,109.162654 C152.38518,109.162654 151.825951,108.599031 151.825951,107.904557 C151.825951,107.210084 152.38518,106.647594 153.076325,106.647594 C153.768033,106.647594 154.327262,107.210084 154.327262,107.904557" id="Fill-40" fill="#7AB1D6"></path>
                        <path d="M49.6138006,107.319863 C49.6138006,108.01377 49.0534436,108.577959 48.3617354,108.577959 C47.6705909,108.577959 47.1113615,108.01377 47.1113615,107.319863 C47.1113615,106.624822 47.6705909,106.062899 48.3617354,106.062899 C49.0534436,106.062899 49.6138006,106.624822 49.6138006,107.319863" id="Fill-42" fill="#7AB1D6"></path>
                        <path d="M147.142911,85.4637673 C146.858223,85.4637673 146.573535,85.3561409 146.35424,85.1403216 C144.506866,83.3225678 142.134651,81.8758421 139.493532,80.9553529 C136.851849,80.0348637 134.097418,79.6949908 131.527331,79.9719872 C130.913982,80.0388289 130.352498,79.5896302 130.285976,78.9665298 C130.219455,78.3445623 130.666501,77.7860378 131.28605,77.7191961 C134.183671,77.4059466 137.278036,77.7843384 140.23203,78.8147199 C143.186025,79.843402 145.848566,81.4713933 147.931583,83.5213935 C148.376937,83.9592631 148.384265,84.676395 147.948495,85.1233279 C147.727509,85.3504763 147.435492,85.4637673 147.142911,85.4637673" id="Fill-44" fill="#7AB1D6"></path>
                    </g>
                </g>
            </g>
        </g>
    </g>
</svg>