<?xml version="1.0" encoding="UTF-8" standalone="no"?>
<svg width="134px" height="133px" viewBox="0 0 134 133" version="1.1" xmlns="http://www.w3.org/2000/svg" xmlns:xlink="http://www.w3.org/1999/xlink">
    <!-- Generator: Sketch 3.6.1 (26313) - http://www.bohemiancoding.com/sketch -->
    <title>Icon</title>
    <desc>Created with Sketch.</desc>
    <defs>
        <path id="path-1" d="M66.7961373,132.51631 L0,132.51631 L0,0.541006954 L66.7961373,0.541006954 L133.592275,0.541006954 L133.592275,132.51631 L66.7961373,132.51631 L66.7961373,132.51631 Z"></path>
    </defs>
    <g id="Desktop" stroke="none" stroke-width="1" fill="none" fill-rule="evenodd">
        <g id="What-is-Direct-Cremation" transform="translate(-984.000000, -3263.000000)">
            <g id="Not-included" transform="translate(0.000000, 3028.000000)">
                <g id="Viewed-cremation" transform="translate(954.000000, 235.000000)">
                    <g id="Icon" transform="translate(30.000000, 0.000000)">
                        <g id="Group-5" transform="translate(0.000000, 0.066866)">
                            <mask id="mask-2" fill="white">
                                <use xlink:href="#path-1"></use>
                            </mask>
                            <g id="Clip-4"></g>
                            <path d="M131.281384,130.21004 L2.31125636,130.21004 L2.31125636,74.6990792 L58.1782927,28.5536176 L58.1782927,63.7306192 L52.3541655,63.7306192 C49.9634836,63.7306192 48.0192655,65.6715576 48.0192655,68.057459 L48.0192655,97.4061745 C48.0192655,99.7926838 49.9634836,101.733622 52.3541655,101.733622 L81.7635109,101.733622 C84.1535836,101.733622 86.0984109,99.7926838 86.0984109,97.4061745 L86.0984109,68.057459 C86.0984109,65.6715576 84.1535836,63.7306192 81.7635109,63.7306192 L74.5403018,63.7306192 L74.5403018,27.833896 L131.281384,74.6990792 L131.281384,130.21004 Z M60.4891836,63.7306192 L72.2288018,63.7306192 L72.2288018,2.84727705 L60.4891836,2.84727705 L60.4891836,63.7306192 Z M73.3848564,66.0368892 L81.7635109,66.0368892 C82.8793655,66.0368892 83.78752,66.9438357 83.78752,68.057459 L83.78752,97.4061745 C83.78752,98.5204056 82.8793655,99.4273521 81.7635109,99.4273521 L52.3541655,99.4273521 C51.2383109,99.4273521 50.3301564,98.5204056 50.3301564,97.4061745 L50.3301564,68.057459 C50.3301564,66.9438357 51.2383109,66.0368892 52.3541655,66.0368892 L59.3337382,66.0368892 L73.3848564,66.0368892 Z M133.17322,73.2675384 L74.5403018,24.8389058 L74.5403018,1.694142 C74.5403018,1.05709112 74.0225745,0.541006954 73.3848564,0.541006954 L59.3337382,0.541006954 C58.6966291,0.541006954 58.1782927,1.05709112 58.1782927,1.694142 L58.1782927,25.560451 L0.418810909,73.2675384 C0.153247273,73.4869805 -0.000243636364,73.8134083 -0.000243636364,74.1562487 L-0.000243636364,131.362567 C-0.000243636364,131.999618 0.517483636,132.51631 1.15581091,132.51631 L132.436829,132.51631 C133.074547,132.51631 133.592275,131.999618 133.592275,131.362567 L133.592275,74.1562487 C133.592275,73.8134083 133.439393,73.4869805 133.17322,73.2675384 L133.17322,73.2675384 Z" id="Fill-3" fill="#7AB1D6" mask="url(#mask-2)"></path>
                        </g>
                        <path d="M63.0069827,75.779695 C60.69731,75.779695 58.8188736,77.6537674 58.8188736,79.957606 C58.8188736,81.0529932 59.2403645,82.087593 60.0047736,82.8717491 L66.7151282,90.1625777 C66.9069918,90.3722938 67.2109282,90.3692545 67.3979191,90.165617 L74.0857373,82.8984955 C74.8757282,82.0894166 75.2978282,81.0554246 75.2978282,79.9600375 C75.2978282,77.6549832 73.4187827,75.779695 71.10911,75.779695 C69.8860555,75.779695 68.7293918,76.3091524 67.9345282,77.2325115 C67.7152555,77.4872102 67.3954827,77.6343155 67.0580464,77.6343155 L67.0574373,77.6343155 C66.7218282,77.6343155 66.4014464,77.4872102 66.1821736,77.2337272 C65.3860918,76.3097603 64.22821,75.779695 63.0069827,75.779695 M67.0574373,92.6262869 C66.27171,92.6262869 65.5450645,92.3041142 65.0108918,91.7205561 L58.3261191,84.4558661 C57.1615373,83.2644351 56.5079827,81.6578268 56.5079827,79.957606 C56.5079827,76.3820972 59.4230918,73.4734249 63.0069827,73.4734249 C64.4925555,73.4734249 65.9160009,73.9779595 67.0568282,74.8861218 C68.1982645,73.9779595 69.6223191,73.4734249 71.10911,73.4734249 C74.6930009,73.4734249 77.6093282,76.382705 77.6093282,79.9600375 C77.6093282,81.6608661 76.9539464,83.2674744 75.7631736,84.4844361 L69.1033736,91.7223797 C68.5716373,92.3041142 67.8449918,92.6262869 67.0574373,92.6262869" id="Fill-6" fill="#7AB1D6"></path>
                        <path d="M16.0329173,86.642446 C13.2658173,86.642446 11.0146173,88.8885367 11.0146173,91.6494958 C11.0146173,94.4104548 13.2658173,96.6571534 16.0329173,96.6571534 C18.7994082,96.6571534 21.0499991,94.4104548 21.0499991,91.6494958 C21.0499991,88.8885367 18.7994082,86.642446 16.0329173,86.642446 M16.0329173,98.9628156 C11.9915991,98.9628156 8.70311727,95.6821251 8.70311727,91.6494958 C8.70311727,87.6162585 11.9915991,84.335568 16.0329173,84.335568 C20.0736264,84.335568 23.3614991,87.6162585 23.3614991,91.6494958 C23.3614991,95.6821251 20.0736264,98.9628156 16.0329173,98.9628156" id="Fill-8" fill="#7AB1D6"></path>
                        <path d="M10.1760818,123.492922 L21.8889,123.492922 L21.8889,109.768366 C21.7518545,109.024329 20.5336727,103.153492 16.3297273,103.153492 C11.4752727,103.153492 10.1760818,108.701549 10.1760818,109.449232 L10.1760818,123.492922 Z M23.0443455,125.799192 L9.02063636,125.799192 C8.38230909,125.799192 7.86519091,125.2825 7.86519091,124.646057 L7.86519091,109.449232 C7.86519091,107.552061 9.89224545,100.847222 16.3297273,100.847222 C22.7775636,100.847222 24.1321818,109.140433 24.1863909,109.493607 C24.1955273,109.551355 24.1997909,109.610319 24.1997909,109.669282 L24.1997909,124.646057 C24.1997909,125.2825 23.6820636,125.799192 23.0443455,125.799192 L23.0443455,125.799192 Z" id="Fill-10" fill="#7AB1D6"></path>
                        <path d="M111.628395,86.7053609 C108.861905,86.7053609 106.610705,88.9514515 106.610705,91.7124106 C106.610705,94.4739776 108.861905,96.721284 111.628395,96.721284 C114.394886,96.721284 116.646086,94.4739776 116.646086,91.7124106 C116.646086,88.9514515 114.394886,86.7053609 111.628395,86.7053609 M111.628395,99.0269462 C107.587077,99.0269462 104.299205,95.7462557 104.299205,91.7124106 C104.299205,87.6791734 107.587077,84.3984829 111.628395,84.3984829 C115.669105,84.3984829 118.956977,87.6791734 118.956977,91.7124106 C118.956977,95.7462557 115.669105,99.0269462 111.628395,99.0269462" id="Fill-12" fill="#7AB1D6"></path>
                        <path d="M105.772108,123.556445 L117.484317,123.556445 L117.484317,109.831888 C117.346663,109.08846 116.12909,103.21823 111.925754,103.21823 C107.07069,103.21823 105.772108,108.765071 105.772108,109.512755 L105.772108,123.556445 Z M118.639154,125.863323 L104.616663,125.863323 C103.977726,125.863323 103.461217,125.346631 103.461217,124.710188 L103.461217,109.512755 C103.461217,107.615584 105.487663,100.911352 111.925754,100.911352 C118.372981,100.911352 119.72699,109.203956 119.781199,109.55713 C119.790335,109.615486 119.795208,109.673841 119.795208,109.732805 L119.795208,124.710188 C119.795208,125.346631 119.277481,125.863323 118.639154,125.863323 L118.639154,125.863323 Z" id="Fill-14" fill="#7AB1D6"></path>
                        <path d="M35.1098273,89.5713604 C32.5979364,89.5713604 30.5538273,91.6107743 30.5538273,94.1182503 C30.5538273,96.6257263 32.5979364,98.6651402 35.1098273,98.6651402 C37.6217182,98.6651402 39.6652182,96.6257263 39.6652182,94.1182503 C39.6652182,91.6107743 37.6217182,89.5713604 35.1098273,89.5713604 M35.1098273,100.972018 C31.3231091,100.972018 28.2429364,97.8967888 28.2429364,94.1182503 C28.2429364,90.339104 31.3231091,87.2650903 35.1098273,87.2650903 C38.8959364,87.2650903 41.9761091,90.339104 41.9761091,94.1182503 C41.9761091,97.8967888 38.8959364,100.972018 35.1098273,100.972018" id="Fill-16" fill="#7AB1D6"></path>
                        <path d="M29.7779064,123.492922 L40.4400427,123.492922 L40.4400427,110.889284 C40.3103064,110.184151 39.1920155,104.848242 35.3839791,104.848242 C30.96137,104.848242 29.7779064,109.904529 29.7779064,110.585955 L29.7779064,123.492922 Z M41.5954882,125.799192 L28.6224609,125.799192 C27.9841336,125.799192 27.4670155,125.2825 27.4670155,124.646057 L27.4670155,110.585955 C27.4670155,108.812182 29.3625064,102.541364 35.3839791,102.541364 C41.4225064,102.541364 42.6875882,110.28445 42.7375336,110.613917 C42.7478882,110.671665 42.7515427,110.731237 42.7515427,110.789592 L42.7515427,124.646057 C42.7515427,125.2825 42.2338155,125.799192 41.5954882,125.799192 L41.5954882,125.799192 Z" id="Fill-18" fill="#7AB1D6"></path>
                    </g>
                </g>
            </g>
        </g>
    </g>
</svg>