<?xml version="1.0" encoding="UTF-8" standalone="no"?>
<svg width="188px" height="144px" viewBox="0 0 188 144" version="1.1" xmlns="http://www.w3.org/2000/svg" xmlns:xlink="http://www.w3.org/1999/xlink">
    <!-- Generator: Sketch 3.6.1 (26313) - http://www.bohemiancoding.com/sketch -->
    <title>Icon</title>
    <desc>Created with Sketch.</desc>
    <defs></defs>
    <g id="Desktop" stroke="none" stroke-width="1" fill="none" fill-rule="evenodd">
        <g id="What-is-Direct-Cremation" transform="translate(-136.000000, -3257.000000)" fill="#6FB2E1">
            <g id="Not-included" transform="translate(0.000000, 3028.000000)">
                <g id="Service" transform="translate(136.000000, 229.000000)">
                    <g id="Icon">
                        <path d="M91.5466357,68.6061288 C90.5530236,68.6061288 89.7452669,69.4118806 89.7452669,70.4016005 C89.7452669,70.8722166 89.9268335,71.3178757 90.2563696,71.6558637 L93.8512441,75.559125 L97.4218144,71.6815336 C97.7763696,71.3185888 97.9579361,70.8736427 97.9579361,70.4030266 C97.9579361,69.4118806 97.1501795,68.6061288 96.1565673,68.6061288 C95.6311681,68.6061288 95.1336471,68.8335932 94.7919589,69.2300516 C94.5567802,69.5038646 94.2129475,69.6607367 93.8519589,69.6607367 L93.8512441,69.6607367 C93.4902555,69.6607367 93.1478525,69.5045777 92.9119589,69.2307647 C92.5695559,68.8335932 92.072035,68.6061288 91.5466357,68.6061288 M93.8512441,78.1874446 C93.2479285,78.1874446 92.6667726,77.9307449 92.2571757,77.4829466 L88.4542859,73.3536469 C87.6965673,72.5764173 87.2662403,71.5189572 87.2662403,70.4016005 C87.2662403,68.04852 89.1862707,66.1332551 91.5466357,66.1332551 C92.3729779,66.1332551 93.170727,66.3707023 93.8512441,66.8049526 C94.5317612,66.3707023 95.3295103,66.1332551 96.1565673,66.1332551 C98.5169323,66.1332551 100.437678,68.04852 100.437678,70.4030266 C100.437678,71.5225224 100.005206,72.5806956 99.2217536,73.381456 L95.4438829,77.4857988 C95.0321414,77.9364493 94.465997,78.1874446 93.8512441,78.1874446" id="Fill-3"></path>
                        <path d="M151.545156,3.33231846 C149.683741,3.6496278 146.191802,4.62579966 144.984456,7.55074999 C143.747802,10.5455797 144.21673,13.2986838 144.619179,14.7005493 C146.079574,14.2777079 148.686555,13.4398686 150.332806,12.4358876 C151.352152,11.814817 151.753171,7.39459101 151.545156,3.33231846 M143.837156,17.434401 C143.365369,17.434401 142.922175,17.1634402 142.71416,16.7206332 C142.624091,16.5266824 140.509627,11.8939661 142.691285,6.60880475 C144.9673,1.09689202 152.330038,0.728242751 152.641703,0.714694712 C153.329369,0.68545947 153.871209,1.1853108 153.928395,1.84417333 C154.144989,4.36268249 154.618205,12.7218226 151.625932,14.5465295 C148.924593,16.1929728 144.332532,17.3488344 144.138814,17.3980352 C144.038738,17.4229921 143.937232,17.434401 143.837156,17.434401" id="Fill-7"></path>
                        <path d="M163.531764,22.1921158 C162.182167,22.1921158 160.338624,22.4801899 159.224205,23.8542462 C157.809559,25.5962388 157.484312,27.4965296 157.432129,28.6352779 C159.26924,28.6324257 160.827567,28.4862495 161.824753,28.2231323 C162.517422,27.997807 163.704038,25.2518334 164.472479,22.2363252 C164.190837,22.2099421 163.872738,22.1921158 163.531764,22.1921158 M157.384236,31.1081516 C156.658684,31.1081516 156.178319,31.0867599 156.178319,31.0867599 C155.585726,31.0596638 155.094639,30.6168569 155.008144,30.031439 C154.982411,29.861732 154.425559,25.8358252 157.297027,22.2976479 C158.666639,20.6105605 160.822563,19.7192421 163.531764,19.7192421 C165.062213,19.7192421 166.235247,20.0115945 166.28457,20.0244295 C166.927202,20.1862929 167.328221,20.825903 167.193833,21.4733566 C166.672008,23.9840222 165.166578,29.8995239 162.459521,30.6140047 C160.911916,31.022585 158.845346,31.1081516 157.384236,31.1081516" id="Fill-11"></path>
                        <path d="M21.2968973,27.9988766 C23.2262205,30.064596 25.5372624,31.9820001 26.4765475,31.9827131 L26.503711,31.980574 C27.8139924,31.6575602 29.49527,30.8125904 30.5460684,30.2407205 C29.9456122,29.2624095 28.7368365,27.7443161 26.6788441,26.9021985 C26.2084867,26.7096737 25.7023878,26.6126983 25.1726996,26.6126983 C23.6572624,26.6126983 22.209019,27.3856496 21.2968973,27.9988766 M26.4765475,34.4555868 L26.4758327,34.4555868 C23.7266008,34.4548737 19.7085475,29.998995 18.5426616,28.6334953 C18.1123346,28.1300787 18.1559392,27.377806 18.6427376,26.9264424 C18.7649734,26.8130667 21.6850494,24.1391116 25.1726996,24.1391116 C26.0254905,24.1391116 26.8489734,24.2995489 27.6195589,24.614006 C31.8420532,26.3424506 33.2917262,30.1401798 33.3517719,30.3013302 C33.5576426,30.8560867 33.3403346,31.4792965 32.8328061,31.7866231 C32.6984183,31.8679113 29.520289,33.7838893 27.0963042,34.3814291 C26.8990114,34.4306299 26.6902814,34.4555868 26.4765475,34.4555868" id="Fill-15"></path>
                        <path d="M157.001659,116.903034 C157.596397,117.884197 158.795165,119.410847 160.846724,120.2658 C161.323515,120.464742 161.840336,120.565996 162.380032,120.565996 C163.884747,120.565996 165.326557,119.808019 166.236534,119.204061 C164.316503,117.121229 162.016899,115.187424 161.081903,115.187424 C159.752321,115.502595 158.058891,116.336869 157.001659,116.903034 M162.380032,123.038157 L162.379317,123.038157 C161.510085,123.038157 160.673021,122.873441 159.890998,122.547575 C155.679941,120.792747 154.255287,116.985035 154.196671,116.824598 C153.993659,116.266989 154.215971,115.645919 154.724929,115.342157 C154.859317,115.261582 158.051028,113.36557 160.479302,112.783717 C160.671591,112.737369 160.873887,112.714551 161.081903,112.714551 C163.832564,112.714551 167.833462,117.210361 168.994344,118.587269 C169.421811,119.094964 169.373203,119.846524 168.88426,120.294322 C168.762024,120.406272 165.848382,123.038157 162.380032,123.038157" id="Fill-19"></path>
                        <path d="M29.6277278,116.479622 C28.4804274,116.618668 26.6082905,117.088571 24.9813399,118.615934 C23.4172943,120.084827 23.5223741,122.512778 23.7618418,123.956 C26.7176593,122.966994 29.3703894,121.581528 29.5440928,120.874891 C29.7914236,119.549323 29.7156517,117.67185 29.6277278,116.479622 M22.8554388,126.769001 C22.3357582,126.769001 21.8539635,126.440996 21.6802601,125.924744 C21.6009141,125.688723 19.77953,120.105505 23.2814768,116.815471 C26.1129141,114.157203 29.5190738,113.950417 30.4948152,113.950417 C30.7192715,113.950417 30.8429369,113.9604 30.8429369,113.9604 C31.4312411,114.006748 31.9144654,114.46239 31.9845186,115.046382 C32.0031042,115.201828 32.4377202,118.880477 31.9809445,121.329107 C31.469127,124.076507 25.6675757,126.015302 23.197127,126.721227 C23.0834692,126.754027 22.9690966,126.769001 22.8554388,126.769001" id="Fill-23"></path>
                        <path d="M34.7257445,125.956832 C33.7778814,126.605712 32.3189156,127.888497 31.5812122,129.982026 C30.8642388,132.017797 32.0758738,134.119169 32.9558281,135.286439 C35.1267635,133.052439 36.845927,130.604522 36.6743681,129.896459 C36.2826418,128.604404 35.3526494,126.974361 34.7257445,125.956832 M32.8807711,138.335461 C32.5691057,138.335461 32.2581551,138.219233 32.0172578,137.986778 C31.8385506,137.813505 27.6482236,133.68991 29.2430068,129.1613 C30.7555848,124.867284 34.4841323,123.227259 34.6421095,123.159518 C35.187524,122.927776 35.822292,123.111744 36.1554023,123.600186 C36.2440411,123.730675 38.3263376,126.79895 39.0476,129.182691 C39.8603605,131.855933 35.6006951,136.238367 33.7314175,137.998186 C33.4926646,138.223512 33.1867179,138.335461 32.8807711,138.335461" id="Fill-27"></path>
                        <path d="M185.205591,85.6044968 L164.684283,85.6044968 C165.416268,84.61549 166.038884,83.5195249 166.460633,82.7066426 L166.989606,82.7066426 C168.514336,82.7066426 169.755279,81.4687796 169.755279,79.9471209 L169.755279,73.0390471 L185.205591,73.0390471 C185.254914,73.0390471 185.302093,73.0518821 185.342838,73.0739868 L180.920906,78.5466815 C180.555629,78.9987582 180.555629,79.6454988 180.920906,80.0975755 L185.342123,85.5695571 C185.302093,85.5909488 185.254914,85.6044968 185.205591,85.6044968 L185.205591,85.6044968 Z M160.1201,86.0423124 C159.709789,86.1656709 159.393119,86.4908238 159.281606,86.9029694 C159.169378,87.315115 159.278747,87.7557828 159.570397,88.0681008 C160.692678,89.2717371 161.31029,90.8319007 161.31029,92.4626568 C161.31029,95.7633869 158.831979,98.5236216 155.54591,98.8837142 C155.10629,98.9314889 154.726716,99.2095802 154.548009,99.6131692 C154.368587,100.016758 154.41934,100.484522 154.679538,100.841049 C155.494443,101.95698 155.925484,103.269001 155.925484,104.637353 C155.925484,108.200487 153.01899,111.099767 149.460572,111.099054 C149.443416,111.097628 149.368359,111.094063 149.350488,111.09335 C148.886564,111.069106 148.4641,111.320814 148.238214,111.719412 C148.011614,112.117296 148.023766,112.606452 148.270382,112.992214 C148.934458,114.032561 149.284724,115.22978 149.284724,116.453382 C149.284724,120.017229 146.378944,122.915796 142.806944,122.915796 C141.796891,122.915796 140.82115,122.68334 139.906884,122.225559 C139.501576,122.022339 139.016922,122.055852 138.644496,122.314691 C138.271355,122.572817 138.069773,123.012772 138.118382,123.463422 C138.144116,123.699443 138.156268,123.930473 138.156268,124.152946 C138.156268,127.71608 135.249773,130.614648 131.677773,130.614648 C130.589089,130.614648 129.510412,130.338696 128.55969,129.816027 C128.166534,129.599258 127.684739,129.613519 127.303021,129.852392 C126.922017,130.090553 126.70042,130.515533 126.724009,130.964758 L126.733302,131.108795 C126.737591,131.177248 126.742595,131.244988 126.742595,131.313441 C126.742595,134.877289 123.836815,137.775856 120.264815,137.775856 C118.391249,137.775856 116.60918,136.961548 115.373956,135.541856 C115.067294,135.188894 114.586214,135.039152 114.133728,135.153241 C113.679811,135.268043 113.329545,135.627422 113.22804,136.083064 C112.574686,139.009441 109.916952,141.13363 106.910382,141.13363 C104.750884,141.13363 102.740785,140.064762 101.532724,138.274994 C101.302549,137.934154 100.917256,137.729507 100.504085,137.729507 C100.092344,137.729507 99.707051,137.934154 99.4761612,138.274994 C98.2681004,140.064762 96.2580015,141.132917 94.0992183,141.132917 C91.9254236,141.132917 89.9067468,140.0505 88.7001156,138.238628 C88.4720852,137.896362 88.0875072,137.688863 87.675051,137.686724 L87.6679027,137.686724 C87.2575909,137.686724 86.8737278,137.888519 86.6435529,138.226507 C85.4333475,139.996308 83.4318266,141.053768 81.2887696,141.053768 C78.2814844,141.053768 75.6251802,138.929578 74.9711118,136.003915 C74.8696061,135.548273 74.5193399,135.188181 74.0647087,135.073379 C73.6122221,134.95929 73.131857,135.109745 72.8251954,135.462707 C71.5906859,136.881685 69.8079027,137.696707 67.9343361,137.696707 C64.3623361,137.696707 61.4558418,134.796714 61.4558418,131.233579 C61.4558418,131.167265 61.4615605,131.102377 61.4658494,131.037489 L61.4751422,130.884895 C61.4987316,130.436384 61.2771346,130.01069 60.8961308,129.771817 C60.5144122,129.532944 60.0340471,129.520822 59.6394616,129.736877 C58.6880243,130.258833 57.6093475,130.535499 56.5206631,130.535499 C52.9486631,130.535499 50.0428837,127.636218 50.0428837,124.072371 C50.0428837,123.851324 50.0557506,123.619581 50.0807696,123.382847 C50.1293779,122.93291 49.9277962,122.492242 49.5546555,122.234829 C49.1822297,121.977416 48.6990053,121.944616 48.2922677,122.145697 C47.3772867,122.604191 46.4015452,122.836647 45.3929217,122.836647 C41.8202068,122.836647 38.9137125,119.936654 38.9137125,116.37352 C38.9137125,115.150631 39.2646935,113.954125 39.9287696,112.913065 C40.1746707,112.527303 40.1875376,112.037434 39.9616517,111.640263 C39.7407696,111.251648 39.3283133,111.013488 38.8829749,111.013488 C38.8550966,111.013488 38.7800395,111.017766 38.7521612,111.019905 C35.1794464,111.019905 32.2729521,108.120625 32.2729521,104.55749 C32.2729521,103.189851 32.7039939,101.877118 33.5188989,100.7619 C33.7790966,100.405373 33.8298494,99.9376091 33.6504274,99.5340201 C33.4717202,99.1304312 33.092146,98.8523398 32.6525262,98.8045652 C29.3664578,98.4444726 26.8888608,95.6842379 26.8888608,92.3835077 C26.8888608,90.7520386 27.506473,89.1911619 28.6280395,87.9889517 C28.9196897,87.6752076 29.0283437,87.2352529 28.9168304,86.8238203 C28.8060319,86.4116747 28.4886479,86.0858087 28.079051,85.9624503 C26.3348684,85.436929 24.9652563,84.2389971 24.1868076,82.7066426 L40.7072183,82.7066426 C40.528511,82.9940036 40.4677506,83.3419743 40.5592487,83.6749708 C40.670762,84.0871165 40.9874312,84.4122694 41.3970281,84.5356279 C43.803857,85.2615175 45.4208,87.4341951 45.4208,89.9448607 C45.4208,91.1413665 45.0448,92.2900976 44.3314008,93.2655564 C44.071203,93.6227968 44.021165,94.0905606 44.2005871,94.4941496 C44.3785795,94.8970255 44.7595833,95.1751168 45.199203,95.2228915 C48.0728152,95.5373486 50.2401764,97.9503257 50.2401764,100.838197 C50.2401764,101.909205 49.9335148,102.955256 49.3530738,103.865827 C49.1078875,104.248738 49.0943057,104.735754 49.3166175,105.133639 C49.53607,105.524393 49.9499559,105.765405 50.3988684,105.765405 C50.4517658,105.763979 50.5018038,105.763266 50.5153856,105.760414 C53.6406175,105.760414 56.182549,108.295323 56.182549,111.412085 C56.182549,111.617445 56.1696821,111.819952 56.1489521,112.019608 C56.1010586,112.468832 56.30407,112.908074 56.6764958,113.164773 C57.0489217,113.422899 57.532146,113.456413 57.9381688,113.252479 C58.7373475,112.851742 59.5894236,112.649235 60.4736669,112.649235 C63.5974692,112.649235 66.1401156,115.184144 66.1401156,118.300906 C66.1401156,118.355812 66.1351118,118.409291 66.1315376,118.46277 L66.1222449,118.611798 C66.1008,119.058884 66.3231118,119.483864 66.7041156,119.721311 C67.0858342,119.958759 67.5661992,119.97088 67.9586403,119.755538 C68.7907011,119.29847 69.7335605,119.056744 70.6864274,119.056744 C73.3162829,119.056744 75.6401916,120.914965 76.2127696,123.474118 C76.3149901,123.930473 76.6652563,124.289853 77.1191726,124.403941 C77.5723741,124.518743 78.0527392,124.367576 78.3586859,124.015327 C79.4380776,122.773185 80.9971194,122.061557 82.6369369,122.061557 C84.5376669,122.061557 86.3025795,123.00778 87.3583817,124.592188 C87.5864122,124.934454 87.9709901,125.141953 88.3834464,125.144092 L88.3913095,125.144092 C88.8009065,125.144092 89.1833399,124.943011 89.4149445,124.60431 C90.4736061,123.056268 92.2242221,122.132862 94.0992183,122.132862 C95.9877962,122.132862 97.7462753,123.066964 98.8027924,124.632119 C99.0336821,124.973672 99.4189749,125.178319 99.8314312,125.178319 C100.243887,125.178319 100.62918,124.973672 100.859355,124.632119 C101.915872,123.067677 103.673637,122.132862 105.562929,122.132862 C107.201317,122.132862 108.761074,122.845917 109.840465,124.086632 C110.146412,124.440307 110.627492,124.590049 111.080694,124.47596 C111.533895,124.361158 111.884876,124.001779 111.986382,123.545424 C112.55896,120.985557 114.882868,119.12805 117.512009,119.12805 C118.465591,119.12805 119.409165,119.369775 120.239081,119.82613 C120.632952,120.041473 121.112602,120.029351 121.494321,119.791904 C121.875325,119.554457 122.097637,119.130902 122.076192,118.683104 L122.067614,118.540493 C122.063325,118.484875 122.059036,118.428543 122.059036,118.372212 C122.059036,115.25545 124.600252,112.72054 127.72477,112.72054 C128.608298,112.72054 129.462519,112.923761 130.262412,113.324498 C130.66772,113.527718 131.151659,113.492779 131.52623,113.234653 C131.898656,112.975814 132.100237,112.534433 132.050914,112.084496 C132.028754,111.886266 132.016602,111.685898 132.016602,111.483391 C132.016602,108.367342 134.558534,105.831006 137.653028,105.830293 C137.672329,105.832432 137.743811,105.83671 137.763827,105.83671 C138.216313,105.858815 138.651644,105.610672 138.878245,105.212788 C139.10556,104.81419 139.093408,104.323608 138.846792,103.937133 C138.265637,103.027275 137.958975,101.980511 137.958975,100.910216 C137.958975,98.0223442 140.126336,95.607941 143.000663,95.294197 C143.439568,95.2457092 143.819857,94.968331 143.998564,94.564742 C144.177986,94.1611531 144.127233,93.6933892 143.867036,93.3375749 C143.153637,92.361403 142.777637,91.2126719 142.777637,90.0161662 C142.777637,87.5454317 144.431751,85.3214141 146.802123,84.6076464 C147.21172,84.4842879 147.528389,84.1584219 147.639903,83.7469894 C147.737834,83.3847576 147.657059,83.0054125 147.440465,82.7066426 L164.268967,82.7066426 C163.560572,84.4087041 162.065865,85.4554684 160.1201,86.0423124 L160.1201,86.0423124 Z M2.62828289,85.9267975 L7.05021445,80.4548159 C7.41692167,80.0027392 7.41692167,79.3559986 7.05021445,78.9032089 L2.62899772,73.4319403 C2.66974297,73.4091225 2.71620684,73.3970006 2.76553004,73.3970006 L18.2472943,73.3970006 L18.2472943,79.9471209 C18.2472943,81.4687796 19.4875224,82.7066426 21.0129673,82.7066426 L21.4926175,82.7066426 C21.9143665,83.9323836 22.6020319,85.0369053 23.4905643,85.9624503 L2.76553004,85.9624503 C2.71620684,85.9624503 2.66974297,85.9496153 2.62828289,85.9267975 L2.62828289,85.9267975 Z M140.96483,93.2284775 C137.740952,94.3322862 135.479948,97.3748905 135.479948,100.910216 C135.479948,101.81223 135.631492,102.702835 135.924572,103.548518 C132.599188,104.281538 130.030808,107.046764 129.601195,110.465862 C128.990017,110.320398 128.363112,110.247667 127.72477,110.247667 C123.718154,110.247667 120.377758,113.148373 119.704389,116.955372 C118.993135,116.75643 118.254716,116.655176 117.512009,116.655176 C114.407507,116.655176 111.599659,118.455639 110.238625,121.138151 C108.88045,120.184797 107.251355,119.659989 105.562929,119.659989 C103.392709,119.659989 101.341865,120.517793 99.8314312,122.01093 C98.3209977,120.517793 96.2694388,119.659276 94.0992183,119.659276 C91.9490129,119.659276 89.9110357,120.504958 88.4027468,121.977416 C86.889454,120.460749 84.825743,119.588683 82.6369369,119.588683 C80.9470814,119.588683 79.3179863,120.113491 77.9598114,121.065419 C76.5987772,118.385047 73.7909293,116.583871 70.6864274,116.583871 C69.944435,116.583871 69.2060167,116.685838 68.494762,116.883354 C67.8213932,113.076355 64.4802829,110.176361 60.4736669,110.176361 C59.8360395,110.176361 59.2084198,110.249806 58.5979559,110.395269 C58.1676289,106.976172 55.5992487,104.210946 52.2752943,103.477213 C52.5676593,102.632243 52.719203,101.740924 52.719203,100.838197 C52.719203,97.302872 50.4589141,94.2609807 47.2343209,93.1571721 C47.672511,92.1489127 47.8998266,91.0615043 47.8998266,89.9448607 C47.8998266,86.9179436 46.2642981,84.2311535 43.6937734,82.8278619 C43.7173627,82.7893569 43.7338038,82.7458606 43.7573932,82.7066426 L144.397439,82.7066426 C144.43461,82.7765219 144.472496,82.8442621 144.505378,82.8991673 C141.934853,84.302459 140.29861,86.989249 140.29861,90.0161662 C140.29861,91.1335229 140.525925,92.2202182 140.96483,93.2284775 L140.96483,93.2284775 Z M20.7263209,64.3732936 C20.7263209,64.2149954 20.8549901,64.0866456 21.0129673,64.0866456 L166.989606,64.0866456 C167.147583,64.0866456 167.276252,64.2149954 167.276252,64.3732936 L167.276252,79.9471209 C167.276252,80.104706 167.147583,80.2337689 166.989606,80.2337689 L21.0129673,80.2337689 C20.8549901,80.2337689 20.7263209,80.104706 20.7263209,79.9471209 L20.7263209,64.3732936 Z M47.2600548,52.1928934 C49.9656821,50.8323851 51.7548989,48.028654 51.7548989,44.9347098 C51.7548989,44.1959851 51.6526783,43.4615388 51.4539559,42.7534755 C55.1696365,42.3263557 58.1333171,39.3949879 58.5979559,35.6992255 C59.2084198,35.8446886 59.8353247,35.9174202 60.4736669,35.9174202 C64.6482677,35.9174202 68.0987468,32.7692838 68.56553,28.7276898 C69.27607,28.9266321 70.0123437,29.0285989 70.7529065,29.0285989 C74.0539863,29.0285989 76.9318875,27.0812465 78.2021384,24.1862445 C79.5131346,25.0376318 81.0543057,25.5046826 82.6369369,25.5046826 C85.2196137,25.5046826 87.5771194,24.3167335 89.0982753,22.3216065 C90.5172106,23.4261282 92.2714008,24.0379291 94.0992183,24.0379291 C95.913454,24.0379291 97.6562068,23.4339718 99.0701384,22.3437112 C100.593439,24.3459688 102.998838,25.5759881 105.562929,25.5759881 C107.144131,25.5759881 108.686017,25.1082242 109.997728,24.25755 C111.267264,27.1518389 114.145165,29.1006174 117.44696,29.1006174 C118.187522,29.1006174 118.923081,28.9979375 119.634336,28.7989953 C120.09969,32.8405892 123.551598,35.9894387 127.72477,35.9894387 C128.363112,35.9894387 128.990017,35.9159941 129.601195,35.7705309 C130.065834,39.4662934 133.029515,42.3976612 136.74591,42.8247809 C136.545758,43.5335573 136.443538,44.2672906 136.443538,45.0060152 C136.443538,48.0992465 138.232754,50.9044036 140.938382,52.2641989 C140.516633,53.2574841 140.29861,54.3270661 140.29861,55.4194659 C140.29861,57.8438518 141.397302,60.0978177 143.190093,61.6130589 L44.9218494,61.6130589 C46.766108,60.0971046 47.8998266,57.8110513 47.8998266,55.3474473 C47.8998266,54.2543345 47.6818038,53.1854655 47.2600548,52.1928934 L47.2600548,52.1928934 Z M31.5788532,47.5131155 C31.9584274,47.4047312 32.2629445,47.1223615 32.3994768,46.7522862 C32.536724,46.3829238 32.4888304,45.9707782 32.2708076,45.64206 C31.567416,44.5824607 31.1957049,43.3510153 31.1957049,42.081778 C31.1957049,38.5186437 34.1021992,35.6193633 37.6741992,35.6193633 C37.9308228,35.6193633 38.2060319,35.641468 38.5412867,35.6856774 C39.0116441,35.7505654 39.4727087,35.5416404 39.7357658,35.1494603 C39.9995376,34.7579933 40.0166935,34.2517245 39.7815148,33.8431441 C39.2139407,32.8605548 38.9137125,31.7474764 38.9137125,30.6244153 C38.9137125,27.0605679 41.8202068,24.1620006 45.3929217,24.1620006 C46.4015452,24.1620006 47.3772867,24.3944565 48.2922677,24.8529506 C48.6975757,25.0547451 49.1822297,25.0212315 49.5546555,24.7638188 C49.9277962,24.505693 50.1293779,24.0650252 50.0807696,23.6150877 C50.0557506,23.3790666 50.0428837,23.1466108 50.0428837,22.9248508 C50.0428837,19.3624296 52.9486631,16.4624361 56.5206631,16.4624361 C57.6472335,16.4624361 58.7630814,16.7619191 59.7488304,17.3280845 C60.1584274,17.5641056 60.6666707,17.5462793 61.058397,17.2831621 C61.450838,17.0200449 61.6588532,16.5572724 61.5952335,16.0909347 C61.5501992,15.7586512 61.5287544,15.4834121 61.5287544,15.2259993 C61.5287544,11.6635781 64.4352487,8.7635847 68.0079635,8.7635847 C69.8336365,8.7635847 71.5256365,9.50801379 72.7715833,10.8599655 C73.0925414,11.2072231 73.5836289,11.3427035 74.0375452,11.2072231 C74.4921764,11.0731688 74.8295757,10.6909715 74.9067772,10.2246338 C75.4264578,7.09574979 78.1099255,4.82538367 81.2887696,4.82538367 C83.1844958,4.82538367 84.980146,5.65466627 86.2168,7.10002812 C86.488435,7.41805051 86.9008913,7.5770617 87.3169217,7.52429566 C87.7322373,7.47152961 88.092511,7.21269076 88.2747924,6.83691094 C89.3691954,4.58508424 91.6008913,3.18607095 94.0992183,3.18607095 C96.5811042,3.18607095 98.8757049,4.63642418 99.945089,6.88040728 C100.125941,7.25832626 100.48407,7.51930427 100.9001,7.57492254 C101.31756,7.62982775 101.730732,7.47295572 102.003796,7.15635944 C103.239021,5.72597174 105.027522,4.9052458 106.910382,4.9052458 C110.089226,4.9052458 112.772694,7.17632497 113.291659,10.3037828 C113.368861,10.7708336 113.70626,11.1523179 114.160891,11.2870852 C114.616237,11.4218526 115.10661,11.2863722 115.426853,10.9391145 C116.6728,9.58858897 118.365515,8.84415988 120.191188,8.84415988 C123.763188,8.84415988 126.669682,11.7427272 126.669682,15.3058614 C126.669682,15.5618481 126.648237,15.8378002 126.603203,16.1722229 C126.541013,16.6392737 126.749028,17.1013331 127.142184,17.3637373 C127.53391,17.6261414 128.042154,17.6425417 128.451036,17.4072336 C129.43464,16.8417812 130.551203,16.5422983 131.677773,16.5422983 C135.249773,16.5422983 138.156268,19.4415786 138.156268,23.0047129 C138.156268,23.2264729 138.144116,23.4589287 138.118382,23.6956629 C138.069773,24.1456004 138.271355,24.5862682 138.644496,24.8429679 C139.017637,25.1010937 139.50229,25.1353203 139.906884,24.9320997 C140.82115,24.4743186 141.796891,24.2411497 142.806944,24.2411497 C146.378944,24.2411497 149.284724,27.1404301 149.284724,30.7035643 C149.284724,31.8280516 148.985211,32.9411299 148.417637,33.9230062 C148.181743,34.3315866 148.198899,34.8385685 148.462671,35.2300355 C148.725013,35.6200764 149.184648,35.8290014 149.657865,35.7655395 C149.993119,35.7206171 150.268329,35.6999385 150.524237,35.6999385 C154.096237,35.6999385 157.002732,38.5985058 157.002732,42.1616401 C157.002732,43.4308774 156.631021,44.6630359 155.928344,45.7212091 C155.710321,46.0499273 155.662427,46.4620729 155.799675,46.8321483 C155.935492,47.2022237 156.240724,47.4838803 156.620298,47.5922646 C159.382397,48.3830422 161.31029,50.9350649 161.31029,53.7994056 C161.31029,55.7068269 160.468222,57.508003 159.001393,58.7415876 C158.662564,59.0260965 158.501728,59.4689034 158.578929,59.9031537 C158.656131,60.337404 158.959933,60.6982097 159.375963,60.8486642 C159.907081,61.0419021 160.401028,61.301454 160.85137,61.6130589 L147.288922,61.6130589 C147.195279,61.2059046 146.906488,60.8693428 146.510473,60.7253058 C144.277348,59.9159887 142.777637,57.7832421 142.777637,55.4194659 C142.777637,54.3085267 143.102884,53.2325271 143.717637,52.3062691 C143.935659,51.9775509 143.983553,51.5654053 143.847021,51.1953299 C143.710488,50.8266806 143.405256,50.5435979 143.025682,50.4352136 C140.610275,49.7435506 138.922564,47.5109763 138.922564,45.0060152 C138.922564,44.0234259 139.185621,43.0493932 139.681713,42.1908753 C139.917606,41.783008 139.901165,41.2760262 139.637393,40.8838461 C139.374336,40.4930921 138.913271,40.283454 138.442199,40.347629 C138.151264,40.386847 137.909652,40.4046733 137.683051,40.4046733 C134.558534,40.4046733 132.016602,37.8697639 132.016602,34.7530019 C132.016602,34.5490683 132.028754,34.350126 132.050914,34.1526099 C132.100237,33.7026723 131.898656,33.2605784 131.52623,33.0017396 C131.151659,32.7436138 130.66772,32.7086741 130.262412,32.9126078 C129.462519,33.3133445 128.608298,33.515852 127.72477,33.515852 C124.600252,33.515852 122.059036,30.9809426 122.059036,27.8634675 C122.059036,27.6381422 122.076906,27.3978428 122.116937,27.1076296 C122.180557,26.6405787 121.972541,26.1778062 121.5801,25.9146891 C121.18623,25.6522849 120.678701,25.6344586 120.269819,25.8704797 C119.40845,26.3660527 118.432709,26.6270307 117.44696,26.6270307 C114.66699,26.6270307 112.319492,24.6411734 111.864861,21.9044695 C111.786944,21.4388448 111.45026,21.0573605 110.996344,20.9218802 C110.540998,20.7871128 110.04991,20.9218802 109.730382,21.2691378 C108.640268,22.4520955 107.160572,23.1031144 105.562929,23.1031144 C103.392709,23.1031144 101.385469,21.8338771 100.449758,19.8708375 C100.269621,19.4936316 99.9107772,19.2326536 99.4954616,19.1770353 C99.0715681,19.120704 98.6641156,19.2782891 98.391051,19.5963115 C97.3109445,20.8477225 95.7468989,21.5650555 94.0992183,21.5650555 C92.44153,21.5650555 90.871051,20.8398789 89.7902297,19.5749199 C89.5200243,19.2583236 89.1082829,19.0993124 88.6893932,19.1513654 C88.2747924,19.2041314 87.9145186,19.4622572 87.7315224,19.8387501 C86.7736517,21.8074941 84.8207392,23.031809 82.6369369,23.031809 C81.0385795,23.031809 79.5588837,22.38079 78.4694844,21.1985454 C78.1485262,20.8498616 77.6574388,20.7150943 77.2028076,20.8498616 C76.7488913,20.985342 76.4107772,21.3668263 76.3335757,21.833164 C75.8796593,24.5691549 73.5321612,26.5557252 70.7529065,26.5557252 C69.7664426,26.5557252 68.7907011,26.2940342 67.9293323,25.7991742 C67.5197354,25.5652923 67.0136365,25.5809795 66.6204806,25.8426705 C66.2287544,26.1057877 66.0193095,26.5671341 66.0822144,27.0341849 C66.12153,27.3293896 66.1401156,27.570402 66.1401156,27.7921621 C66.1401156,30.9089241 63.5974692,33.4452596 60.4736669,33.4452596 C59.5894236,33.4452596 58.7366327,33.241326 57.9381688,32.8413023 C57.5335757,32.6373686 57.0489217,32.6723083 56.6764958,32.928295 C56.30407,33.1857077 56.1010586,33.6256624 56.1489521,34.0741738 C56.1696821,34.2745422 56.182549,34.4763367 56.182549,34.6816964 C56.182549,37.7984585 53.6406175,40.3340809 50.5153856,40.3340809 C50.2887848,40.3340809 50.0478875,40.3155415 49.7569521,40.2763235 C49.2858798,40.2114355 48.8241004,40.4210736 48.5610433,40.8132537 C48.2979863,41.2040076 48.2808304,41.7109895 48.516724,42.1202829 C49.0142449,42.9773746 49.2758722,43.9506943 49.2758722,44.9347098 C49.2758722,47.4403839 47.588876,49.671532 45.1727544,50.3631951 C44.7931802,50.4715794 44.4886631,50.7546621 44.351416,51.1247375 C44.2155985,51.4940998 44.263492,51.9062454 44.4815148,52.2349636 C45.0962677,53.1605086 45.4208,54.2365081 45.4208,55.3474473 C45.4208,57.7119367 43.921089,59.8446832 41.6886783,60.6547134 C41.2733627,60.8051679 40.9695605,61.1659736 40.8923589,61.6002239 C40.8916441,61.6045022 40.8923589,61.6094936 40.8916441,61.6130589 L27.2398418,61.6130589 C27.719492,61.2665143 28.2491802,60.9777271 28.8231878,60.7695152 C29.2392183,60.6183476 29.5430205,60.2575419 29.6195072,59.8240047 C29.6974236,59.3883282 29.5365871,58.9455213 29.1977582,58.6617255 C27.7309293,57.4281409 26.8888608,55.6269648 26.8888608,53.7195435 C26.8888608,50.8559159 28.8174692,48.3031801 31.5788532,47.5131155 L31.5788532,47.5131155 Z M183.477849,79.321772 L187.697484,74.1007856 C187.874762,73.8818778 187.971979,73.6073517 187.971979,73.3249821 C187.971979,71.8040364 186.731036,70.5661735 185.205591,70.5661735 L169.755279,70.5661735 L169.755279,64.3732936 C169.755279,62.8516349 168.514336,61.6130589 166.989606,61.6130589 L164.359751,61.6130589 C163.687811,60.7081925 162.847173,59.9259715 161.870002,59.3227272 C163.105226,57.7604244 163.789317,55.8230548 163.789317,53.7994056 C163.789317,50.3503601 161.767781,47.2286067 158.72404,45.7575749 C159.22299,44.6295224 159.481758,43.4094858 159.481758,42.1616401 C159.481758,37.5239324 155.921195,33.7005332 151.383462,33.267709 C151.635081,32.4370003 151.763751,31.5734911 151.763751,30.7035643 C151.763751,25.7770695 147.745697,21.7689891 142.806944,21.7689891 C142.049226,21.7689891 141.306519,21.8623993 140.584541,22.0485066 C140.105606,17.5698101 136.293424,14.0701377 131.677773,14.0701377 C130.806397,14.0701377 129.940024,14.1984875 129.107249,14.4487697 C128.674062,9.92229857 124.84115,6.37128623 120.191188,6.37128623 C118.394108,6.37128623 116.643492,6.91962528 115.17023,7.91718879 C113.81134,4.64569389 110.601758,2.43237214 106.910382,2.43237214 C104.865971,2.43237214 102.902336,3.13045268 101.327568,4.38685504 C99.6591574,2.11434975 96.9699711,0.713197297 94.0992183,0.713197297 C91.2070205,0.713197297 88.5735909,2.06728815 86.9051802,4.33194983 C85.3246935,3.05986027 83.3496213,2.35251002 81.2887696,2.35251002 C77.5973932,2.35251002 74.3885262,4.56654482 73.0282068,7.83732666 C71.5556593,6.84047621 69.8050433,6.29142411 68.0079635,6.29142411 C63.3580015,6.29142411 59.5243741,9.84243644 59.0911878,14.3696206 C58.259127,14.1186254 57.3920395,13.9895625 56.5206631,13.9895625 C51.9050129,13.9895625 48.0935452,17.490661 47.6146099,21.9693575 C46.8926327,21.7825372 46.1499255,21.689127 45.3929217,21.689127 C40.4527392,21.689127 36.4346859,25.6972074 36.4346859,30.6244153 C36.4346859,31.4929159 36.5647848,32.3571382 36.8149749,33.1871338 C32.2772411,33.6206711 28.7166783,37.4447833 28.7166783,42.081778 C28.7166783,43.3296237 28.9754464,44.5503733 29.4751118,45.6784258 C26.4320852,47.1487446 24.4098342,50.270498 24.4098342,53.7195435 C24.4098342,55.7439057 25.0946403,57.6805623 26.328435,59.2428651 C25.5442677,59.7277423 24.6228532,60.7723674 23.9523437,61.6130589 L21.0129673,61.6130589 C19.4875224,61.6130589 18.2472943,62.8516349 18.2472943,64.3732936 L18.2472943,70.9234139 L2.76553004,70.9234139 C1.2408,70.9234139 -0.00014296578,72.1605638 -0.00014296578,73.6822225 C-0.00014296578,73.9645921 0.0963589354,74.2384051 0.274351331,74.458026 L4.49327148,79.6790124 L0.274351331,84.8999988 C0.0963589354,85.1196196 -0.00014296578,85.3934326 -0.00014296578,85.6765153 C-0.00014296578,87.197461 1.2408,88.4353239 2.76553004,88.4353239 L25.3405414,88.4353239 C24.7350814,89.6532213 24.4098342,90.9980425 24.4098342,92.3835077 C24.4098342,96.324561 26.9660624,99.7101446 30.5916745,100.880267 C30.0662753,102.028998 29.7939255,103.275418 29.7939255,104.55749 C29.7939255,108.879315 32.8862753,112.493789 36.9793856,113.316654 C36.6205414,114.292826 36.4346859,115.326755 36.4346859,116.37352 C36.4346859,121.301441 40.4527392,125.309521 45.3929217,125.309521 C46.1499255,125.309521 46.8926327,125.215398 47.6146099,125.02929 C48.0942601,129.507987 51.9057278,133.007659 56.5206631,133.007659 C57.3913247,133.007659 58.2569825,132.880736 59.086184,132.633306 C59.7616973,136.898086 63.473089,140.168868 67.9343361,140.168868 C69.8493627,140.168868 71.6936213,139.55564 73.2147772,138.444701 C74.6808913,141.477323 77.8168456,143.526642 81.2887696,143.526642 C83.7027468,143.526642 85.9873399,142.556888 87.6557506,140.875505 C89.329165,142.606801 91.6416365,143.605791 94.0992183,143.605791 C96.5353551,143.605791 98.83353,142.623202 100.504085,140.916862 C102.17464,142.623202 104.47353,143.606504 106.910382,143.606504 C110.383021,143.606504 113.517545,141.557898 114.984374,138.524563 C116.50553,139.635503 118.350503,140.249443 120.264815,140.249443 C124.726777,140.249443 128.436739,136.977235 129.112252,132.712455 C129.942169,132.960598 130.807112,133.088234 131.677773,133.088234 C136.293424,133.088234 140.104891,129.587849 140.584541,125.108439 C141.306519,125.29526 142.049226,125.38867 142.806944,125.38867 C147.745697,125.38867 151.763751,121.38059 151.763751,116.453382 C151.763751,115.405191 151.57861,114.372688 151.220481,113.397229 C155.312876,112.573651 158.404511,108.959177 158.404511,104.637353 C158.404511,103.35528 158.132161,102.109574 157.606762,100.960129 C161.233089,99.7900067 163.789317,96.4044231 163.789317,92.4626568 C163.789317,90.9103367 163.381865,89.4065044 162.624861,88.0773705 L185.205591,88.0773705 C186.731036,88.0773705 187.971979,86.8395075 187.971979,85.3185619 C187.971979,85.0361922 187.874762,84.7623792 187.697484,84.5427584 L183.477849,79.321772 Z" id="Fill-29"></path>
                    </g>
                </g>
            </g>
        </g>
    </g>
</svg>