<?xml version="1.0" encoding="UTF-8" standalone="no"?>
<svg width="193px" height="127px" viewBox="0 0 193 127" version="1.1" xmlns="http://www.w3.org/2000/svg" xmlns:xlink="http://www.w3.org/1999/xlink">
    <!-- Generator: Sketch 3.6.1 (26313) - http://www.bohemiancoding.com/sketch -->
    <title>Icon</title>
    <desc>Created with Sketch.</desc>
    <defs>
        <path id="path-1" d="M73.9443232,0.24933945 L0,0.24933945 L0,125.225845 L73.9443232,125.225845 L73.9443232,0.24933945 L73.9443232,0.24933945 Z"></path>
        <path id="path-3" d="M96.8500656,125.225787 L96.8500656,0.24933945 L0.203673783,0.24933945 L0.203673783,125.225787 L96.8500656,125.225787 L96.8500656,125.225787 Z"></path>
    </defs>
    <g id="Desktop" stroke="none" stroke-width="1" fill="none" fill-rule="evenodd">
        <g id="What-is-Direct-Cremation" transform="translate(-669.000000, -3269.000000)">
            <g id="Not-included" transform="translate(0.000000, 3028.000000)">
                <g id="Overages" transform="translate(669.000000, 241.000000)">
                    <g id="Icon">
                        <g id="Group-5" transform="translate(0.000000, 0.333229)">
                            <mask id="mask-2" fill="white">
                                <use xlink:href="#path-1"></use>
                            </mask>
                            <g id="Clip-4"></g>
                            <path d="M18.921209,123.101799 L55.0227047,123.101799 L71.7550064,37.9879138 L51.4099224,2.37315229 L22.5334063,2.37315229 L2.18832225,37.9879138 L18.921209,123.101799 Z M55.9003037,125.225845 L18.043025,125.225845 C17.5340176,125.225845 17.0958032,124.865817 16.996927,124.367721 L0.0194826968,38.0094688 C-0.0290777787,37.7595468 0.0130469711,37.5008862 0.139421221,37.2806752 L20.987662,0.786234862 C21.1766383,0.454753211 21.5294331,0.249106422 21.9138215,0.249106422 L52.0295072,0.249106422 C52.4133105,0.249106422 52.7666904,0.454753211 52.9568368,0.786234862 L73.8050776,37.2806752 C73.9308668,37.5008862 73.9735766,37.7595468 73.9244311,38.0094688 L56.9458166,124.367721 C56.8481106,124.865817 56.4098962,125.225845 55.9003037,125.225845 L55.9003037,125.225845 Z" id="Fill-3" fill="#7AB1D6" mask="url(#mask-2)"></path>
                        </g>
                        <path d="M23.9679881,116.885673 L49.9753406,116.885673 L65.3965095,39.5875312 L47.7123054,9.25550367 L26.2321934,9.25550367 L8.54798935,39.5875312 L23.9679881,116.885673 Z M50.8500142,119.009137 L23.0938995,119.009137 C22.5843071,119.009137 22.1466777,118.651439 22.0478016,118.154508 L6.3773946,39.6085037 C6.32766399,39.3550862 6.37154394,39.0929303 6.50142859,38.8686413 L24.6963952,7.66043028 C24.8859566,7.33302661 25.2375812,7.13204037 25.617289,7.13204037 L48.3260396,7.13204037 C48.7063325,7.13204037 49.0573721,7.33302661 49.2475185,7.66043028 L67.4430702,38.8686413 C67.5717847,39.0929303 67.6162498,39.3550862 67.5665191,39.6085037 L51.8966973,118.154508 C51.797236,118.651439 51.3596067,119.009137 50.8500142,119.009137 L50.8500142,119.009137 Z" id="Fill-6" fill="#7AB1D6"></path>
                        <path d="M33.6432825,43.6003234 C31.8096858,43.6003234 30.3183526,45.0835436 30.3183526,46.9087317 C30.3183526,47.7761766 30.6524253,48.5958509 31.2603088,49.2162867 L36.7751407,55.1963555 C36.8903987,55.3204427 37.0559723,55.3192775 37.1647946,55.1981032 L42.6609043,49.2413372 C43.2910204,48.5981812 43.6268483,47.7779243 43.6268483,46.9098968 C43.6268483,45.0847087 42.1337599,43.6003234 40.3007482,43.6003234 C39.3295387,43.6003234 38.4104001,44.0197729 37.780284,44.7503142 C37.5784363,44.9850894 37.2841481,45.1202454 36.9717228,45.1202454 C36.6604678,45.1202454 36.3655945,44.985672 36.1637467,44.7514794 C35.5318755,44.0203555 34.6127369,43.6003234 33.6432825,43.6003234 M36.9705527,57.4112821 C36.2930463,57.4112821 35.6652705,57.1333968 35.2036535,56.6306399 L29.709884,50.6756216 C28.733994,49.6788463 28.1857872,48.3331124 28.1857872,46.9087317 C28.1857872,43.9131628 30.6331181,41.4762775 33.6432825,41.4762775 C34.8584646,41.4762775 36.0256712,41.87825 36.9705527,42.6029656 C37.9166044,41.8788326 39.0832259,41.4762775 40.3007482,41.4762775 C43.3103276,41.4762775 45.7576585,43.9137454 45.7576585,46.9098968 C45.7576585,48.3354427 45.2065264,49.6811766 44.2084038,50.7012546 L38.7374519,56.6323876 C38.2787602,57.1333968 37.6498143,57.4112821 36.9705527,57.4112821" id="Fill-8" fill="#7AB1D6"></path>
                        <g id="Group-14" transform="translate(95.950819, 0.333229)">
                            <mask id="mask-4" fill="white">
                                <use xlink:href="#path-3"></use>
                            </mask>
                            <g id="Clip-13"></g>
                            <path d="M24.4416575,123.102906 L72.6130642,123.102906 L94.6244161,38.0332959 L67.8120128,2.37251147 L29.2421238,2.37251147 L2.42855034,38.0332959 L24.4416575,123.102906 Z M73.4391773,125.225787 L23.6161294,125.225787 C23.1299396,125.225787 22.7045966,124.897218 22.583488,124.428833 L0.237478278,38.0694151 C0.156739174,37.7571583 0.222266562,37.4262592 0.416508465,37.1681812 L27.8555174,0.674323394 C28.05561,0.406924312 28.3721307,0.249048165 28.7073735,0.249048165 L68.345593,0.249048165 C68.6802507,0.249048165 68.9961864,0.406924312 69.1986192,0.674323394 L96.6358729,37.1681812 C96.831285,37.4262592 96.8973974,37.7571583 96.8166583,38.0694151 L74.4718188,124.428833 C74.3501251,124.897218 73.9253672,125.225787 73.4391773,125.225787 L73.4391773,125.225787 Z" id="Fill-12" fill="#7AB1D6" mask="url(#mask-4)"></path>
                        </g>
                        <path d="M127.033326,116.886256 L161.921395,116.886256 L182.206218,39.6341367 L158.893094,9.25375596 L130.060458,9.25375596 L106.750844,39.6341367 L127.033326,116.886256 Z M162.743998,119.009719 L126.210724,119.009719 C125.725704,119.009719 125.302116,118.683481 125.180423,118.216261 L104.558017,39.6685083 C104.473768,39.3533385 104.541635,39.0171963 104.741728,38.7573706 L128.687308,7.54857706 C128.887401,7.28583853 129.201581,7.13204037 129.533898,7.13204037 L159.420238,7.13204037 C159.753141,7.13204037 160.066151,7.28583853 160.267414,7.54857706 L184.214749,38.7573706 C184.413672,39.0171963 184.482124,39.3533385 184.399045,39.6685083 L163.774299,118.216261 C163.652606,118.683481 163.230188,119.009719 162.743998,119.009719 L162.743998,119.009719 Z" id="Fill-15" fill="#7AB1D6"></path>
                        <path d="M138.831182,43.5992165 C135.312595,43.5992165 132.450452,46.447978 132.450452,49.9492165 C132.450452,51.6141982 133.09344,53.1877165 134.257721,54.3779046 L143.596544,64.5041156 C144.071618,65.0208541 144.885444,65.019689 145.351742,64.5070284 L154.670088,54.4047028 C155.860697,53.1906294 156.50427,51.6176936 156.50427,49.9521294 C156.50427,46.4497257 153.640957,43.5992165 150.121785,43.5992165 C148.25835,43.5992165 146.495546,44.403744 145.285045,45.8071523 C145.083197,46.0407624 144.788324,46.1765009 144.476483,46.1765009 C144.165228,46.1765009 143.870355,46.0419275 143.667337,45.8077349 C142.456251,44.403744 140.693447,43.5992165 138.831182,43.5992165 M144.476483,67.0208128 C143.536867,67.0208128 142.665704,66.6363174 142.025642,65.9378174 L132.708466,55.8366569 C131.175594,54.2701294 130.319642,52.1711339 130.319642,49.9492165 C130.319642,45.2770147 134.138368,41.4757532 138.831182,41.4757532 C140.928058,41.4757532 142.930154,42.2418312 144.475898,43.6062073 C146.021058,42.2418312 148.024323,41.4757532 150.121785,41.4757532 C154.816354,41.4757532 158.63625,45.2781798 158.63625,49.9521294 C158.63625,52.1746294 157.777373,54.2736248 156.218172,55.8646202 L146.924984,65.9395651 C146.288433,66.6357349 145.416684,67.0208128 144.476483,67.0208128" id="Fill-17" fill="#7AB1D6"></path>
                        <path d="M106.497745,2.68453532 L67.0011114,2.68453532 C66.4236513,2.68453532 65.9555985,2.21848028 65.9555985,1.64348486 C65.9555985,1.06907202 66.4236513,0.603016972 67.0011114,0.603016972 L106.497745,0.603016972 C107.075205,0.603016972 107.543258,1.06907202 107.543258,1.64348486 C107.543258,2.21848028 107.075205,2.68453532 106.497745,2.68453532" id="Fill-19" fill="#7AB1D6"></path>
                        <path d="M104.259751,13.1121674 L69.2382867,13.1121674 C68.6608265,13.1121674 68.1933588,12.6461124 68.1933588,12.071117 C68.1933588,11.4961216 68.6608265,11.0300665 69.2382867,11.0300665 L104.259751,11.0300665 C104.836626,11.0300665 105.305263,11.4961216 105.305263,12.071117 C105.305263,12.6461124 104.836626,13.1121674 104.259751,13.1121674" id="Fill-21" fill="#7AB1D6"></path>
                        <path d="M106.497745,126.750661 L67.0011114,126.750661 C66.4236513,126.750661 65.9555985,126.284606 65.9555985,125.70961 C65.9555985,125.135197 66.4236513,124.66856 67.0011114,124.66856 L106.497745,124.66856 C107.075205,124.66856 107.543258,125.135197 107.543258,125.70961 C107.543258,126.284606 107.075205,126.750661 106.497745,126.750661" id="Fill-23" fill="#7AB1D6"></path>
                        <path d="M104.259751,116.323028 L69.2382867,116.323028 C68.6608265,116.323028 68.1933588,115.856973 68.1933588,115.282561 C68.1933588,114.707565 68.6608265,114.24151 69.2382867,114.24151 L104.259751,114.24151 C104.836626,114.24151 105.305263,114.707565 105.305263,115.282561 C105.305263,115.856973 104.836626,116.323028 104.259751,116.323028" id="Fill-25" fill="#7AB1D6"></path>
                    </g>
                </g>
            </g>
        </g>
    </g>
</svg>