<?xml version="1.0" encoding="UTF-8" standalone="no"?>
<svg width="84px" height="147px" viewBox="0 0 84 147" version="1.1" xmlns="http://www.w3.org/2000/svg" xmlns:xlink="http://www.w3.org/1999/xlink">
    <!-- Generator: Sketch 3.6.1 (26313) - http://www.bohemiancoding.com/sketch -->
    <title>Icon</title>
    <desc>Created with Sketch.</desc>
    <defs></defs>
    <g id="Desktop" stroke="none" stroke-width="1" fill="none" fill-rule="evenodd">
        <g id="What-is-Direct-Cremation" transform="translate(-456.000000, -3255.000000)" fill="#6FB2E1">
            <g id="Not-included" transform="translate(0.000000, 3028.000000)">
                <g id="Urn" transform="translate(434.000000, 227.000000)">
                    <g id="Icon" transform="translate(22.000000, 0.000000)">
                        <path d="M14.5256842,144.506839 L69.0669474,144.506839 C70.5006316,137.21093 79.8397895,89.1623305 81.1995789,68.8822413 C82.6237895,47.6174979 64.0054737,35.4027364 63.8172632,35.2815482 C63.4856842,35.0682065 63.2848421,34.7014859 63.2848421,34.3076243 L63.2848421,26.9119876 L20.3077895,26.9119876 L20.3077895,34.3076243 C20.3077895,34.7008547 20.1069474,35.0675753 19.7766316,35.280917 C19.5884211,35.4027364 0.970105263,47.6560004 2.39368421,68.8822413 C3.75284211,89.1623305 13.092,137.21093 14.5256842,144.506839 M70.0193684,146.822039 L13.5732632,146.822039 C13.0206316,146.822039 12.5450526,146.432595 12.4370526,145.889773 C12.3284211,145.345057 1.55747368,91.0514779 0.0833684211,69.0375137 C-1.29221053,48.5301966 14.8282105,35.9607072 17.9911579,33.701052 L17.9911579,25.7550189 C17.9911579,25.1162561 18.5103158,24.5974191 19.1494737,24.5974191 L64.4431579,24.5974191 C65.0829474,24.5974191 65.6014737,25.1162561 65.6014737,25.7550189 L65.6014737,33.701052 C68.7650526,35.9607072 84.8842105,48.5301966 83.5105263,69.0375137 C82.0351579,91.0514779 71.2642105,145.345057 71.1555789,145.889773 C71.0475789,146.432595 70.572,146.822039 70.0193684,146.822039 Z M64.4938105,22.6184535 L19.0997053,22.6184535 C18.4599158,22.6184535 17.9413895,22.1002477 17.9413895,21.4608537 L17.9413895,18.2834503 C17.9413895,17.8687594 18.1643368,17.485628 18.5237053,17.2792293 C18.8382316,17.0993406 26.3439158,12.8596468 36.5496,12.4815649 L40.4830737,12.3370227 L42.4030737,12.3124063 L47.0432842,12.4815649 C57.2489684,12.8596468 64.7552842,17.0993406 65.0698105,17.2792293 C65.4291789,17.485628 65.6521263,17.8687594 65.6521263,18.2834503 L65.6521263,21.4608537 C65.6521263,22.1002477 65.1336,22.6184535 64.4938105,22.6184535 Z M20.2580211,20.3032538 L63.3354947,20.3032538 L63.3354947,18.9815449 C61.4249684,18.0170888 55.0100211,15.0934232 46.9580211,14.794871 L42.3752842,14.6263437 L40.5411789,14.65096 L36.6348632,14.794871 C28.5594947,15.0946856 22.1647579,18.0151952 20.2580211,18.9802825 L20.2580211,20.3032538 Z M41.7977053,11.2564278 C38.8652842,11.2564278 36.4798105,8.87305975 36.4798105,5.94308234 C36.4798105,3.01373613 38.8652842,0.630999227 41.7977053,0.630999227 C44.7288632,0.630999227 47.1137053,3.01373613 47.1137053,5.94308234 C47.1137053,8.87305975 44.7288632,11.2564278 41.7977053,11.2564278 Z M41.7977053,2.94556776 C40.1429684,2.94556776 38.7964421,4.29063063 38.7964421,5.94308234 C38.7964421,7.59616524 40.1429684,8.9418593 41.7977053,8.9418593 C43.4518105,8.9418593 44.7970737,7.59616524 44.7970737,5.94308234 C44.7970737,4.29063063 43.4518105,2.94556776 41.7977053,2.94556776 Z M41.7966316,74.8046206 C41.0267368,74.8046206 40.3149474,74.4896575 39.792,73.9171695 L33.3562105,66.9141322 C32.2275789,65.7571635 31.5928421,64.1974965 31.5928421,62.5463072 C31.5928421,59.0741388 34.4204211,56.2489387 37.8953684,56.2489387 C39.3233684,56.2489387 40.6938947,56.7311667 41.796,57.599051 C42.8968421,56.7311667 44.2673684,56.2489387 45.6966316,56.2489387 C49.1715789,56.2489387 51.9991579,59.0754011 51.9991579,62.5482007 C51.9991579,64.2012836 51.3637895,65.7615818 50.2092632,66.9419045 L43.7981053,73.9196942 C43.2776842,74.4890263 42.5665263,74.8046206 41.7966316,74.8046206 Z M37.8953684,58.5641384 C35.6981053,58.5641384 33.9094737,60.3504021 33.9094737,62.5463072 C33.9094737,63.5909243 34.3105263,64.5768408 35.0393684,65.3235369 L41.4997895,72.3537154 C41.6684211,72.5380224 41.9273684,72.5354977 42.0890526,72.3568713 L48.528,65.350678 C49.2808421,64.5787344 49.6825263,63.5928178 49.6825263,62.5482007 C49.6825263,60.3516645 47.8945263,58.5641384 45.6966316,58.5641384 C44.5326316,58.5641384 43.4317895,59.0690893 42.6751579,59.9483349 C42.4553684,60.2045975 42.1345263,60.3516645 41.7972632,60.3516645 L41.7966316,60.3516645 C41.46,60.3516645 41.1391579,60.2052287 40.9187368,59.9495973 C40.1602105,59.0690893 39.0581053,58.5641384 37.8953684,58.5641384 Z" id="Combined-Shape"></path>
                    </g>
                </g>
            </g>
        </g>
    </g>
</svg>