<?xml version="1.0" encoding="UTF-8" standalone="no"?>
<svg width="89px" height="142px" viewBox="0 0 89 142" version="1.1" xmlns="http://www.w3.org/2000/svg" xmlns:xlink="http://www.w3.org/1999/xlink">
    <!-- Generator: Sketch 3.6.1 (26313) - http://www.bohemiancoding.com/sketch -->
    <title>Icon</title>
    <desc>Created with Sketch.</desc>
    <defs>
        <path id="path-1" d="M0,140.939974 L87.6290824,140.939974 L87.6290824,0.27248395 L0,0.27248395 L0,140.939974 L0,140.939974 Z"></path>
    </defs>
    <g id="Desktop" stroke="none" stroke-width="1" fill="none" fill-rule="evenodd">
        <g id="What-is-Immediate-Burial" transform="translate(-740.000000, -3556.000000)">
            <g id="Not-included" transform="translate(0.000000, 3328.000000)">
                <g id="Burial-plot" transform="translate(713.000000, 228.000000)">
                    <g id="Icon" transform="translate(27.000000, 0.000000)">
                        <g id="Group-5" transform="translate(0.458866, 0.683302)">
                            <mask id="mask-2" fill="white">
                                <use xlink:href="#path-1"></use>
                            </mask>
                            <g id="Clip-4"></g>
                            <path d="M3.10715247,138.255403 L16.6724943,88.8089621 L26.4859349,88.8089621 C32.7955838,99.2076477 38.9606703,108.233846 42.2392133,112.913725 C42.5115287,113.303658 42.9472334,113.531847 43.4105058,113.531847 C43.871761,113.531847 44.3074657,113.302316 44.5797811,112.913725 C46.153159,110.668752 52.9502862,100.857988 60.2160648,88.8089621 L74.4813581,88.8089621 L84.6363696,138.255403 L3.10715247,138.255403 Z M43.4105058,3.27718997 C62.5882346,3.27718997 77.6119767,19.9128049 77.6119767,41.1511167 C77.6119767,55.1967918 59.4535817,86.321036 43.4105058,109.467407 C26.6547032,85.3203622 9.20567292,55.1994764 9.20567292,41.1511167 C9.20567292,20.2671683 24.5487973,3.27718997 43.4105058,3.27718997 L43.4105058,3.27718997 Z M87.6015819,139.32856 L76.8958881,87.1975484 C76.7681352,86.5727146 76.2174529,86.1243912 75.5786883,86.1243912 L61.8190276,86.1243912 C71.0663211,70.5001884 80.5059163,51.9162461 80.5059163,41.1511167 C80.5059163,18.2282366 64.211369,0.27248395 43.4105058,0.27248395 C22.9545755,0.27248395 6.31173334,18.610788 6.31173334,41.1511167 C6.31173334,52.1289984 15.4938056,70.3639464 24.8722139,86.1243912 L15.6457643,86.1243912 C15.0399466,86.1243912 14.5087634,86.5290903 14.3494085,87.1123133 L0.0478064834,139.243325 C-0.0631368325,139.646682 0.0209111341,140.079569 0.275744569,140.411785 C0.52990562,140.744671 0.925267255,140.939974 1.3448347,140.939974 L86.2843821,140.939974 C86.6884848,140.939974 87.0710711,140.758765 87.3265769,140.446684 C87.5820827,140.133932 87.6829403,139.722521 87.6015819,139.32856 L87.6015819,139.32856 Z" id="Fill-3" fill="#7AB1D6" mask="url(#mask-2)"></path>
                        </g>
                        <path d="M43.9203244,26.4116655 C36.9605076,26.4116655 31.2991641,31.7971729 31.2991641,38.413336 C31.2991641,45.0313506 36.9605076,50.4156237 43.9203244,50.4156237 C50.8776679,50.4156237 56.5390115,45.0313506 56.5390115,38.413336 C56.5390115,31.7971729 50.8776679,26.4116655 43.9203244,26.4116655 M43.9203244,52.7516477 C35.4919962,52.7516477 28.6385305,46.3200212 28.6385305,38.413336 C28.6385305,30.5078851 35.4919962,24.0750243 43.9203244,24.0750243 C52.3449427,24.0750243 59.199645,30.5078851 59.199645,38.413336 C59.199645,46.3200212 52.3449427,52.7516477 43.9203244,52.7516477" id="Fill-6" fill="#7AB1D6"></path>
                    </g>
                </g>
            </g>
        </g>
    </g>
</svg>