<?xml version="1.0" encoding="UTF-8" standalone="no"?>
<svg width="90px" height="153px" viewBox="0 0 90 153" version="1.1" xmlns="http://www.w3.org/2000/svg" xmlns:xlink="http://www.w3.org/1999/xlink">
    <!-- Generator: Sketch 3.6.1 (26313) - http://www.bohemiancoding.com/sketch -->
    <title>Icon</title>
    <desc>Created with Sketch.</desc>
    <defs></defs>
    <g id="Desktop" stroke="none" stroke-width="1" fill="none" fill-rule="evenodd">
        <g id="What-is-Immediate-Burial" transform="translate(-476.000000, -3552.000000)" fill="#6FB2E1">
            <g id="Not-included" transform="translate(0.000000, 3328.000000)">
                <g id="cASKET" transform="translate(438.000000, 224.000000)">
                    <g id="Icon" transform="translate(38.000000, 0.000000)">
                        <path d="M22.835449,150.542169 L66.7585102,150.542169 L87.0807551,46.3540843 L62.3583061,2.73495181 L27.2356531,2.73495181 L2.51381633,46.3540843 L22.835449,150.542169 Z M67.7668776,153 L21.8276939,153 C21.2417755,153 20.7385102,152.584012 20.6258571,152.007036 L0.0225918367,46.3792771 C-0.0337346939,46.0904819 0.015244898,45.791241 0.160346939,45.5356265 L25.4589184,0.898337349 C25.6768776,0.514301205 26.0827959,0.277120482 26.523,0.277120482 L63.0703469,0.277120482 C63.510551,0.277120482 63.9170816,0.514301205 64.1344286,0.898337349 L89.4336122,45.5356265 C89.5787143,45.791241 89.6276939,46.0904819 89.5713673,46.3792771 L68.9687143,152.007036 C68.8560612,152.584012 68.3521837,153 67.7668776,153 L67.7668776,153 Z" id="Fill-2"></path>
                        <path d="M28.9599796,142.53142 L60.6338571,142.53142 L79.3636531,47.9043 L57.8707959,10.7455771 L31.7236531,10.7455771 L10.2307959,47.9043 L28.9599796,142.53142 Z M61.6391633,144.989252 L27.9546735,144.989252 C27.3705918,144.989252 26.8679388,144.575107 26.7540612,143.999975 L7.73834694,47.9276494 C7.68018367,47.634553 7.731,47.3297819 7.88038776,47.0717096 L29.9597755,8.89974578 C30.1789592,8.52123976 30.5818163,8.28774578 31.0183469,8.28774578 L58.5754898,8.28774578 C59.0120204,8.28774578 59.4154898,8.52123976 59.6346735,8.89974578 L81.713449,47.0717096 C81.863449,47.3297819 81.9136531,47.634553 81.8554898,47.9276494 L62.8397755,143.999975 C62.7265102,144.575107 62.2232449,144.989252 61.6391633,144.989252 L61.6391633,144.989252 Z" id="Fill-5"></path>
                        <path d="M40.7570204,52.7536627 C38.4941633,52.7536627 36.6531429,54.6007229 36.6531429,56.8705301 C36.6531429,57.9501325 37.0657959,58.9695181 37.8151837,59.7418916 L44.5076327,67.0545542 C44.673551,67.2364337 44.9221224,67.2333614 45.0825306,67.0576265 L51.751102,59.7701566 C52.5274286,58.9713614 52.9406939,57.9519759 52.9406939,56.8723735 C52.9406939,54.6013373 51.0996735,52.7536627 48.8362041,52.7536627 C47.6374286,52.7536627 46.5041633,53.2753373 45.726,54.1847349 C45.4933469,54.4563253 45.1541633,54.613012 44.7972245,54.613012 L44.7966122,54.613012 C44.4402857,54.613012 44.101102,54.4569398 43.868449,54.1859639 C43.088449,53.2759518 41.9545714,52.7536627 40.7570204,52.7536627 M44.7966122,69.6463373 C43.9927347,69.6463373 43.2488571,69.315759 42.7021224,68.7148193 L36.036,61.4310361 C34.863551,60.223012 34.2041633,58.5940843 34.2041633,56.8705301 C34.2041633,53.2452289 37.143551,50.2958313 40.7570204,50.2958313 C42.2349796,50.2958313 43.6529388,50.7947711 44.796,51.692494 C45.938449,50.7947711 47.3564082,50.2958313 48.8362041,50.2958313 C52.4502857,50.2958313 55.3896735,53.2458434 55.3896735,56.8723735 C55.3896735,58.5971566 54.7290612,60.2266988 53.5290612,61.4599157 L46.8892653,68.7172771 C46.3455918,69.3151446 45.6017143,69.6463373 44.7966122,69.6463373" id="Fill-9"></path>
                    </g>
                </g>
            </g>
        </g>
    </g>
</svg>