<?xml version="1.0" encoding="UTF-8" standalone="no"?>
<svg width="447px" height="60px" viewBox="0 0 447 60" version="1.1" xmlns="http://www.w3.org/2000/svg" xmlns:xlink="http://www.w3.org/1999/xlink">
    <!-- Generator: Sketch 3.6.1 (26313) - http://www.bohemiancoding.com/sketch -->
    <title>Page 1</title>
    <desc>Created with Sketch.</desc>
    <defs>
        <path id="path-1" d="M47.7005,0 L0.0005,0 L0.0005,59.0026 L47.7005,59.0026 L47.7005,7.10542736e-15 L47.7005,0 Z"></path>
        <path id="path-3" d="M0.5483,44 L38.6093,44 L38.6093,0.2044 L0.5483,0.2044 L0.5483,44 L0.5483,44 Z"></path>
        <path id="path-5" d="M34.0039,-7.88860905e-31 L0.0989,-7.88860905e-31 L0.0989,59.0026 L34.0039,59.0026 L34.0039,-7.10542736e-15 L34.0039,-7.88860905e-31 Z"></path>
        <path id="path-7" d="M0.0073,44 L39.5643,44 L39.5643,0.6202 L0.0073,0.6202 L0.0073,44 L0.0073,44 Z"></path>
        <path id="path-9" d="M0.2833,45 L37.3473,45 L37.3473,0.6231 L0.2833,0.6231 L0.2833,45 L0.2833,45 Z"></path>
        <path id="path-11" d="M17.2234,0 L0.8524,0 L0.8524,59.4186 L17.2234,59.4186 L17.2234,7.10542736e-15 L17.2234,0 Z"></path>
        <path id="path-13" d="M17.293,16.0479 L17.293,0 L0.9047,0 L0.9047,16.0479 L17.293,16.0479 L17.293,16.0479 Z"></path>
    </defs>
    <g id="Desktop" stroke="none" stroke-width="1" fill="none" fill-rule="evenodd">
        <g id="Page-1">
            <g id="Group-3">
                <mask id="mask-2" fill="white">
                    <use xlink:href="#path-1"></use>
                </mask>
                <g id="Clip-2"></g>
                <path d="M20.9415,5.2036 L2.0775,5.2036 C0.7475,5.2036 0.0005,4.4476 0.0005,3.1056 L0.0005,2.0976 C0.0005,0.7556 0.7475,-0.0004 2.0775,-0.0004 L45.6225,-0.0004 C46.9525,-0.0004 47.7005,0.7556 47.7005,2.0976 L47.7005,3.1056 C47.7005,4.4476 46.9525,5.2036 45.6225,5.2036 L26.6755,5.2036 L26.6755,56.9046 C26.6755,58.2466 26.0105,59.0026 24.6805,59.0026 L23.0185,59.0026 C21.6885,59.0026 20.9415,58.2466 20.9415,56.9046 L20.9415,5.2036 Z" id="Fill-1" fill="#181312" mask="url(#mask-2)"></path>
            </g>
            <path d="M47.7003,19.2798 C47.7003,17.9498 48.4483,17.2028 49.7783,17.2028 L51.2743,17.2028 C52.5213,17.2028 53.2683,17.9498 53.2683,19.2798 L53.2683,24.9308 C53.2683,26.7588 52.9353,28.2548 52.9353,28.2548 L53.1023,28.2548 C55.0973,22.1888 59.9173,16.9528 66.5643,16.9528 C68.0613,16.9528 68.7253,17.6178 68.7253,18.9468 L68.7253,20.4438 C68.7253,21.7728 67.8113,22.5208 66.3983,22.5208 C57.5903,22.5208 53.3513,32.5758 53.3513,41.3018 L53.3513,56.9248 C53.3513,58.2538 52.6863,59.0028 51.3573,59.0028 L49.7783,59.0028 C48.4483,59.0028 47.7003,58.2538 47.7003,56.9248 L47.7003,19.2798 Z" id="Fill-4" fill="#181312"></path>
            <path d="M73.7281,19.2798 C73.7281,17.9498 74.3931,17.2028 75.7221,17.2028 L77.3021,17.2028 C78.6311,17.2028 79.3791,17.9498 79.3791,19.2798 L79.3791,42.2988 C79.3791,48.8638 80.3771,54.6818 88.4361,54.6818 C97.9941,54.6818 103.8941,46.2878 103.8941,37.2298 L103.8941,19.2798 C103.8941,17.9498 104.6411,17.2028 105.9721,17.2028 L107.5501,17.2028 C108.8801,17.2028 109.5451,17.9498 109.5451,19.2798 L109.5451,56.9248 C109.5451,58.2538 108.8801,59.0028 107.5501,59.0028 L106.0551,59.0028 C104.7251,59.0028 104.0611,58.2538 104.0611,56.9248 L104.0611,52.1058 C104.0611,50.4428 104.3101,49.1138 104.3101,49.1138 L104.1441,49.1138 C102.5641,53.1848 96.9131,59.9998 87.6891,59.9998 C77.8001,59.9998 73.7281,54.6818 73.7281,43.7948 L73.7281,19.2798 Z" id="Fill-6" fill="#181312"></path>
            <g id="Group-10" transform="translate(114.000000, 16.000000)">
                <mask id="mask-4" fill="white">
                    <use xlink:href="#path-3"></use>
                </mask>
                <g id="Clip-9"></g>
                <path d="M32.8753,17.9884 C32.5423,9.1804 27.2243,4.8584 20.9923,4.8584 C14.0113,4.8584 7.9453,9.5124 6.6153,17.9884 L32.8753,17.9884 Z M21.1583,0.2044 C32.2933,0.2044 38.6093,8.2654 38.6093,20.1494 C38.6093,21.3124 37.6953,22.2274 36.4493,22.2274 L6.3663,22.2274 C6.6153,32.8644 13.9283,38.9304 22.5703,38.9304 C27.8063,38.9304 31.6293,36.6034 33.5403,35.1074 C34.7043,34.3594 35.6173,34.5254 36.2823,35.6064 L36.9473,36.6034 C37.5283,37.6004 37.3633,38.5984 36.3663,39.3454 C34.1223,41.0084 29.1363,44.0004 22.4043,44.0004 C9.9393,44.0004 0.5483,35.0244 0.5483,22.1444 C0.5483,8.4324 9.8563,0.2044 21.1583,0.2044 L21.1583,0.2044 Z" id="Fill-8" fill="#181312" mask="url(#mask-4)"></path>
            </g>
            <g id="Group-13" transform="translate(160.000000, 0.000000)">
                <mask id="mask-6" fill="white">
                    <use xlink:href="#path-5"></use>
                </mask>
                <g id="Clip-12"></g>
                <path d="M0.0989,3.4906 C0.0989,1.2466 1.2619,-0.0004 3.5049,-0.0004 L30.5139,-0.0004 C32.7569,-0.0004 34.0039,1.2466 34.0039,3.4906 L34.0039,5.8176 C34.0039,8.0606 32.7569,9.2246 30.5139,9.2246 L10.7359,9.2246 L10.7359,25.9276 L26.8579,25.9276 C29.1009,25.9276 30.3469,27.0916 30.3469,29.3346 L30.3469,31.6616 C30.3469,33.9056 29.1009,35.1526 26.8579,35.1526 L10.7359,35.1526 L10.7359,55.5116 C10.7359,57.8386 9.5719,59.0026 7.3289,59.0026 L3.5049,59.0026 C1.2619,59.0026 0.0989,57.8386 0.0989,55.5116 L0.0989,3.4906 Z" id="Fill-11" fill="#181312" mask="url(#mask-6)"></path>
            </g>
            <g id="Group-16" transform="translate(199.000000, 16.000000)">
                <mask id="mask-8" fill="white">
                    <use xlink:href="#path-7"></use>
                </mask>
                <g id="Clip-15"></g>
                <path d="M0.0073,4.1112 C0.0073,1.8662 1.2543,0.6202 3.4983,0.6202 L7.0713,0.6202 C9.3983,0.6202 10.5623,1.8662 10.5623,4.1112 L10.5623,25.7182 C10.5623,30.8702 11.8913,34.3592 17.1263,34.3592 C24.7723,34.3592 29.0103,27.6292 29.0103,20.0672 L29.0103,4.1112 C29.0103,1.8662 30.1733,0.6202 32.5003,0.6202 L36.0743,0.6202 C38.3173,0.6202 39.5643,1.8662 39.5643,4.1112 L39.5643,39.5122 C39.5643,41.8382 38.3173,43.0022 36.0743,43.0022 L32.8333,43.0022 C30.5893,43.0022 29.4253,41.8382 29.4253,39.5122 L29.4253,37.0192 C29.4253,36.0222 29.5913,35.1082 29.5913,35.1082 L29.4253,35.1082 C27.4313,39.4292 21.9463,44.0002 14.7173,44.0002 C5.6583,44.0002 0.0073,39.4292 0.0073,27.8782 L0.0073,4.1112 Z" id="Fill-14" fill="#181312" mask="url(#mask-8)"></path>
            </g>
            <path d="M246.0693,20.1112 C246.0693,17.8662 247.2323,16.6202 249.4753,16.6202 L252.7173,16.6202 C254.9603,16.6202 256.1243,17.8662 256.1243,20.1112 L256.1243,22.6872 C256.1243,23.6012 255.9583,24.5982 255.9583,24.5982 L256.1243,24.5982 C257.9523,21.0242 262.6073,15.6232 271.1653,15.6232 C280.5563,15.6232 285.9583,20.5262 285.9583,31.7452 L285.9583,55.5122 C285.9583,57.8382 284.7943,59.0022 282.4673,59.0022 L278.8943,59.0022 C276.6503,59.0022 275.4043,57.8382 275.4043,55.5122 L275.4043,33.9052 C275.4043,28.7532 274.0743,25.2632 268.7553,25.2632 C261.2763,25.2632 256.5403,31.4952 256.5403,39.1402 L256.5403,55.5122 C256.5403,57.8382 255.3763,59.0022 253.1323,59.0022 L249.4753,59.0022 C247.2323,59.0022 246.0693,57.8382 246.0693,55.5122 L246.0693,20.1112 Z" id="Fill-17" fill="#181312"></path>
            <path d="M320.795,32.9918 C320.629,27.0908 317.055,23.6008 312.235,23.6008 C306.834,23.6008 303.012,27.3408 302.014,32.9918 L320.795,32.9918 Z M312.485,15.6228 C324.535,15.6228 331.266,24.1828 331.266,35.8178 C331.266,37.6448 329.687,39.3898 327.609,39.3898 L301.765,39.3898 C302.43,47.0358 308.081,51.0248 314.479,51.0248 C318.385,51.0248 321.626,49.5288 323.621,48.2818 C325.698,47.2848 327.194,47.5338 328.274,49.4458 L329.272,51.1078 C330.268,53.0188 329.937,54.6818 328.108,55.7608 C325.365,57.5068 320.379,59.9998 313.732,59.9998 C299.687,59.9998 290.961,49.8608 290.961,37.8118 C290.961,24.7648 299.77,15.6228 312.485,15.6228 L312.485,15.6228 Z" id="Fill-19" fill="#181312"></path>
            <path d="M336.2689,20.1112 C336.2689,17.8662 337.4329,16.6202 339.6769,16.6202 L342.9179,16.6202 C345.1609,16.6202 346.4069,17.8662 346.4069,20.1112 L346.4069,24.0992 C346.4069,25.6792 346.1589,27.0082 346.1589,27.0082 L346.3239,27.0082 C347.9869,21.9392 352.6399,16.2882 358.6239,16.2882 C360.9509,16.2882 361.7819,17.4522 361.7819,19.7782 L361.7819,23.0202 C361.7819,25.2632 360.4519,26.5092 358.2079,26.5092 C350.4799,26.5092 346.7399,34.1552 346.7399,41.8832 L346.7399,55.5122 C346.7399,57.8382 345.5769,59.0022 343.3329,59.0022 L339.6769,59.0022 C337.4329,59.0022 336.2689,57.8382 336.2689,55.5122 L336.2689,20.1112 Z" id="Fill-21" fill="#181312"></path>
            <g id="Group-25" transform="translate(364.000000, 15.000000)">
                <mask id="mask-10" fill="white">
                    <use xlink:href="#path-9"></use>
                </mask>
                <g id="Clip-24"></g>
                <path d="M17.1533,36.9391 C23.0543,36.9391 26.8763,30.9551 26.8763,25.8031 L26.8763,24.2241 L25.1313,24.2241 C19.8123,24.2241 10.7553,25.0551 10.7553,31.3711 C10.7553,34.1971 12.9153,36.9391 17.1533,36.9391 M25.0483,17.8251 L26.7933,17.8251 L26.7933,16.8281 C26.7933,11.2601 23.2203,9.3491 18.8983,9.3491 C15.3253,9.3491 12.0843,10.6791 10.0903,11.7591 C8.0123,12.6731 6.4333,12.3411 5.4363,10.3471 L4.6053,8.7671 C3.6073,6.8561 3.9403,5.1941 5.9343,4.1131 C8.6763,2.7011 13.4973,0.6231 19.8123,0.6231 C30.7823,0.6231 37.3473,6.7731 37.3473,17.4931 L37.3473,40.5121 C37.3473,42.8381 36.1843,44.0021 33.8573,44.0021 L31.0313,44.0021 C28.7883,44.0021 27.6243,42.8381 27.6243,40.5121 L27.6243,38.8501 C27.6243,37.6861 27.7903,37.0221 27.7903,37.0221 L27.6243,37.0221 C27.6243,37.0221 23.6353,45.0001 14.3273,45.0001 C6.5993,45.0001 0.2833,40.0131 0.2833,32.2851 C0.2833,19.9031 15.5753,17.8251 25.0483,17.8251" id="Fill-23" fill="#181312" mask="url(#mask-10)"></path>
            </g>
            <g id="Group-28" transform="translate(408.000000, 0.000000)">
                <mask id="mask-12" fill="white">
                    <use xlink:href="#path-11"></use>
                </mask>
                <g id="Clip-27"></g>
                <path d="M0.8524,3.4906 C0.8524,1.2466 2.0154,-0.0004 4.2594,-0.0004 L7.9154,-0.0004 C10.1594,-0.0004 11.3234,1.2466 11.3234,3.4906 L11.3234,44.9576 C11.3234,49.1136 13.0684,49.8606 14.6474,50.0266 C16.1424,50.1936 17.2234,51.1076 17.2234,53.0186 L17.2234,55.8446 C17.2234,58.0046 16.2264,59.4186 13.7334,59.4186 C8.0824,59.4186 0.8524,57.9216 0.8524,45.7896 L0.8524,3.4906 Z" id="Fill-26" fill="#181312" mask="url(#mask-12)"></path>
            </g>
            <g id="Group-31" transform="translate(429.000000, 0.000000)">
                <mask id="mask-14" fill="white">
                    <use xlink:href="#path-13"></use>
                </mask>
                <g id="Clip-30"></g>
                <path d="M7.9077,7.6349 L8.7827,7.6349 C9.8037,7.6349 10.6307,7.2949 10.6307,6.4679 C10.6307,5.7389 10.0957,5.2519 8.9287,5.2519 C8.4427,5.2519 8.1027,5.3009 7.9077,5.3489 L7.9077,7.6349 Z M7.8587,12.1579 L6.0107,12.1579 L6.0107,4.1819 C6.7407,4.0359 7.7617,3.9389 9.0747,3.9389 C10.5817,3.9389 11.2627,4.1819 11.8467,4.5229 C12.2847,4.8629 12.6247,5.4949 12.6247,6.2729 C12.6247,7.1489 11.9437,7.8299 10.9717,8.1209 L10.9717,8.2189 C11.7497,8.5109 12.1867,9.0939 12.4297,10.1639 C12.6737,11.3799 12.8197,11.8659 13.0137,12.1579 L11.0197,12.1579 C10.7767,11.8659 10.6307,11.1369 10.3877,10.2119 C10.2417,9.3369 9.7557,8.9479 8.7347,8.9479 L7.8587,8.9479 L7.8587,12.1579 Z M2.9477,7.9759 C2.9477,11.5259 5.5727,14.3459 9.1717,14.3459 C12.6737,14.3459 15.2507,11.5259 15.2507,8.0239 C15.2507,4.4739 12.6737,1.6049 9.1237,1.6049 C5.5727,1.6049 2.9477,4.4739 2.9477,7.9759 L2.9477,7.9759 Z M17.2937,7.9759 C17.2937,12.4979 13.7437,16.0479 9.1237,16.0479 C4.5517,16.0479 0.9047,12.4979 0.9047,7.9759 C0.9047,3.5499 4.5517,-0.0001 9.1237,-0.0001 C13.7437,-0.0001 17.2937,3.5499 17.2937,7.9759 L17.2937,7.9759 Z" id="Fill-29" fill="#000000" mask="url(#mask-14)"></path>
            </g>
        </g>
    </g>
</svg>