<?xml version="1.0" encoding="UTF-8" standalone="no"?>
<svg width="146px" height="20px" viewBox="0 0 146 20" version="1.1" xmlns="http://www.w3.org/2000/svg" xmlns:xlink="http://www.w3.org/1999/xlink">
    <!-- Generator: Sketch 3.6.1 (26313) - http://www.bohemiancoding.com/sketch -->
    <title>TrueFuneral Logo</title>
    <desc>Created with Sketch.</desc>
    <defs></defs>
    <g id="Main" stroke="none" stroke-width="1" fill="none" fill-rule="evenodd">
        <g id="1.-Both---Search-results" transform="translate(-30.000000, -22.000000)" fill="#FFFFFF">
            <g id="Header">
                <g id="TrueFuneral-Logo" transform="translate(30.000000, 22.000000)">
                    <path d="M47.8673272,11.1073333 C47.7589966,8.22890196 46.0257061,6.81635294 43.9944086,6.81635294 C41.7194648,6.81635294 39.7425281,8.33752941 39.3092055,11.1073333 L47.8673272,11.1073333 Z M44.0487694,5.29556863 C47.6776508,5.29556863 49.7359332,7.93007843 49.7359332,11.8136078 C49.7359332,12.1936078 49.4379262,12.4924314 49.0319795,12.4924314 L39.2278597,12.4924314 C39.3092055,15.9685098 41.6924799,17.9512549 44.5090769,17.9512549 C46.2153825,17.9512549 47.4613806,17.1904706 48.0839885,16.7018431 C48.4633414,16.4575294 48.7609574,16.5116471 48.9780098,16.8649804 L49.1946711,17.1904706 C49.3839564,17.5167451 49.3299866,17.8426275 49.0049946,18.0869412 C48.273665,18.6300784 46.6487051,19.6077255 44.4547161,19.6077255 C40.3925121,19.6077255 37.3318777,16.6747843 37.3318777,12.4653725 C37.3318777,7.98419608 40.3655272,5.29556863 44.0487694,5.29556863 L44.0487694,5.29556863 Z" id="Fill-7"></path>
                    <path d="M124.219594,16.9735686 C126.142561,16.9735686 127.388168,15.0182745 127.388168,13.3343529 L127.388168,12.8182745 L126.81953,12.8182745 C125.086239,12.8182745 122.134327,13.0900392 122.134327,15.1539608 C122.134327,16.0774902 122.838671,16.9735686 124.219594,16.9735686 M126.792545,10.7272941 L127.361574,10.7272941 L127.361574,10.4014118 C127.361574,8.58180392 126.196922,7.95709804 124.788232,7.95709804 C123.623971,7.95709804 122.567649,8.392 121.917665,8.74454902 C121.240696,9.04337255 120.726028,8.9347451 120.401036,8.28337255 L120.130014,7.76690196 C119.805022,7.14258824 119.913353,6.59945098 120.563337,6.24611765 C121.456967,5.78494118 123.027957,5.10572549 125.086239,5.10572549 C128.661151,5.10572549 130.80117,7.11513725 130.80117,10.6186667 L130.80117,18.1410196 C130.80117,18.9014118 130.421817,19.2818039 129.663503,19.2818039 L128.742497,19.2818039 C128.011558,19.2818039 127.632205,18.9014118 127.632205,18.1410196 L127.632205,17.5982745 C127.632205,17.2178824 127.686175,17.0006275 127.686175,17.0006275 L127.632205,17.0006275 C127.632205,17.0006275 126.332237,19.6076863 123.298588,19.6076863 C120.779998,19.6076863 118.721715,17.9782745 118.721715,15.4523922 C118.721715,11.4061176 123.705317,10.7272941 126.792545,10.7272941" id="Fill-22"></path>
                    <path d="M104.548546,10.7816078 C104.494185,8.85337255 103.329533,7.71258824 101.758934,7.71258824 C99.9986585,7.71258824 98.7526605,8.93494118 98.4276685,10.7816078 L104.548546,10.7816078 Z M101.84028,5.10552941 C105.767559,5.10552941 107.961157,7.90278431 107.961157,11.7051373 C107.961157,12.3023922 107.446489,12.8725882 106.769129,12.8725882 L98.3463227,12.8725882 C98.562984,15.3714118 100.404996,16.674549 102.490264,16.674549 C103.763247,16.674549 104.819568,16.1859216 105.469552,15.7784706 C106.146521,15.4525882 106.634204,15.5341569 106.98579,16.1588627 L107.311173,16.702 C107.635774,17.3263137 107.527835,17.8698431 106.93182,18.2227843 C106.03819,18.7929804 104.41323,19.6078824 102.246617,19.6078824 C97.6693539,19.6078824 94.825772,16.294549 94.825772,12.3565098 C94.825772,8.09298039 97.6963388,5.10552941 101.84028,5.10552941 L101.84028,5.10552941 Z" id="Fill-17"></path>
                    <path d="M52.176971,1.14070588 C52.176971,0.407372549 52.5559327,-7.84313725e-05 53.2872624,-7.84313725e-05 L62.0894214,-7.84313725e-05 C62.82036,-7.84313725e-05 63.2266977,0.407372549 63.2266977,1.14070588 L63.2266977,1.90109804 C63.2266977,2.63443137 62.82036,3.01443137 62.0894214,3.01443137 L55.6435519,3.01443137 L55.6435519,8.47286275 L60.8977842,8.47286275 C61.6291139,8.47286275 62.0350605,8.8532549 62.0350605,9.58658824 L62.0350605,10.3469804 C62.0350605,11.0803137 61.6291139,11.4877647 60.8977842,11.4877647 L55.6435519,11.4877647 L55.6435519,18.141098 C55.6435519,18.9014902 55.2641991,19.2818824 54.5332605,19.2818824 L53.2872624,19.2818824 C52.5559327,19.2818824 52.176971,18.9014902 52.176971,18.141098 L52.176971,1.14070588 Z M64.8573674,6.57227451 C64.8573674,5.83894118 65.2637051,5.4314902 65.9950348,5.4314902 L67.1596871,5.4314902 C67.9180017,5.4314902 68.2973545,5.83894118 68.2973545,6.57227451 L68.2973545,13.6330588 C68.2973545,15.3169804 68.7302861,16.4573725 70.4365917,16.4573725 C72.9281967,16.4573725 74.3099014,14.2577647 74.3099014,11.7863922 L74.3099014,6.57227451 C74.3099014,5.83894118 74.6888632,5.4314902 75.4467867,5.4314902 L76.6118301,5.4314902 C77.3427687,5.4314902 77.7491064,5.83894118 77.7491064,6.57227451 L77.7491064,18.1412941 C77.7491064,18.9012941 77.3427687,19.2816863 76.6118301,19.2816863 L75.5555084,19.2816863 C74.8241787,19.2816863 74.4448259,18.9012941 74.4448259,18.1412941 L74.4448259,17.3263922 C74.4448259,17.000902 74.4991868,16.7020784 74.4991868,16.7020784 L74.4448259,16.7020784 C73.794842,18.1138431 72.0075817,19.6079608 69.6512922,19.6079608 C66.6989885,19.6079608 64.8573674,18.1138431 64.8573674,14.3393333 L64.8573674,6.57227451 Z M133.246823,1.14070588 C133.246823,0.407372549 133.625784,-7.84313725e-05 134.357505,-7.84313725e-05 L135.548751,-7.84313725e-05 C136.280081,-7.84313725e-05 136.659434,0.407372549 136.659434,1.14070588 L136.659434,14.6920784 C136.659434,16.0501176 137.228072,16.2944314 137.74274,16.348549 C138.230033,16.4030588 138.582401,16.7018824 138.582401,17.3265882 L138.582401,18.2497255 C138.582401,18.956 138.257018,19.4175686 137.444733,19.4175686 C135.603112,19.4175686 133.246823,18.928549 133.246823,14.9638431 L133.246823,1.14070588 Z M109.591553,6.57227451 C109.591553,5.83894118 109.970906,5.4314902 110.702236,5.4314902 L111.758557,5.4314902 C112.489496,5.4314902 112.895834,5.83894118 112.895834,6.57227451 L112.895834,7.87580392 C112.895834,8.39188235 112.814879,8.82639216 112.814879,8.82639216 L112.868458,8.82639216 C113.410502,7.16952941 114.927131,5.32286275 116.877083,5.32286275 C117.635398,5.32286275 117.90642,5.7032549 117.90642,6.46364706 L117.90642,7.52286275 C117.90642,8.25619608 117.472706,8.6632549 116.741767,8.6632549 C114.222786,8.6632549 113.004164,11.1616863 113.004164,13.6871765 L113.004164,18.1412941 C113.004164,18.9012941 112.625203,19.2816863 111.893873,19.2816863 L110.702236,19.2816863 C109.970906,19.2816863 109.591553,18.9012941 109.591553,18.1412941 L109.591553,6.57227451 Z M80.1951109,6.57227451 C80.1951109,5.83894118 80.5740726,5.4314902 81.3054023,5.4314902 L82.361724,5.4314902 C83.0926626,5.4314902 83.4720154,5.83894118 83.4720154,6.57227451 L83.4720154,7.41423529 C83.4720154,7.71266667 83.4180456,8.03854902 83.4180456,8.03854902 L83.4720154,8.03854902 C84.0680296,6.87070588 85.5846587,5.10560784 88.3738798,5.10560784 C91.4345141,5.10560784 93.1951805,6.70796078 93.1951805,10.3742353 L93.1951805,18.1412941 C93.1951805,18.9012941 92.8158277,19.2816863 92.0575131,19.2816863 L90.8928608,19.2816863 C90.1615311,19.2816863 89.7555845,18.9012941 89.7555845,18.1412941 L89.7555845,11.0801176 C89.7555845,9.39658824 89.3218708,8.25619608 87.5885803,8.25619608 C85.1513361,8.25619608 83.6077221,10.2926667 83.6077221,12.791098 L83.6077221,18.1412941 C83.6077221,18.9012941 83.2283692,19.2816863 82.4970395,19.2816863 L81.3054023,19.2816863 C80.5740726,19.2816863 80.1951109,18.9012941 80.1951109,18.1412941 L80.1951109,6.57227451 Z M24.0283258,6.30058824 C24.0283258,5.86607843 24.2449871,5.62176471 24.6783098,5.62176471 L25.1929781,5.62176471 C25.6263008,5.62176471 25.869947,5.86607843 25.869947,6.30058824 L25.869947,13.8229412 C25.869947,15.9688235 26.19533,17.8696078 28.8218595,17.8696078 C31.9368547,17.8696078 33.8598216,15.1268627 33.8598216,12.1664706 L33.8598216,6.30058824 C33.8598216,5.86607843 34.1030767,5.62176471 34.5367904,5.62176471 L35.0510677,5.62176471 C35.4847814,5.62176471 35.7014427,5.86607843 35.7014427,6.30058824 L35.7014427,18.6029412 C35.7014427,19.037451 35.4847814,19.2817647 35.0510677,19.2817647 L34.5637753,19.2817647 C34.1304527,19.2817647 33.9137914,19.037451 33.9137914,18.6029412 L33.9137914,17.0280392 C33.9137914,16.4845098 33.9951371,16.05 33.9951371,16.05 L33.9407763,16.05 C33.4261079,17.3805882 31.5844868,19.6076471 28.5782133,19.6076471 C25.3552786,19.6076471 24.0283258,17.8696078 24.0283258,14.3119608 L24.0283258,6.30058824 Z M15.5457618,6.30058824 C15.5457618,5.86607843 15.789408,5.62176471 16.2231217,5.62176471 L16.7104141,5.62176471 C17.1167518,5.62176471 17.360398,5.86607843 17.360398,6.30058824 L17.360398,8.1472549 C17.360398,8.7445098 17.2520674,9.23352941 17.2520674,9.23352941 L17.3060372,9.23352941 C17.9564122,7.25117647 19.5270111,5.54019608 21.6936242,5.54019608 C22.1813077,5.54019608 22.397969,5.75745098 22.397969,6.19196078 L22.397969,6.68098039 C22.397969,7.11509804 22.099962,7.35980392 21.6396545,7.35980392 C18.7690876,7.35980392 17.3873829,10.6456863 17.3873829,13.497451 L17.3873829,18.6029412 C17.3873829,19.037451 17.1707216,19.2817647 16.737399,19.2817647 L16.2231217,19.2817647 C15.789408,19.2817647 15.5457618,19.037451 15.5457618,18.6029412 L15.5457618,6.30058824 Z M6.82494857,1.7005098 L0.677086146,1.7005098 C0.243372442,1.7005098 0.000117325619,1.45345098 0.000117325619,1.01501961 L0.000117325619,0.685607843 C0.000117325619,0.246784314 0.243372442,0.000117647059 0.677086146,0.000117647059 L14.8684019,0.000117647059 C15.3021156,0.000117647059 15.5457618,0.246784314 15.5457618,0.685607843 L15.5457618,1.01501961 C15.5457618,1.45345098 15.3021156,1.7005098 14.8684019,1.7005098 L8.69355459,1.7005098 L8.69355459,18.5961961 C8.69355459,19.0350196 8.47689328,19.2816863 8.04357066,19.2816863 L7.50191739,19.2816863 C7.06859477,19.2816863 6.82494857,19.0350196 6.82494857,18.5961961 L6.82494857,1.7005098 Z" id="Fill-9"></path>
                    <path d="M142.9712,16.6400024 L143.510898,16.6400024 L144.054507,18.016473 C144.11708,18.1811789 144.195297,18.4243162 144.195297,18.4243162 L144.203119,18.4243162 C144.203119,18.4243162 144.277425,18.1811789 144.339999,18.016473 L144.883608,16.6400024 L145.423697,16.6400024 L145.646615,19.4247083 L145.145635,19.4247083 L145.028309,17.8674534 C145.016577,17.6831397 145.024398,17.4360809 145.024398,17.4360809 L145.016577,17.4360809 C145.016577,17.4360809 144.934449,17.7066691 144.867964,17.8674534 L144.418216,18.946277 L143.97629,18.946277 L143.530452,17.8674534 C143.463968,17.7066691 143.377929,17.4321593 143.377929,17.4321593 L143.370107,17.4321593 C143.370107,17.4321593 143.377929,17.6831397 143.366196,17.8674534 L143.248871,19.4247083 L142.744371,19.4247083 L142.9712,16.6400024 Z M141.139747,17.0752966 L140.228518,17.0752966 L140.228518,16.6400024 L142.555476,16.6400024 L142.555476,17.0752966 L141.644247,17.0752966 L141.644247,19.4247083 L141.139747,19.4247083 L141.139747,17.0752966 Z" id="Fill-29"></path>
                </g>
            </g>
        </g>
    </g>
</svg>