<?xml version="1.0" encoding="UTF-8" standalone="no"?>
<svg width="183px" height="25px" viewBox="0 0 183 25" version="1.1" xmlns="http://www.w3.org/2000/svg" xmlns:xlink="http://www.w3.org/1999/xlink">
    <!-- Generator: Sketch 3.6.1 (26313) - http://www.bohemiancoding.com/sketch -->
    <title>TrueFuneral Logo</title>
    <desc>Created with Sketch.</desc>
    <defs></defs>
    <g id="Main" stroke="none" stroke-width="1" fill="none" fill-rule="evenodd">
        <g id="Homepage" transform="translate(-100.000000, -60.000000)" fill="#FFFFFF">
            <g id="Header" transform="translate(100.000000, 60.000000)">
                <g id="TrueFuneral-Logo">
                    <path d="M59.9980882,13.8841667 C59.8623039,10.2861275 57.6897549,8.52044118 55.1436765,8.52044118 C52.2922059,8.52044118 49.8142647,10.4219118 49.2711275,13.8841667 L59.9980882,13.8841667 Z M55.2118137,6.61946078 C59.7603431,6.61946078 62.3402451,9.91259804 62.3402451,14.7670098 C62.3402451,15.2420098 61.9667157,15.6155392 61.4578922,15.6155392 L49.1691667,15.6155392 C49.2711275,19.9606373 52.2583824,22.4390686 55.7887745,22.4390686 C57.9275,22.4390686 59.4892647,21.4880882 60.2696569,20.8773039 C60.7451471,20.5719118 61.1181863,20.6395588 61.3902451,21.0812255 L61.6618137,21.4880882 C61.8990686,21.8959314 61.8314216,22.3032843 61.4240686,22.6086765 C60.507402,23.287598 58.4706373,24.5096569 55.7206373,24.5096569 C50.6289706,24.5096569 46.7926961,20.8434804 46.7926961,15.5817157 C46.7926961,9.9802451 50.5951471,6.61946078 55.2118137,6.61946078 L55.2118137,6.61946078 Z" id="Fill-7"></path>
                    <path d="M155.699902,21.2169608 C158.110196,21.2169608 159.671471,18.7728431 159.671471,16.6679412 L159.671471,16.0228431 L158.958725,16.0228431 C156.786176,16.0228431 153.086176,16.362549 153.086176,18.942451 C153.086176,20.0968627 153.96902,21.2169608 155.699902,21.2169608 M158.924902,13.4091176 L159.638137,13.4091176 L159.638137,13.0017647 C159.638137,10.7272549 158.178333,9.94637255 156.412647,9.94637255 C154.953333,9.94637255 153.629314,10.49 152.814608,10.9306863 C151.966078,11.3042157 151.32098,11.1684314 150.913627,10.3542157 L150.573922,9.70862745 C150.166569,8.92823529 150.302353,8.24931373 151.117059,7.80764706 C152.237157,7.23117647 154.206275,6.38215686 156.786176,6.38215686 C161.267059,6.38215686 163.949412,8.89392157 163.949412,13.2733333 L163.949412,22.6762745 C163.949412,23.6267647 163.473922,24.1022549 162.523431,24.1022549 L161.36902,24.1022549 C160.452843,24.1022549 159.977353,23.6267647 159.977353,22.6762745 L159.977353,21.9978431 C159.977353,21.5223529 160.045,21.2507843 160.045,21.2507843 L159.977353,21.2507843 C159.977353,21.2507843 158.347941,24.5096078 154.54549,24.5096078 C151.388627,24.5096078 148.808725,22.4728431 148.808725,19.3154902 C148.808725,14.2576471 155.055294,13.4091176 158.924902,13.4091176" id="Fill-22"></path>
                    <path d="M131.043725,13.4770098 C130.975588,11.0667157 129.515784,9.64073529 127.547157,9.64073529 C125.340784,9.64073529 123.77902,11.1686765 123.371667,13.4770098 L131.043725,13.4770098 Z M127.649118,6.38191176 C132.571667,6.38191176 135.321176,9.87848039 135.321176,14.6314216 C135.321176,15.3779902 134.676078,16.0907353 133.827059,16.0907353 L123.269706,16.0907353 C123.541275,19.2142647 125.850098,20.8431863 128.463824,20.8431863 C130.059412,20.8431863 131.383431,20.232402 132.198137,19.7230882 C133.046667,19.3157353 133.657941,19.4176961 134.098627,20.1985784 L134.506471,20.8775 C134.913333,21.6578922 134.778039,22.3373039 134.03098,22.7784804 C132.910882,23.4912255 130.874118,24.5098529 128.158431,24.5098529 C122.421176,24.5098529 118.856961,20.3681863 118.856961,15.4456373 C118.856961,10.1162255 122.455,6.38191176 127.649118,6.38191176 L127.649118,6.38191176 Z" id="Fill-17"></path>
                    <path d="M65.399902,1.42588235 C65.399902,0.509215686 65.874902,-9.80392157e-05 66.7915686,-9.80392157e-05 L77.8244118,-9.80392157e-05 C78.7405882,-9.80392157e-05 79.249902,0.509215686 79.249902,1.42588235 L79.249902,2.37637255 C79.249902,3.29303922 78.7405882,3.76803922 77.8244118,3.76803922 L69.745,3.76803922 L69.745,10.5910784 L76.3307843,10.5910784 C77.247451,10.5910784 77.7562745,11.0665686 77.7562745,11.9832353 L77.7562745,12.9337255 C77.7562745,13.8503922 77.247451,14.3597059 76.3307843,14.3597059 L69.745,14.3597059 L69.745,22.6763725 C69.745,23.6268627 69.2695098,24.1023529 68.3533333,24.1023529 L66.7915686,24.1023529 C65.874902,24.1023529 65.399902,23.6268627 65.399902,22.6763725 L65.399902,1.42588235 Z M81.2938235,8.21534314 C81.2938235,7.29867647 81.8031373,6.78936275 82.7198039,6.78936275 L84.1796078,6.78936275 C85.130098,6.78936275 85.6055882,7.29867647 85.6055882,8.21534314 L85.6055882,17.0413235 C85.6055882,19.1462255 86.1482353,20.5717157 88.2869608,20.5717157 C91.41,20.5717157 93.1418627,17.8222059 93.1418627,14.7329902 L93.1418627,8.21534314 C93.1418627,7.29867647 93.6168627,6.78936275 94.5668627,6.78936275 L96.0271569,6.78936275 C96.9433333,6.78936275 97.4526471,7.29867647 97.4526471,8.21534314 L97.4526471,22.6766176 C97.4526471,23.6266176 96.9433333,24.1021078 96.0271569,24.1021078 L94.7031373,24.1021078 C93.7864706,24.1021078 93.3109804,23.6266176 93.3109804,22.6766176 L93.3109804,21.6579902 C93.3109804,21.2511275 93.3791176,20.877598 93.3791176,20.877598 L93.3109804,20.877598 C92.4962745,22.6423039 90.2560784,24.509951 87.3026471,24.509951 C83.6021569,24.509951 81.2938235,22.6423039 81.2938235,17.9241667 L81.2938235,8.21534314 Z M167.014853,1.42588235 C167.014853,0.509215686 167.489853,-9.80392157e-05 168.40701,-9.80392157e-05 L169.900147,-9.80392157e-05 C170.816814,-9.80392157e-05 171.292304,0.509215686 171.292304,1.42588235 L171.292304,18.365098 C171.292304,20.0626471 172.005049,20.3680392 172.650147,20.4356863 C173.260931,20.5038235 173.702598,20.8773529 173.702598,21.6582353 L173.702598,22.8121569 C173.702598,23.695 173.294755,24.2719608 172.276618,24.2719608 C169.968284,24.2719608 167.014853,23.6606863 167.014853,18.7048039 L167.014853,1.42588235 Z M137.364755,8.21534314 C137.364755,7.29867647 137.840245,6.78936275 138.756912,6.78936275 L140.080931,6.78936275 C140.997108,6.78936275 141.506422,7.29867647 141.506422,8.21534314 L141.506422,9.8447549 C141.506422,10.4898529 141.404951,11.0329902 141.404951,11.0329902 L141.472108,11.0329902 C142.15152,8.96191176 144.0525,6.65357843 146.496618,6.65357843 C147.447108,6.65357843 147.786814,7.12906863 147.786814,8.07955882 L147.786814,9.40357843 C147.786814,10.3202451 147.243186,10.8290686 146.32701,10.8290686 C143.169657,10.8290686 141.642206,13.9521078 141.642206,17.1089706 L141.642206,22.6766176 C141.642206,23.6266176 141.167206,24.1021078 140.250539,24.1021078 L138.756912,24.1021078 C137.840245,24.1021078 137.364755,23.6266176 137.364755,22.6766176 L137.364755,8.21534314 Z M100.518529,8.21534314 C100.518529,7.29867647 100.993529,6.78936275 101.910196,6.78936275 L103.234216,6.78936275 C104.150392,6.78936275 104.625882,7.29867647 104.625882,8.21534314 L104.625882,9.26779412 C104.625882,9.64083333 104.558235,10.0481863 104.558235,10.0481863 L104.625882,10.0481863 C105.372941,8.58838235 107.273922,6.3820098 110.77,6.3820098 C114.606275,6.3820098 116.813137,8.38495098 116.813137,12.9677941 L116.813137,22.6766176 C116.813137,23.6266176 116.337647,24.1021078 115.387157,24.1021078 L113.927353,24.1021078 C113.010686,24.1021078 112.501863,23.6266176 112.501863,22.6766176 L112.501863,13.8501471 C112.501863,11.7457353 111.958235,10.3202451 109.785686,10.3202451 C106.730784,10.3202451 104.79598,12.8658333 104.79598,15.9888725 L104.79598,22.6766176 C104.79598,23.6266176 104.32049,24.1021078 103.403824,24.1021078 L101.910196,24.1021078 C100.993529,24.1021078 100.518529,23.6266176 100.518529,22.6766176 L100.518529,8.21534314 Z M30.1176961,7.87573529 C30.1176961,7.33259804 30.3892647,7.02720588 30.932402,7.02720588 L31.5775,7.02720588 C32.1206373,7.02720588 32.4260294,7.33259804 32.4260294,7.87573529 L32.4260294,17.2786765 C32.4260294,19.9610294 32.8338725,22.3370098 36.1260294,22.3370098 C40.0304412,22.3370098 42.4407353,18.9085784 42.4407353,15.2080882 L42.4407353,7.87573529 C42.4407353,7.33259804 42.7456373,7.02720588 43.2892647,7.02720588 L43.9338725,7.02720588 C44.4775,7.02720588 44.7490686,7.33259804 44.7490686,7.87573529 L44.7490686,23.2536765 C44.7490686,23.7968137 44.4775,24.1022059 43.9338725,24.1022059 L43.3230882,24.1022059 C42.779951,24.1022059 42.5083824,23.7968137 42.5083824,23.2536765 L42.5083824,21.285049 C42.5083824,20.6056373 42.6103431,20.0625 42.6103431,20.0625 L42.5422059,20.0625 C41.8971078,21.7257353 39.5887745,24.5095588 35.8206373,24.5095588 C31.7809314,24.5095588 30.1176961,22.3370098 30.1176961,17.889951 L30.1176961,7.87573529 Z M19.4854412,7.87573529 C19.4854412,7.33259804 19.7908333,7.02720588 20.3344608,7.02720588 L20.9452451,7.02720588 C21.4545588,7.02720588 21.759951,7.33259804 21.759951,7.87573529 L21.759951,10.1840686 C21.759951,10.9306373 21.6241667,11.5419118 21.6241667,11.5419118 L21.6918137,11.5419118 C22.5070098,9.06397059 24.4756373,6.9252451 27.1913235,6.9252451 C27.802598,6.9252451 28.0741667,7.19681373 28.0741667,7.73995098 L28.0741667,8.35122549 C28.0741667,8.89387255 27.7006373,9.1997549 27.1236765,9.1997549 C23.5256373,9.1997549 21.7937745,13.3071078 21.7937745,16.8718137 L21.7937745,23.2536765 C21.7937745,23.7968137 21.5222059,24.1022059 20.9790686,24.1022059 L20.3344608,24.1022059 C19.7908333,24.1022059 19.4854412,23.7968137 19.4854412,23.2536765 L19.4854412,7.87573529 Z M8.55455882,2.12563725 L0.848676471,2.12563725 C0.30504902,2.12563725 0.000147058823,1.81681373 0.000147058823,1.26877451 L0.000147058823,0.857009804 C0.000147058823,0.308480392 0.30504902,0.000147058824 0.848676471,0.000147058824 L18.6364216,0.000147058824 C19.180049,0.000147058824 19.4854412,0.308480392 19.4854412,0.857009804 L19.4854412,1.26877451 C19.4854412,1.81681373 19.180049,2.12563725 18.6364216,2.12563725 L10.8967157,2.12563725 L10.8967157,23.2452451 C10.8967157,23.7937745 10.6251471,24.1021078 10.0820098,24.1021078 L9.40308824,24.1021078 C8.85995098,24.1021078 8.55455882,23.7937745 8.55455882,23.2452451 L8.55455882,2.12563725 Z" id="Fill-9"></path>
                    <path d="M179.203627,20.8000031 L179.880098,20.8000031 L180.561471,22.5205913 C180.639902,22.7264736 180.737941,23.0303952 180.737941,23.0303952 L180.747745,23.0303952 C180.747745,23.0303952 180.840882,22.7264736 180.919314,22.5205913 L181.600686,20.8000031 L182.277647,20.8000031 L182.557059,24.2808854 L181.929118,24.2808854 L181.782059,22.3343168 C181.767353,22.1039246 181.777157,21.7951011 181.777157,21.7951011 L181.767353,21.7951011 C181.767353,21.7951011 181.664412,22.1333364 181.581078,22.3343168 L181.017353,23.6828462 L180.463431,23.6828462 L179.904608,22.3343168 C179.821275,22.1333364 179.713431,21.7901991 179.713431,21.7901991 L179.703627,21.7901991 C179.703627,21.7901991 179.713431,22.1039246 179.698725,22.3343168 L179.551667,24.2808854 L178.919314,24.2808854 L179.203627,20.8000031 Z M176.908039,21.3441207 L175.765882,21.3441207 L175.765882,20.8000031 L178.682549,20.8000031 L178.682549,21.3441207 L177.540392,21.3441207 L177.540392,24.2808854 L176.908039,24.2808854 L176.908039,21.3441207 Z" id="Fill-29"></path>
                </g>
            </g>
        </g>
    </g>
</svg>